solid OpenSCAD_Model
  facet normal -0.707107 -0.707107 -3.1582e-15
    outer loop
      vertex -34.3278 -27.3498 0.5
      vertex -27.3498 -34.3278 0.5
      vertex -34.2539 -27.4238 1.29409
    endloop
  endfacet
  facet normal -0.707107 -0.707107 -3.44963e-15
    outer loop
      vertex -34.2539 -27.4238 1.29409
      vertex -27.3498 -34.3278 0.5
      vertex -27.4238 -34.2539 1.29409
    endloop
  endfacet
  facet normal -0.707107 -0.707107 2.22321e-15
    outer loop
      vertex -34.2539 -27.4238 1.29409
      vertex -27.4238 -34.2539 1.29409
      vertex -27.777 -33.9007 2.5
    endloop
  endfacet
  facet normal -0.707107 -0.707107 -2.22984e-15
    outer loop
      vertex -34.2539 -27.4238 1.29409
      vertex -27.777 -33.9007 2.5
      vertex -28.3388 -33.3388 3.53553
    endloop
  endfacet
  facet normal -0.707107 -0.707107 2.59887e-15
    outer loop
      vertex -34.2539 -27.4238 1.29409
      vertex -28.3388 -33.3388 3.53553
      vertex -29.0711 -32.6066 4.33013
    endloop
  endfacet
  facet normal -0.707107 -0.707107 -2.03641e-15
    outer loop
      vertex -34.2539 -27.4238 1.29409
      vertex -29.0711 -32.6066 4.33013
      vertex -29.9238 -31.7539 4.82963
    endloop
  endfacet
  facet normal -0.707107 -0.707107 0
    outer loop
      vertex -34.2539 -27.4238 1.29409
      vertex -29.9238 -31.7539 4.82963
      vertex -30.8388 -30.8388 5
    endloop
  endfacet
  facet normal -0.707107 -0.707107 0
    outer loop
      vertex -34.2539 -27.4238 1.29409
      vertex -30.8388 -30.8388 5
      vertex -31.7539 -29.9238 4.82963
    endloop
  endfacet
  facet normal -0.707107 -0.707107 7.22364e-15
    outer loop
      vertex -34.2539 -27.4238 1.29409
      vertex -31.7539 -29.9238 4.82963
      vertex -32.6066 -29.0711 4.33013
    endloop
  endfacet
  facet normal -0.707107 -0.707107 -4.94731e-15
    outer loop
      vertex -34.2539 -27.4238 1.29409
      vertex -32.6066 -29.0711 4.33013
      vertex -33.3388 -28.3388 3.53553
    endloop
  endfacet
  facet normal -0.707107 -0.707107 7.43156e-15
    outer loop
      vertex -34.2539 -27.4238 1.29409
      vertex -33.3388 -28.3388 3.53553
      vertex -33.9007 -27.777 2.5
    endloop
  endfacet
  facet normal 2.43822e-16 2.43822e-16 -1
    outer loop
      vertex -32.5601 -22.0465 0.5
      vertex -30.7685 -23.8381 0.5
      vertex -33.2431 -24.0956 0.5
    endloop
  endfacet
  facet normal 2.91401e-16 1.6824e-16 -1
    outer loop
      vertex -21.8435 -15.8702 0.5
      vertex -30.7685 -23.8381 0.5
      vertex -22.1938 -15.2634 0.5
    endloop
  endfacet
  facet normal 2.36595e-16 2.18659e-16 -1
    outer loop
      vertex -15.2099 -22.1403 0.5
      vertex -30.7685 -23.8381 0.5
      vertex -18.0665 -20.0649 0.5
    endloop
  endfacet
  facet normal 2.31711e-16 2.35101e-16 -1
    outer loop
      vertex -30.7685 -23.8381 0.5
      vertex -21.8435 -15.8702 0.5
      vertex -18.0665 -20.0649 0.5
    endloop
  endfacet
  facet normal 2.34831e-16 2.34831e-16 -1
    outer loop
      vertex -23.8381 -30.7685 0.5
      vertex -30.7685 -23.8381 0.5
      vertex -15.2099 -22.1403 0.5
    endloop
  endfacet
  facet normal 2.43822e-16 2.43822e-16 -1
    outer loop
      vertex -33.2431 -24.0956 0.5
      vertex -30.7685 -23.8381 0.5
      vertex -23.8381 -30.7685 0.5
    endloop
  endfacet
  facet normal 2.43822e-16 2.43822e-16 -1
    outer loop
      vertex -33.2431 -24.0956 0.5
      vertex -23.8381 -30.7685 0.5
      vertex -22.0465 -32.5601 0.5
    endloop
  endfacet
  facet normal 2.43252e-16 2.43068e-16 -1
    outer loop
      vertex -33.2431 -24.0956 0.5
      vertex -22.0465 -32.5601 0.5
      vertex -25.9838 -33.8725 0.5
    endloop
  endfacet
  facet normal 2.11336e-16 2.1937e-16 -1
    outer loop
      vertex -33.2431 -24.0956 0.5
      vertex -25.9838 -33.8725 0.5
      vertex -27.3498 -34.3278 0.5
    endloop
  endfacet
  facet normal 2.30283e-16 2.30283e-16 -1
    outer loop
      vertex -33.2431 -24.0956 0.5
      vertex -27.3498 -34.3278 0.5
      vertex -34.3278 -27.3498 0.5
    endloop
  endfacet
  facet normal -0.942174 0.314058 0.116946
    outer loop
      vertex -33.2431 -24.0956 0.5
      vertex -34.3278 -27.3498 0.5
      vertex -34.2539 -27.4238 1.29409
    endloop
  endfacet
  facet normal -0.942174 0.314058 0.116945
    outer loop
      vertex -34.2539 -27.4238 1.29409
      vertex -32.4259 -22.1807 1.94114
      vertex -33.2431 -24.0956 0.5
    endloop
  endfacet
  facet normal -0.942174 0.314058 0.116945
    outer loop
      vertex -33.2431 -24.0956 0.5
      vertex -32.4259 -22.1807 1.94114
      vertex -32.5601 -22.0465 0.5
    endloop
  endfacet
  facet normal -0.899369 0.271253 0.342867
    outer loop
      vertex -32.4259 -22.1807 1.94114
      vertex -34.2539 -27.4238 1.29409
      vertex -33.9007 -27.777 2.5
    endloop
  endfacet
  facet normal -0.899369 0.271253 0.342867
    outer loop
      vertex -32.4259 -22.1807 1.94114
      vertex -33.9007 -27.777 2.5
      vertex -31.8961 -22.7105 3.75
    endloop
  endfacet
  facet normal -0.816676 0.18856 0.545423
    outer loop
      vertex -31.8961 -22.7105 3.75
      vertex -33.9007 -27.777 2.5
      vertex -33.3388 -28.3388 3.53553
    endloop
  endfacet
  facet normal -0.816676 0.18856 0.545423
    outer loop
      vertex -31.8961 -22.7105 3.75
      vertex -33.3388 -28.3388 3.53553
      vertex -31.0533 -23.5533 5.3033
    endloop
  endfacet
  facet normal -0.69973 0.0716142 0.710809
    outer loop
      vertex -31.0533 -23.5533 5.3033
      vertex -33.3388 -28.3388 3.53553
      vertex -32.6066 -29.0711 4.33013
    endloop
  endfacet
  facet normal -0.69973 0.0716143 0.710809
    outer loop
      vertex -31.0533 -23.5533 5.3033
      vertex -32.6066 -29.0711 4.33013
      vertex -29.955 -24.6517 6.49519
    endloop
  endfacet
  facet normal -0.556502 -0.0716144 0.827754
    outer loop
      vertex -29.955 -24.6517 6.49519
      vertex -32.6066 -29.0711 4.33013
      vertex -31.7539 -29.9238 4.82963
    endloop
  endfacet
  facet normal -0.556502 -0.0716144 0.827754
    outer loop
      vertex -29.955 -24.6517 6.49519
      vertex -31.7539 -29.9238 4.82963
      vertex -28.6759 -25.9307 7.24444
    endloop
  endfacet
  facet normal -0.396751 -0.231365 0.88829
    outer loop
      vertex -28.6759 -25.9307 7.24444
      vertex -31.7539 -29.9238 4.82963
      vertex -30.8388 -30.8388 5
    endloop
  endfacet
  facet normal -0.396751 -0.231365 0.88829
    outer loop
      vertex -28.6759 -25.9307 7.24444
      vertex -30.8388 -30.8388 5
      vertex -27.3033 -27.3033 7.5
    endloop
  endfacet
  facet normal -0.231365 -0.396751 0.88829
    outer loop
      vertex -27.3033 -27.3033 7.5
      vertex -30.8388 -30.8388 5
      vertex -29.9238 -31.7539 4.82963
    endloop
  endfacet
  facet normal -0.231365 -0.396751 0.88829
    outer loop
      vertex -27.3033 -27.3033 7.5
      vertex -29.9238 -31.7539 4.82963
      vertex -25.9307 -28.6759 7.24444
    endloop
  endfacet
  facet normal -0.0716144 -0.556502 0.827754
    outer loop
      vertex -25.9307 -28.6759 7.24444
      vertex -29.9238 -31.7539 4.82963
      vertex -29.0711 -32.6066 4.33013
    endloop
  endfacet
  facet normal -0.0716143 -0.556502 0.827754
    outer loop
      vertex -25.9307 -28.6759 7.24444
      vertex -29.0711 -32.6066 4.33013
      vertex -24.6517 -29.955 6.49519
    endloop
  endfacet
  facet normal 0.0716141 -0.69973 0.710809
    outer loop
      vertex -24.6517 -29.955 6.49519
      vertex -29.0711 -32.6066 4.33013
      vertex -28.3388 -33.3388 3.53553
    endloop
  endfacet
  facet normal 0.0716143 -0.69973 0.710809
    outer loop
      vertex -24.6517 -29.955 6.49519
      vertex -28.3388 -33.3388 3.53553
      vertex -23.5533 -31.0533 5.3033
    endloop
  endfacet
  facet normal 0.18856 -0.816676 0.545423
    outer loop
      vertex -23.5533 -31.0533 5.3033
      vertex -28.3388 -33.3388 3.53553
      vertex -27.777 -33.9007 2.5
    endloop
  endfacet
  facet normal 0.18856 -0.816676 0.545423
    outer loop
      vertex -23.5533 -31.0533 5.3033
      vertex -27.777 -33.9007 2.5
      vertex -22.7105 -31.8961 3.75
    endloop
  endfacet
  facet normal 0.271253 -0.899369 0.342867
    outer loop
      vertex -22.7105 -31.8961 3.75
      vertex -27.777 -33.9007 2.5
      vertex -27.4238 -34.2539 1.29409
    endloop
  endfacet
  facet normal 0.271253 -0.899369 0.342867
    outer loop
      vertex -22.7105 -31.8961 3.75
      vertex -27.4238 -34.2539 1.29409
      vertex -22.1807 -32.4259 1.94114
    endloop
  endfacet
  facet normal 0.314058 -0.942174 0.116946
    outer loop
      vertex -22.1807 -32.4259 1.94114
      vertex -27.4238 -34.2539 1.29409
      vertex -27.3498 -34.3278 0.5
    endloop
  endfacet
  facet normal 0.314058 -0.942174 0.116946
    outer loop
      vertex -25.9838 -33.8725 0.5
      vertex -22.1807 -32.4259 1.94114
      vertex -27.3498 -34.3278 0.5
    endloop
  endfacet
  facet normal 0.314058 -0.942174 0.116945
    outer loop
      vertex -22.1807 -32.4259 1.94114
      vertex -25.9838 -33.8725 0.5
      vertex -22.0465 -32.5601 0.5
    endloop
  endfacet
  facet normal 0.707107 0.707107 7.90592e-15
    outer loop
      vertex -32.4259 -22.1807 1.94114
      vertex -31.8961 -22.7105 3.75
      vertex -31.0533 -23.5533 5.3033
    endloop
  endfacet
  facet normal 0.707107 0.707107 -1.38916e-16
    outer loop
      vertex -28.6759 -25.9307 7.24444
      vertex -32.4259 -22.1807 1.94114
      vertex -29.955 -24.6517 6.49519
    endloop
  endfacet
  facet normal 0.707107 0.707107 -1.97893e-16
    outer loop
      vertex -29.955 -24.6517 6.49519
      vertex -32.4259 -22.1807 1.94114
      vertex -31.0533 -23.5533 5.3033
    endloop
  endfacet
  facet normal 0.707107 0.707107 1.63107e-15
    outer loop
      vertex -27.3033 -27.3033 7.5
      vertex -32.4259 -22.1807 1.94114
      vertex -28.6759 -25.9307 7.24444
    endloop
  endfacet
  facet normal 0.707107 0.707107 1.20411e-15
    outer loop
      vertex -25.9307 -28.6759 7.24444
      vertex -32.4259 -22.1807 1.94114
      vertex -27.3033 -27.3033 7.5
    endloop
  endfacet
  facet normal 0.707107 0.707107 -1.71915e-15
    outer loop
      vertex -28.6563 -25.9503 4.6194
      vertex -32.4259 -22.1807 1.94114
      vertex -25.9307 -28.6759 7.24444
    endloop
  endfacet
  facet normal 0.707107 0.707107 1.13872e-15
    outer loop
      vertex -25.9503 -28.6563 4.6194
      vertex -27.3033 -27.3033 5
      vertex -24.6517 -29.955 6.49519
    endloop
  endfacet
  facet normal 0.707107 0.707107 0
    outer loop
      vertex -24.8033 -29.8033 3.53553
      vertex -25.9503 -28.6563 4.6194
      vertex -23.5533 -31.0533 5.3033
    endloop
  endfacet
  facet normal 0.707107 0.707107 0
    outer loop
      vertex -24.0369 -30.5697 1.91342
      vertex -24.8033 -29.8033 3.53553
      vertex -22.7105 -31.8961 3.75
    endloop
  endfacet
  facet normal 0.707107 0.707107 -1.87206e-15
    outer loop
      vertex -22.0465 -32.5601 0.5
      vertex -24.0369 -30.5697 1.91342
      vertex -22.1807 -32.4259 1.94114
    endloop
  endfacet
  facet normal 0.707107 0.707107 0
    outer loop
      vertex -22.7105 -31.8961 3.75
      vertex -24.8033 -29.8033 3.53553
      vertex -23.5533 -31.0533 5.3033
    endloop
  endfacet
  facet normal 0.707107 0.707107 1.62516e-15
    outer loop
      vertex -23.5533 -31.0533 5.3033
      vertex -25.9503 -28.6563 4.6194
      vertex -24.6517 -29.955 6.49519
    endloop
  endfacet
  facet normal 0.707107 0.707107 8.49385e-16
    outer loop
      vertex -24.6517 -29.955 6.49519
      vertex -27.3033 -27.3033 5
      vertex -25.9307 -28.6759 7.24444
    endloop
  endfacet
  facet normal 0.707107 0.707107 1.33695e-15
    outer loop
      vertex -27.3033 -27.3033 5
      vertex -28.6563 -25.9503 4.6194
      vertex -25.9307 -28.6759 7.24444
    endloop
  endfacet
  facet normal 0.707107 0.707107 -5.59261e-15
    outer loop
      vertex -29.8033 -24.8033 3.53553
      vertex -32.4259 -22.1807 1.94114
      vertex -28.6563 -25.9503 4.6194
    endloop
  endfacet
  facet normal 0.707107 0.707107 -1.92902e-16
    outer loop
      vertex -30.5697 -24.0369 1.91342
      vertex -30.7685 -23.8381 0.5
      vertex -32.4259 -22.1807 1.94114
    endloop
  endfacet
  facet normal 0.707107 0.707107 9.62495e-16
    outer loop
      vertex -24.0369 -30.5697 1.91342
      vertex -22.7105 -31.8961 3.75
      vertex -22.1807 -32.4259 1.94114
    endloop
  endfacet
  facet normal 0.707107 0.707107 -1.3419e-16
    outer loop
      vertex -32.5601 -22.0465 0.5
      vertex -32.4259 -22.1807 1.94114
      vertex -30.7685 -23.8381 0.5
    endloop
  endfacet
  facet normal 0.707107 0.707107 1.9777e-15
    outer loop
      vertex -23.8381 -30.7685 0.5
      vertex -24.0369 -30.5697 1.91342
      vertex -22.0465 -32.5601 0.5
    endloop
  endfacet
  facet normal 0.707107 0.707107 8.90368e-16
    outer loop
      vertex -29.8033 -24.8033 3.53553
      vertex -30.5697 -24.0369 1.91342
      vertex -32.4259 -22.1807 1.94114
    endloop
  endfacet
  facet normal 0.69352 -0.69352 0.19509
    outer loop
      vertex -15.4402 -21.973 1.91342
      vertex -24.0369 -30.5697 1.91342
      vertex -23.8381 -30.7685 0.5
    endloop
  endfacet
  facet normal 0.69352 -0.69352 0.19509
    outer loop
      vertex -15.2099 -22.1403 0.5
      vertex -15.4402 -21.973 1.91342
      vertex -23.8381 -30.7685 0.5
    endloop
  endfacet
  facet normal -0.587785 -0.809017 0
    outer loop
      vertex -18.0665 -20.0649 -4.71892
      vertex -18.0665 -20.0649 -20
      vertex -13.5 -23.3827 -20
    endloop
  endfacet
  facet normal -0.587785 -0.809017 1.03793e-15
    outer loop
      vertex -17.6567 -20.3627 -4.6194
      vertex -18.0665 -20.0649 -4.71892
      vertex -13.5 -23.3827 -20
    endloop
  endfacet
  facet normal -0.587785 -0.809017 0
    outer loop
      vertex -18.0665 -20.0649 20
      vertex -18.0665 -20.0649 4.71892
      vertex -13.5 -23.3827 20
    endloop
  endfacet
  facet normal -0.587785 -0.809017 -1.04893e-15
    outer loop
      vertex -18.0665 -20.0649 4.71892
      vertex -17.6567 -20.3627 4.6194
      vertex -13.5 -23.3827 20
    endloop
  endfacet
  facet normal -0.587785 -0.809017 -2.62961e-16
    outer loop
      vertex -13.5 -23.3827 20
      vertex -16.328 -21.328 3.53553
      vertex -15.4402 -21.973 1.91342
    endloop
  endfacet
  facet normal -0.587785 -0.809017 0
    outer loop
      vertex -13.5 -23.3827 20
      vertex -15.2099 -22.1403 0.5
      vertex -13.5 -23.3827 -20
    endloop
  endfacet
  facet normal -0.587785 -0.809017 7.72573e-17
    outer loop
      vertex -13.5 -23.3827 20
      vertex -15.4402 -21.973 1.91342
      vertex -15.2099 -22.1403 0.5
    endloop
  endfacet
  facet normal -0.587785 -0.809017 0
    outer loop
      vertex -15.2099 -22.1403 0.5
      vertex -15.2099 -22.1403 -0.5
      vertex -13.5 -23.3827 -20
    endloop
  endfacet
  facet normal -0.587785 -0.809017 0
    outer loop
      vertex -18.0665 -20.0649 -0.5
      vertex -15.2099 -22.1403 -0.5
      vertex -15.2099 -22.1403 0.5
    endloop
  endfacet
  facet normal -0.587785 -0.809017 4.57602e-17
    outer loop
      vertex -16.328 -21.328 -3.53553
      vertex -17.6567 -20.3627 -4.6194
      vertex -13.5 -23.3827 -20
    endloop
  endfacet
  facet normal -0.587785 -0.809017 -7.98673e-17
    outer loop
      vertex -17.6567 -20.3627 4.6194
      vertex -16.328 -21.328 3.53553
      vertex -13.5 -23.3827 20
    endloop
  endfacet
  facet normal -0.587785 -0.809017 -9.65717e-17
    outer loop
      vertex -15.2099 -22.1403 -0.5
      vertex -15.4402 -21.973 -1.91342
      vertex -13.5 -23.3827 -20
    endloop
  endfacet
  facet normal -0.587785 -0.809017 2.92843e-16
    outer loop
      vertex -15.4402 -21.973 -1.91342
      vertex -16.328 -21.328 -3.53553
      vertex -13.5 -23.3827 -20
    endloop
  endfacet
  facet normal -0.587785 -0.809017 0
    outer loop
      vertex -15.2099 -22.1403 0.5
      vertex -18.0665 -20.0649 0.5
      vertex -18.0665 -20.0649 -0.5
    endloop
  endfacet
  facet normal -0.743145 -0.669131 -0
    outer loop
      vertex -21.8435 -15.8702 -0.5
      vertex -18.0665 -20.0649 -0.5
      vertex -21.8435 -15.8702 0.5
    endloop
  endfacet
  facet normal -0.743145 -0.669131 0
    outer loop
      vertex -21.8435 -15.8702 0.5
      vertex -18.0665 -20.0649 -0.5
      vertex -18.0665 -20.0649 0.5
    endloop
  endfacet
  facet normal -0.866025 -0.5 -0
    outer loop
      vertex -24.6657 -10.9819 -20
      vertex -21.8435 -15.8702 -20
      vertex -24.6657 -10.9819 20
    endloop
  endfacet
  facet normal -0.866025 -0.5 0
    outer loop
      vertex -22.0483 -15.5155 -1.91342
      vertex -21.8435 -15.8702 -20
      vertex -21.8435 -15.8702 -2.50558
    endloop
  endfacet
  facet normal -0.866025 -0.5 6.47697e-17
    outer loop
      vertex -24.6657 -10.9819 20
      vertex -21.8435 -15.8702 -20
      vertex -22.0483 -15.5155 -1.91342
    endloop
  endfacet
  facet normal -0.866025 -0.5 1.14232e-14
    outer loop
      vertex -24.6657 -10.9819 20
      vertex -22.0483 -15.5155 -1.91342
      vertex -22.1938 -15.2634 -0.5
    endloop
  endfacet
  facet normal -0.866025 -0.5 0
    outer loop
      vertex -22.1938 -15.2634 0.5
      vertex -21.8435 -15.8702 -0.5
      vertex -21.8435 -15.8702 0.5
    endloop
  endfacet
  facet normal -0.866025 -0.5 -7.05783e-16
    outer loop
      vertex -22.0483 -15.5155 1.91342
      vertex -24.6657 -10.9819 20
      vertex -22.1938 -15.2634 0.5
    endloop
  endfacet
  facet normal -0.866025 -0.5 -4.79963e-16
    outer loop
      vertex -21.8435 -15.8702 2.50558
      vertex -24.6657 -10.9819 20
      vertex -22.0483 -15.5155 1.91342
    endloop
  endfacet
  facet normal -0.866025 -0.5 0
    outer loop
      vertex -24.6657 -10.9819 20
      vertex -21.8435 -15.8702 2.50558
      vertex -21.8435 -15.8702 20
    endloop
  endfacet
  facet normal -0.866025 -0.5 0
    outer loop
      vertex -22.1938 -15.2634 0.5
      vertex -24.6657 -10.9819 20
      vertex -22.1938 -15.2634 -0.5
    endloop
  endfacet
  facet normal -0.866025 -0.5 0
    outer loop
      vertex -21.8435 -15.8702 -0.5
      vertex -22.1938 -15.2634 0.5
      vertex -22.1938 -15.2634 -0.5
    endloop
  endfacet
  facet normal -0.69352 0.69352 0.19509
    outer loop
      vertex -30.7685 -23.8381 0.5
      vertex -30.5697 -24.0369 1.91342
      vertex -22.1938 -15.2634 0.5
    endloop
  endfacet
  facet normal -0.69352 0.69352 0.19509
    outer loop
      vertex -22.1938 -15.2634 0.5
      vertex -30.5697 -24.0369 1.91342
      vertex -22.0483 -15.5155 1.91342
    endloop
  endfacet
  facet normal -0.587938 0.587938 0.55557
    outer loop
      vertex -30.5697 -24.0369 1.91342
      vertex -29.8033 -24.8033 3.53553
      vertex -22.0483 -15.5155 1.91342
    endloop
  endfacet
  facet normal -0.587938 0.587938 0.55557
    outer loop
      vertex -21.8435 -15.8702 2.50558
      vertex -29.8033 -24.8033 3.53553
      vertex -21.3823 -16.3823 3.53553
    endloop
  endfacet
  facet normal -0.587938 0.587938 0.55557
    outer loop
      vertex -22.0483 -15.5155 1.91342
      vertex -29.8033 -24.8033 3.53553
      vertex -21.8435 -15.8702 2.50558
    endloop
  endfacet
  facet normal -0.392847 0.392847 0.83147
    outer loop
      vertex -21.3823 -16.3823 3.53553
      vertex -29.8033 -24.8033 3.53553
      vertex -28.6563 -25.9503 4.6194
    endloop
  endfacet
  facet normal -0.392847 0.392847 0.83147
    outer loop
      vertex -20.2954 -17.5895 4.6194
      vertex -21.3823 -16.3823 3.53553
      vertex -28.6563 -25.9503 4.6194
    endloop
  endfacet
  facet normal -0.13795 0.13795 0.980785
    outer loop
      vertex -20.2954 -17.5895 4.6194
      vertex -28.6563 -25.9503 4.6194
      vertex -27.3033 -27.3033 5
    endloop
  endfacet
  facet normal -0.13795 0.13795 0.980785
    outer loop
      vertex -19.0134 -19.0134 5
      vertex -20.2954 -17.5895 4.6194
      vertex -27.3033 -27.3033 5
    endloop
  endfacet
  facet normal 0.13795 -0.13795 0.980785
    outer loop
      vertex -19.0134 -19.0134 5
      vertex -27.3033 -27.3033 5
      vertex -25.9503 -28.6563 4.6194
    endloop
  endfacet
  facet normal 0.13795 -0.13795 0.980785
    outer loop
      vertex -18.0665 -20.0649 4.71892
      vertex -19.0134 -19.0134 5
      vertex -25.9503 -28.6563 4.6194
    endloop
  endfacet
  facet normal 0.13795 -0.13795 0.980785
    outer loop
      vertex -17.6567 -20.3627 4.6194
      vertex -18.0665 -20.0649 4.71892
      vertex -25.9503 -28.6563 4.6194
    endloop
  endfacet
  facet normal 0.392847 -0.392847 0.83147
    outer loop
      vertex -17.6567 -20.3627 4.6194
      vertex -25.9503 -28.6563 4.6194
      vertex -24.8033 -29.8033 3.53553
    endloop
  endfacet
  facet normal 0.392847 -0.392847 0.83147
    outer loop
      vertex -16.328 -21.328 3.53553
      vertex -17.6567 -20.3627 4.6194
      vertex -24.8033 -29.8033 3.53553
    endloop
  endfacet
  facet normal 0.587938 -0.587938 0.55557
    outer loop
      vertex -16.328 -21.328 3.53553
      vertex -24.8033 -29.8033 3.53553
      vertex -24.0369 -30.5697 1.91342
    endloop
  endfacet
  facet normal 0.587938 -0.587938 0.55557
    outer loop
      vertex -15.4402 -21.973 1.91342
      vertex -16.328 -21.328 3.53553
      vertex -24.0369 -30.5697 1.91342
    endloop
  endfacet
  facet normal -0.743145 -0.669131 -0
    outer loop
      vertex -21.8435 -15.8702 -20
      vertex -18.0665 -20.0649 -20
      vertex -21.8435 -15.8702 -2.50558
    endloop
  endfacet
  facet normal -0.743145 -0.669131 0
    outer loop
      vertex -19.0134 -19.0134 -5
      vertex -18.0665 -20.0649 -20
      vertex -18.0665 -20.0649 -4.71892
    endloop
  endfacet
  facet normal -0.743145 -0.669131 1.45511e-17
    outer loop
      vertex -20.2954 -17.5895 -4.6194
      vertex -18.0665 -20.0649 -20
      vertex -19.0134 -19.0134 -5
    endloop
  endfacet
  facet normal -0.743145 -0.669131 8.58075e-16
    outer loop
      vertex -21.3823 -16.3823 -3.53553
      vertex -18.0665 -20.0649 -20
      vertex -20.2954 -17.5895 -4.6194
    endloop
  endfacet
  facet normal -0.743145 -0.669131 6.37872e-16
    outer loop
      vertex -21.8435 -15.8702 -2.50558
      vertex -18.0665 -20.0649 -20
      vertex -21.3823 -16.3823 -3.53553
    endloop
  endfacet
  facet normal 0.13795 -0.13795 -0.980785
    outer loop
      vertex -27.3033 -27.3033 -5
      vertex -19.0134 -19.0134 -5
      vertex -25.9503 -28.6563 -4.6194
    endloop
  endfacet
  facet normal 0.13795 -0.13795 -0.980785
    outer loop
      vertex -25.9503 -28.6563 -4.6194
      vertex -19.0134 -19.0134 -5
      vertex -18.0665 -20.0649 -4.71892
    endloop
  endfacet
  facet normal 0.13795 -0.13795 -0.980785
    outer loop
      vertex -25.9503 -28.6563 -4.6194
      vertex -18.0665 -20.0649 -4.71892
      vertex -17.6567 -20.3627 -4.6194
    endloop
  endfacet
  facet normal 0.392847 -0.392847 -0.83147
    outer loop
      vertex -25.9503 -28.6563 -4.6194
      vertex -17.6567 -20.3627 -4.6194
      vertex -24.8033 -29.8033 -3.53553
    endloop
  endfacet
  facet normal 0.392847 -0.392847 -0.83147
    outer loop
      vertex -24.8033 -29.8033 -3.53553
      vertex -17.6567 -20.3627 -4.6194
      vertex -16.328 -21.328 -3.53553
    endloop
  endfacet
  facet normal 0.587938 -0.587938 -0.55557
    outer loop
      vertex -24.0369 -30.5697 -1.91342
      vertex -24.8033 -29.8033 -3.53553
      vertex -16.328 -21.328 -3.53553
    endloop
  endfacet
  facet normal 0.587938 -0.587938 -0.55557
    outer loop
      vertex -15.4402 -21.973 -1.91342
      vertex -24.0369 -30.5697 -1.91342
      vertex -16.328 -21.328 -3.53553
    endloop
  endfacet
  facet normal 0.69352 -0.69352 -0.19509
    outer loop
      vertex -23.8381 -30.7685 -0.5
      vertex -24.0369 -30.5697 -1.91342
      vertex -15.4402 -21.973 -1.91342
    endloop
  endfacet
  facet normal 0.69352 -0.69352 -0.19509
    outer loop
      vertex -15.2099 -22.1403 -0.5
      vertex -23.8381 -30.7685 -0.5
      vertex -15.4402 -21.973 -1.91342
    endloop
  endfacet
  facet normal -2.25121e-16 -2.45768e-16 1
    outer loop
      vertex -27.3498 -34.3278 -0.5
      vertex -24.0956 -33.2431 -0.5
      vertex -23.8381 -30.7685 -0.5
    endloop
  endfacet
  facet normal -2.43822e-16 -2.43822e-16 1
    outer loop
      vertex -23.8381 -30.7685 -0.5
      vertex -24.0956 -33.2431 -0.5
      vertex -22.0465 -32.5601 -0.5
    endloop
  endfacet
  facet normal -2.45925e-16 -2.25242e-16 1
    outer loop
      vertex -27.3498 -34.3278 -0.5
      vertex -23.8381 -30.7685 -0.5
      vertex -18.0665 -20.0649 -0.5
    endloop
  endfacet
  facet normal -2.42658e-16 -2.27003e-16 1
    outer loop
      vertex -18.0665 -20.0649 -0.5
      vertex -23.8381 -30.7685 -0.5
      vertex -15.2099 -22.1403 -0.5
    endloop
  endfacet
  facet normal -2.31319e-16 -2.34748e-16 1
    outer loop
      vertex -21.8435 -15.8702 -0.5
      vertex -27.3498 -34.3278 -0.5
      vertex -18.0665 -20.0649 -0.5
    endloop
  endfacet
  facet normal -2.42415e-16 -2.31438e-16 1
    outer loop
      vertex -22.1938 -15.2634 -0.5
      vertex -27.3498 -34.3278 -0.5
      vertex -21.8435 -15.8702 -0.5
    endloop
  endfacet
  facet normal -2.31809e-16 -2.34306e-16 1
    outer loop
      vertex -30.7685 -23.8381 -0.5
      vertex -27.3498 -34.3278 -0.5
      vertex -22.1938 -15.2634 -0.5
    endloop
  endfacet
  facet normal -2.35514e-16 -2.35514e-16 1
    outer loop
      vertex -32.5601 -22.0465 -0.5
      vertex -27.3498 -34.3278 -0.5
      vertex -30.7685 -23.8381 -0.5
    endloop
  endfacet
  facet normal -2.30441e-16 -2.33362e-16 1
    outer loop
      vertex -33.8725 -25.9838 -0.5
      vertex -27.3498 -34.3278 -0.5
      vertex -32.5601 -22.0465 -0.5
    endloop
  endfacet
  facet normal -2.43822e-16 -2.43822e-16 1
    outer loop
      vertex -34.3278 -27.3498 -0.5
      vertex -27.3498 -34.3278 -0.5
      vertex -33.8725 -25.9838 -0.5
    endloop
  endfacet
  facet normal -0.743145 -0.669131 -0
    outer loop
      vertex -21.8435 -15.8702 2.50558
      vertex -21.3823 -16.3823 3.53553
      vertex -21.8435 -15.8702 20
    endloop
  endfacet
  facet normal -0.743145 -0.669131 -1.58226e-16
    outer loop
      vertex -21.8435 -15.8702 20
      vertex -21.3823 -16.3823 3.53553
      vertex -20.2954 -17.5895 4.6194
    endloop
  endfacet
  facet normal -0.743145 -0.669131 -4.32676e-16
    outer loop
      vertex -20.2954 -17.5895 4.6194
      vertex -19.0134 -19.0134 5
      vertex -21.8435 -15.8702 20
    endloop
  endfacet
  facet normal -0.743145 -0.669131 -5.25967e-16
    outer loop
      vertex -19.0134 -19.0134 5
      vertex -18.0665 -20.0649 4.71892
      vertex -21.8435 -15.8702 20
    endloop
  endfacet
  facet normal -0.743145 -0.669131 0
    outer loop
      vertex -21.8435 -15.8702 20
      vertex -18.0665 -20.0649 4.71892
      vertex -18.0665 -20.0649 20
    endloop
  endfacet
  facet normal 0 0 1
    outer loop
      vertex -26.41 5.61362 20
      vertex -27 0 20
      vertex -26.41 -5.61362 20
    endloop
  endfacet
  facet normal -0 0 1
    outer loop
      vertex -24.4537 -5.19779 20
      vertex -26.41 5.61362 20
      vertex -24.6657 -10.9819 20
    endloop
  endfacet
  facet normal 0 0 1
    outer loop
      vertex -24.6657 -10.9819 20
      vertex -26.41 5.61362 20
      vertex -26.41 -5.61362 20
    endloop
  endfacet
  facet normal 0 0 1
    outer loop
      vertex -24.4537 -5.19779 20
      vertex -25 0 20
      vertex -26.41 5.61362 20
    endloop
  endfacet
  facet normal -0 -0 1
    outer loop
      vertex -22.8386 -10.1684 20
      vertex -24.4537 -5.19779 20
      vertex -21.8435 -15.8702 20
    endloop
  endfacet
  facet normal -0 0 1
    outer loop
      vertex -16.7283 -18.5786 20
      vertex -20.2254 -14.6946 20
      vertex -18.0665 -20.0649 20
    endloop
  endfacet
  facet normal -0 0 1
    outer loop
      vertex -12.5 -21.6506 20
      vertex -16.7283 -18.5786 20
      vertex -13.5 -23.3827 20
    endloop
  endfacet
  facet normal -0 0 1
    outer loop
      vertex -7.72542 -23.7764 20
      vertex -12.5 -21.6506 20
      vertex -8.34346 -25.6785 20
    endloop
  endfacet
  facet normal -0 0 1
    outer loop
      vertex -2.61321 -24.863 20
      vertex -7.72542 -23.7764 20
      vertex -2.82227 -26.8521 20
    endloop
  endfacet
  facet normal 0 -0 1
    outer loop
      vertex 2.61321 -24.863 20
      vertex -2.61321 -24.863 20
      vertex 2.82227 -26.8521 20
    endloop
  endfacet
  facet normal 0 -0 1
    outer loop
      vertex 7.72542 -23.7764 20
      vertex 2.61321 -24.863 20
      vertex 8.34346 -25.6785 20
    endloop
  endfacet
  facet normal 0 -0 1
    outer loop
      vertex 12.5 -21.6506 20
      vertex 7.72542 -23.7764 20
      vertex 13.5 -23.3827 20
    endloop
  endfacet
  facet normal 0 -0 1
    outer loop
      vertex 16.7283 -18.5786 20
      vertex 12.5 -21.6506 20
      vertex 18.0665 -20.0649 20
    endloop
  endfacet
  facet normal 0 -0 1
    outer loop
      vertex 20.2254 -14.6946 20
      vertex 16.7283 -18.5786 20
      vertex 21.8435 -15.8702 20
    endloop
  endfacet
  facet normal 0 0 1
    outer loop
      vertex 26.8949 -1 20
      vertex 24.8949 -1 20
      vertex 26.41 -5.61362 20
    endloop
  endfacet
  facet normal 0 -0 1
    outer loop
      vertex 24.8949 -1 20
      vertex 24.4537 -5.19779 20
      vertex 26.41 -5.61362 20
    endloop
  endfacet
  facet normal 0 0 1
    outer loop
      vertex 26.41 -5.61362 20
      vertex 22.8386 -10.1684 20
      vertex 24.6657 -10.9819 20
    endloop
  endfacet
  facet normal 0 0 1
    outer loop
      vertex 24.6657 -10.9819 20
      vertex 20.2254 -14.6946 20
      vertex 21.8435 -15.8702 20
    endloop
  endfacet
  facet normal 0 0 1
    outer loop
      vertex 21.8435 -15.8702 20
      vertex 16.7283 -18.5786 20
      vertex 18.0665 -20.0649 20
    endloop
  endfacet
  facet normal 0 0 1
    outer loop
      vertex -24.4537 5.19779 20
      vertex -22.8386 10.1684 20
      vertex -26.41 5.61362 20
    endloop
  endfacet
  facet normal 0 0 1
    outer loop
      vertex 18.0665 -20.0649 20
      vertex 12.5 -21.6506 20
      vertex 13.5 -23.3827 20
    endloop
  endfacet
  facet normal 0 0 1
    outer loop
      vertex 13.5 -23.3827 20
      vertex 7.72542 -23.7764 20
      vertex 8.34346 -25.6785 20
    endloop
  endfacet
  facet normal -0 0 1
    outer loop
      vertex 8.34346 -25.6785 20
      vertex 2.61321 -24.863 20
      vertex 2.82227 -26.8521 20
    endloop
  endfacet
  facet normal -0 0 1
    outer loop
      vertex 2.82227 -26.8521 20
      vertex -2.61321 -24.863 20
      vertex -2.82227 -26.8521 20
    endloop
  endfacet
  facet normal 0 0 1
    outer loop
      vertex -2.82227 -26.8521 20
      vertex -7.72542 -23.7764 20
      vertex -8.34346 -25.6785 20
    endloop
  endfacet
  facet normal 0 0 1
    outer loop
      vertex -8.34346 -25.6785 20
      vertex -12.5 -21.6506 20
      vertex -13.5 -23.3827 20
    endloop
  endfacet
  facet normal 0 0 1
    outer loop
      vertex -13.5 -23.3827 20
      vertex -16.7283 -18.5786 20
      vertex -18.0665 -20.0649 20
    endloop
  endfacet
  facet normal 0 0 1
    outer loop
      vertex -18.0665 -20.0649 20
      vertex -20.2254 -14.6946 20
      vertex -21.8435 -15.8702 20
    endloop
  endfacet
  facet normal -0 0 1
    outer loop
      vertex -20.2254 -14.6946 20
      vertex -22.8386 -10.1684 20
      vertex -21.8435 -15.8702 20
    endloop
  endfacet
  facet normal 0 0 1
    outer loop
      vertex -21.8435 -15.8702 20
      vertex -24.4537 -5.19779 20
      vertex -24.6657 -10.9819 20
    endloop
  endfacet
  facet normal 0 -0 1
    outer loop
      vertex 22.8386 -10.1684 20
      vertex 20.2254 -14.6946 20
      vertex 24.6657 -10.9819 20
    endloop
  endfacet
  facet normal 0 0 1
    outer loop
      vertex -20.2254 14.6946 20
      vertex -26.41 5.61362 20
      vertex -22.8386 10.1684 20
    endloop
  endfacet
  facet normal 0 0 1
    outer loop
      vertex -18.0665 20.0649 20
      vertex -26.41 5.61362 20
      vertex -20.2254 14.6946 20
    endloop
  endfacet
  facet normal 0 0 1
    outer loop
      vertex -13.5 23.3827 20
      vertex -20.2254 14.6946 20
      vertex -16.7283 18.5786 20
    endloop
  endfacet
  facet normal 0 0 1
    outer loop
      vertex -8.34346 25.6785 20
      vertex -16.7283 18.5786 20
      vertex -12.5 21.6506 20
    endloop
  endfacet
  facet normal 0 0 1
    outer loop
      vertex -1 26.8521 20
      vertex -12.5 21.6506 20
      vertex -7.72542 23.7764 20
    endloop
  endfacet
  facet normal 0 0 1
    outer loop
      vertex -1 26.8521 20
      vertex -7.72542 23.7764 20
      vertex -2.61321 24.863 20
    endloop
  endfacet
  facet normal 0 0 1
    outer loop
      vertex -1 26.8521 20
      vertex -2.61321 24.863 20
      vertex -1 24.863 20
    endloop
  endfacet
  facet normal 0 -0 1
    outer loop
      vertex -2.82227 26.8521 20
      vertex -12.5 21.6506 20
      vertex -1 26.8521 20
    endloop
  endfacet
  facet normal 0 -0 1
    outer loop
      vertex -8.34346 25.6785 20
      vertex -12.5 21.6506 20
      vertex -2.82227 26.8521 20
    endloop
  endfacet
  facet normal 0 -0 1
    outer loop
      vertex -13.5 23.3827 20
      vertex -16.7283 18.5786 20
      vertex -8.34346 25.6785 20
    endloop
  endfacet
  facet normal 0 -0 1
    outer loop
      vertex -18.0665 20.0649 20
      vertex -20.2254 14.6946 20
      vertex -13.5 23.3827 20
    endloop
  endfacet
  facet normal 0 -0 1
    outer loop
      vertex -21.8435 15.8702 20
      vertex -26.41 5.61362 20
      vertex -18.0665 20.0649 20
    endloop
  endfacet
  facet normal 0 -0 1
    outer loop
      vertex -24.6657 10.9819 20
      vertex -26.41 5.61362 20
      vertex -21.8435 15.8702 20
    endloop
  endfacet
  facet normal 0 -0 1
    outer loop
      vertex 24.4537 -5.19779 20
      vertex 22.8386 -10.1684 20
      vertex 26.41 -5.61362 20
    endloop
  endfacet
  facet normal 0 0 1
    outer loop
      vertex -25 0 20
      vertex -24.4537 5.19779 20
      vertex -26.41 5.61362 20
    endloop
  endfacet
  facet normal -0.406737 -0.913545 0
    outer loop
      vertex -13.5 -23.3827 20
      vertex -13.5 -23.3827 -20
      vertex -8.34346 -25.6785 -20
    endloop
  endfacet
  facet normal -0.406737 -0.913545 0
    outer loop
      vertex -8.34346 -25.6785 20
      vertex -13.5 -23.3827 20
      vertex -8.34346 -25.6785 -20
    endloop
  endfacet
  facet normal -0 0 -1
    outer loop
      vertex -27 0 -20
      vertex -26.41 5.61362 -20
      vertex -26.41 -5.61362 -20
    endloop
  endfacet
  facet normal 0 -0 -1
    outer loop
      vertex -26.41 -5.61362 -20
      vertex -26.41 5.61362 -20
      vertex -24.6657 10.9819 -20
    endloop
  endfacet
  facet normal 0 -0 -1
    outer loop
      vertex -24.4537 5.19779 -20
      vertex -24.6657 10.9819 -20
      vertex -21.8435 15.8702 -20
    endloop
  endfacet
  facet normal 0 -0 -1
    outer loop
      vertex -20.2254 14.6946 -20
      vertex -21.8435 15.8702 -20
      vertex -18.0665 20.0649 -20
    endloop
  endfacet
  facet normal 0 -0 -1
    outer loop
      vertex -16.7283 18.5786 -20
      vertex -18.0665 20.0649 -20
      vertex -13.5 23.3827 -20
    endloop
  endfacet
  facet normal 0 -0 -1
    outer loop
      vertex -12.5 21.6506 -20
      vertex -13.5 23.3827 -20
      vertex -8.34346 25.6785 -20
    endloop
  endfacet
  facet normal 0 -0 -1
    outer loop
      vertex -7.72542 23.7764 -20
      vertex -8.34346 25.6785 -20
      vertex -2.82227 26.8521 -20
    endloop
  endfacet
  facet normal 0 -0 -1
    outer loop
      vertex -2.61321 24.863 -20
      vertex -2.82227 26.8521 -20
      vertex -1 26.8521 -20
    endloop
  endfacet
  facet normal 0 0 -1
    outer loop
      vertex -7.72542 23.7764 -20
      vertex -2.82227 26.8521 -20
      vertex -2.61321 24.863 -20
    endloop
  endfacet
  facet normal 0 0 -1
    outer loop
      vertex -12.5 21.6506 -20
      vertex -8.34346 25.6785 -20
      vertex -7.72542 23.7764 -20
    endloop
  endfacet
  facet normal 0 0 -1
    outer loop
      vertex -16.7283 18.5786 -20
      vertex -13.5 23.3827 -20
      vertex -12.5 21.6506 -20
    endloop
  endfacet
  facet normal 0 0 -1
    outer loop
      vertex -20.2254 14.6946 -20
      vertex -18.0665 20.0649 -20
      vertex -16.7283 18.5786 -20
    endloop
  endfacet
  facet normal 0 0 -1
    outer loop
      vertex -22.8386 10.1684 -20
      vertex -21.8435 15.8702 -20
      vertex -20.2254 14.6946 -20
    endloop
  endfacet
  facet normal 0 0 -1
    outer loop
      vertex -24.4537 5.19779 -20
      vertex -21.8435 15.8702 -20
      vertex -22.8386 10.1684 -20
    endloop
  endfacet
  facet normal 0 0 -1
    outer loop
      vertex -26.41 -5.61362 -20
      vertex -24.6657 10.9819 -20
      vertex -24.4537 5.19779 -20
    endloop
  endfacet
  facet normal 0 -0 -1
    outer loop
      vertex -25 0 -20
      vertex -26.41 -5.61362 -20
      vertex -24.4537 5.19779 -20
    endloop
  endfacet
  facet normal 0 0 -1
    outer loop
      vertex -24.4537 -5.19779 -20
      vertex -26.41 -5.61362 -20
      vertex -25 0 -20
    endloop
  endfacet
  facet normal -0 0 -1
    outer loop
      vertex -26.41 -5.61362 -20
      vertex -24.4537 -5.19779 -20
      vertex -22.8386 -10.1684 -20
    endloop
  endfacet
  facet normal 0 0 -1
    outer loop
      vertex -22.8386 -10.1684 -20
      vertex -20.2254 -14.6946 -20
      vertex -26.41 -5.61362 -20
    endloop
  endfacet
  facet normal 0 0 -1
    outer loop
      vertex 24.4537 -5.19779 -20
      vertex 24.8949 -1 -20
      vertex 26.8949 -1 -20
    endloop
  endfacet
  facet normal -0 0 -1
    outer loop
      vertex 24.4537 -5.19779 -20
      vertex 26.8949 -1 -20
      vertex 22.8386 -10.1684 -20
    endloop
  endfacet
  facet normal 0 0 -1
    outer loop
      vertex 22.8386 -10.1684 -20
      vertex 26.8949 -1 -20
      vertex 26.41 -5.61362 -20
    endloop
  endfacet
  facet normal -0 0 -1
    outer loop
      vertex 22.8386 -10.1684 -20
      vertex 26.41 -5.61362 -20
      vertex 20.2254 -14.6946 -20
    endloop
  endfacet
  facet normal 0 0 -1
    outer loop
      vertex 20.2254 -14.6946 -20
      vertex 26.41 -5.61362 -20
      vertex 24.6657 -10.9819 -20
    endloop
  endfacet
  facet normal -0 0 -1
    outer loop
      vertex 20.2254 -14.6946 -20
      vertex 24.6657 -10.9819 -20
      vertex 16.7283 -18.5786 -20
    endloop
  endfacet
  facet normal 0 0 -1
    outer loop
      vertex 16.7283 -18.5786 -20
      vertex 24.6657 -10.9819 -20
      vertex 21.8435 -15.8702 -20
    endloop
  endfacet
  facet normal -0 0 -1
    outer loop
      vertex 16.7283 -18.5786 -20
      vertex 21.8435 -15.8702 -20
      vertex 12.5 -21.6506 -20
    endloop
  endfacet
  facet normal 0 0 -1
    outer loop
      vertex 12.5 -21.6506 -20
      vertex 21.8435 -15.8702 -20
      vertex 18.0665 -20.0649 -20
    endloop
  endfacet
  facet normal -0 0 -1
    outer loop
      vertex 12.5 -21.6506 -20
      vertex 18.0665 -20.0649 -20
      vertex 7.72542 -23.7764 -20
    endloop
  endfacet
  facet normal 0 0 -1
    outer loop
      vertex 7.72542 -23.7764 -20
      vertex 18.0665 -20.0649 -20
      vertex 13.5 -23.3827 -20
    endloop
  endfacet
  facet normal -0 0 -1
    outer loop
      vertex 7.72542 -23.7764 -20
      vertex 13.5 -23.3827 -20
      vertex 2.61321 -24.863 -20
    endloop
  endfacet
  facet normal -0 0 -1
    outer loop
      vertex 2.61321 -24.863 -20
      vertex 13.5 -23.3827 -20
      vertex 8.34346 -25.6785 -20
    endloop
  endfacet
  facet normal 0 0 -1
    outer loop
      vertex 2.61321 -24.863 -20
      vertex 8.34346 -25.6785 -20
      vertex -2.61321 -24.863 -20
    endloop
  endfacet
  facet normal 0 0 -1
    outer loop
      vertex -2.61321 -24.863 -20
      vertex 8.34346 -25.6785 -20
      vertex 2.82227 -26.8521 -20
    endloop
  endfacet
  facet normal 0 0 -1
    outer loop
      vertex -2.61321 -24.863 -20
      vertex 2.82227 -26.8521 -20
      vertex -7.72542 -23.7764 -20
    endloop
  endfacet
  facet normal 0 0 -1
    outer loop
      vertex -7.72542 -23.7764 -20
      vertex 2.82227 -26.8521 -20
      vertex -2.82227 -26.8521 -20
    endloop
  endfacet
  facet normal 0 0 -1
    outer loop
      vertex -7.72542 -23.7764 -20
      vertex -2.82227 -26.8521 -20
      vertex -12.5 -21.6506 -20
    endloop
  endfacet
  facet normal 0 0 -1
    outer loop
      vertex -12.5 -21.6506 -20
      vertex -2.82227 -26.8521 -20
      vertex -8.34346 -25.6785 -20
    endloop
  endfacet
  facet normal 0 0 -1
    outer loop
      vertex -12.5 -21.6506 -20
      vertex -8.34346 -25.6785 -20
      vertex -16.7283 -18.5786 -20
    endloop
  endfacet
  facet normal 0 0 -1
    outer loop
      vertex -16.7283 -18.5786 -20
      vertex -8.34346 -25.6785 -20
      vertex -13.5 -23.3827 -20
    endloop
  endfacet
  facet normal 0 0 -1
    outer loop
      vertex -16.7283 -18.5786 -20
      vertex -13.5 -23.3827 -20
      vertex -20.2254 -14.6946 -20
    endloop
  endfacet
  facet normal 0 0 -1
    outer loop
      vertex -20.2254 -14.6946 -20
      vertex -13.5 -23.3827 -20
      vertex -18.0665 -20.0649 -20
    endloop
  endfacet
  facet normal 0 0 -1
    outer loop
      vertex -20.2254 -14.6946 -20
      vertex -18.0665 -20.0649 -20
      vertex -26.41 -5.61362 -20
    endloop
  endfacet
  facet normal 0 0 -1
    outer loop
      vertex -26.41 -5.61362 -20
      vertex -18.0665 -20.0649 -20
      vertex -21.8435 -15.8702 -20
    endloop
  endfacet
  facet normal 0 0 -1
    outer loop
      vertex -26.41 -5.61362 -20
      vertex -21.8435 -15.8702 -20
      vertex -24.6657 -10.9819 -20
    endloop
  endfacet
  facet normal -0 0 -1
    outer loop
      vertex -2.61321 24.863 -20
      vertex -1 26.8521 -20
      vertex -1 24.863 -20
    endloop
  endfacet
  facet normal -0.951056 -0.309017 -0
    outer loop
      vertex -26.41 -5.61362 -20
      vertex -24.6657 -10.9819 -20
      vertex -26.41 -5.61362 20
    endloop
  endfacet
  facet normal -0.951056 -0.309017 0
    outer loop
      vertex -26.41 -5.61362 20
      vertex -24.6657 -10.9819 -20
      vertex -24.6657 -10.9819 20
    endloop
  endfacet
  facet normal -0.69352 0.69352 -0.19509
    outer loop
      vertex -30.7685 -23.8381 -0.5
      vertex -22.1938 -15.2634 -0.5
      vertex -30.5697 -24.0369 -1.91342
    endloop
  endfacet
  facet normal -0.69352 0.69352 -0.19509
    outer loop
      vertex -30.5697 -24.0369 -1.91342
      vertex -22.1938 -15.2634 -0.5
      vertex -22.0483 -15.5155 -1.91342
    endloop
  endfacet
  facet normal -0.587938 0.587938 -0.55557
    outer loop
      vertex -30.5697 -24.0369 -1.91342
      vertex -22.0483 -15.5155 -1.91342
      vertex -29.8033 -24.8033 -3.53553
    endloop
  endfacet
  facet normal -0.587938 0.587938 -0.55557
    outer loop
      vertex -29.8033 -24.8033 -3.53553
      vertex -22.0483 -15.5155 -1.91342
      vertex -21.8435 -15.8702 -2.50558
    endloop
  endfacet
  facet normal -0.587938 0.587938 -0.55557
    outer loop
      vertex -29.8033 -24.8033 -3.53553
      vertex -21.8435 -15.8702 -2.50558
      vertex -21.3823 -16.3823 -3.53553
    endloop
  endfacet
  facet normal -0.392847 0.392847 -0.83147
    outer loop
      vertex -29.8033 -24.8033 -3.53553
      vertex -21.3823 -16.3823 -3.53553
      vertex -28.6563 -25.9503 -4.6194
    endloop
  endfacet
  facet normal -0.392847 0.392847 -0.83147
    outer loop
      vertex -28.6563 -25.9503 -4.6194
      vertex -21.3823 -16.3823 -3.53553
      vertex -20.2954 -17.5895 -4.6194
    endloop
  endfacet
  facet normal -0.13795 0.13795 -0.980785
    outer loop
      vertex -28.6563 -25.9503 -4.6194
      vertex -20.2954 -17.5895 -4.6194
      vertex -27.3033 -27.3033 -5
    endloop
  endfacet
  facet normal -0.13795 0.13795 -0.980785
    outer loop
      vertex -27.3033 -27.3033 -5
      vertex -20.2954 -17.5895 -4.6194
      vertex -19.0134 -19.0134 -5
    endloop
  endfacet
  facet normal 0.707107 0.707107 0
    outer loop
      vertex -28.6759 -25.9307 -7.24444
      vertex -30.5697 -24.0369 -1.91342
      vertex -29.8033 -24.8033 -3.53553
    endloop
  endfacet
  facet normal 0.707107 0.707107 0
    outer loop
      vertex -27.3033 -27.3033 -5
      vertex -24.6517 -29.955 -6.49519
      vertex -28.6563 -25.9503 -4.6194
    endloop
  endfacet
  facet normal 0.707107 0.707107 0
    outer loop
      vertex -28.6563 -25.9503 -4.6194
      vertex -25.9307 -28.6759 -7.24444
      vertex -29.8033 -24.8033 -3.53553
    endloop
  endfacet
  facet normal 0.707107 0.707107 0
    outer loop
      vertex -30.7685 -23.8381 -0.5
      vertex -30.5697 -24.0369 -1.91342
      vertex -29.955 -24.6517 -6.49519
    endloop
  endfacet
  facet normal 0.707107 0.707107 -5.80404e-14
    outer loop
      vertex -25.9503 -28.6563 -4.6194
      vertex -22.7105 -31.8961 -3.75
      vertex -27.3033 -27.3033 -5
    endloop
  endfacet
  facet normal 0.707107 0.707107 2.66315e-15
    outer loop
      vertex -24.8033 -29.8033 -3.53553
      vertex -22.1807 -32.4259 -1.94114
      vertex -25.9503 -28.6563 -4.6194
    endloop
  endfacet
  facet normal 0.707107 0.707107 8.69784e-16
    outer loop
      vertex -24.0369 -30.5697 -1.91342
      vertex -22.0465 -32.5601 -0.5
      vertex -24.8033 -29.8033 -3.53553
    endloop
  endfacet
  facet normal 0.707107 0.707107 1.99014e-16
    outer loop
      vertex -23.8381 -30.7685 -0.5
      vertex -22.0465 -32.5601 -0.5
      vertex -24.0369 -30.5697 -1.91342
    endloop
  endfacet
  facet normal 0.707107 0.707107 8.87579e-17
    outer loop
      vertex -22.0465 -32.5601 -0.5
      vertex -22.1807 -32.4259 -1.94114
      vertex -24.8033 -29.8033 -3.53553
    endloop
  endfacet
  facet normal 0.707107 0.707107 -3.30548e-15
    outer loop
      vertex -22.1807 -32.4259 -1.94114
      vertex -22.7105 -31.8961 -3.75
      vertex -25.9503 -28.6563 -4.6194
    endloop
  endfacet
  facet normal 0.707107 0.707107 1.49786e-15
    outer loop
      vertex -22.7105 -31.8961 -3.75
      vertex -23.5533 -31.0533 -5.3033
      vertex -27.3033 -27.3033 -5
    endloop
  endfacet
  facet normal 0.707107 0.707107 0
    outer loop
      vertex -23.5533 -31.0533 -5.3033
      vertex -24.6517 -29.955 -6.49519
      vertex -27.3033 -27.3033 -5
    endloop
  endfacet
  facet normal 0.707107 0.707107 0
    outer loop
      vertex -24.6517 -29.955 -6.49519
      vertex -25.9307 -28.6759 -7.24444
      vertex -28.6563 -25.9503 -4.6194
    endloop
  endfacet
  facet normal 0.707107 0.707107 0
    outer loop
      vertex -25.9307 -28.6759 -7.24444
      vertex -27.3033 -27.3033 -7.5
      vertex -29.8033 -24.8033 -3.53553
    endloop
  endfacet
  facet normal 0.707107 0.707107 0
    outer loop
      vertex -27.3033 -27.3033 -7.5
      vertex -28.6759 -25.9307 -7.24444
      vertex -29.8033 -24.8033 -3.53553
    endloop
  endfacet
  facet normal 0.707107 0.707107 0
    outer loop
      vertex -28.6759 -25.9307 -7.24444
      vertex -29.955 -24.6517 -6.49519
      vertex -30.5697 -24.0369 -1.91342
    endloop
  endfacet
  facet normal 0.707107 0.707107 0
    outer loop
      vertex -29.955 -24.6517 -6.49519
      vertex -31.0533 -23.5533 -5.3033
      vertex -30.7685 -23.8381 -0.5
    endloop
  endfacet
  facet normal 0.707107 0.707107 0
    outer loop
      vertex -31.0533 -23.5533 -5.3033
      vertex -31.8961 -22.7105 -3.75
      vertex -30.7685 -23.8381 -0.5
    endloop
  endfacet
  facet normal 0.707107 0.707107 -7.44003e-16
    outer loop
      vertex -31.8961 -22.7105 -3.75
      vertex -32.4259 -22.1807 -1.94114
      vertex -30.7685 -23.8381 -0.5
    endloop
  endfacet
  facet normal 0.707107 0.707107 1.25285e-16
    outer loop
      vertex -32.4259 -22.1807 -1.94114
      vertex -32.5601 -22.0465 -0.5
      vertex -30.7685 -23.8381 -0.5
    endloop
  endfacet
  facet normal -0.707107 -0.707107 -3.16898e-15
    outer loop
      vertex -34.3278 -27.3498 -0.5
      vertex -34.2539 -27.4238 -1.2941
      vertex -27.3498 -34.3278 -0.5
    endloop
  endfacet
  facet normal -0.707107 -0.707107 2.17404e-15
    outer loop
      vertex -27.3498 -34.3278 -0.5
      vertex -34.2539 -27.4238 -1.2941
      vertex -33.9007 -27.777 -2.5
    endloop
  endfacet
  facet normal -0.707107 -0.707107 0
    outer loop
      vertex -27.3498 -34.3278 -0.5
      vertex -33.9007 -27.777 -2.5
      vertex -33.3388 -28.3388 -3.53553
    endloop
  endfacet
  facet normal -0.707107 -0.707107 -2.41993e-15
    outer loop
      vertex -27.3498 -34.3278 -0.5
      vertex -33.3388 -28.3388 -3.53553
      vertex -32.6066 -29.0711 -4.33013
    endloop
  endfacet
  facet normal -0.707107 -0.707107 1.84102e-15
    outer loop
      vertex -27.3498 -34.3278 -0.5
      vertex -32.6066 -29.0711 -4.33013
      vertex -31.7539 -29.9238 -4.82963
    endloop
  endfacet
  facet normal -0.707107 -0.707107 0
    outer loop
      vertex -27.3498 -34.3278 -0.5
      vertex -31.7539 -29.9238 -4.82963
      vertex -30.8388 -30.8388 -5
    endloop
  endfacet
  facet normal -0.707107 -0.707107 0
    outer loop
      vertex -27.3498 -34.3278 -0.5
      vertex -30.8388 -30.8388 -5
      vertex -29.9238 -31.7539 -4.82963
    endloop
  endfacet
  facet normal -0.707107 -0.707107 -2.59927e-15
    outer loop
      vertex -27.3498 -34.3278 -0.5
      vertex -29.9238 -31.7539 -4.82963
      vertex -29.0711 -32.6066 -4.33013
    endloop
  endfacet
  facet normal -0.707107 -0.707107 1.80337e-15
    outer loop
      vertex -27.3498 -34.3278 -0.5
      vertex -29.0711 -32.6066 -4.33013
      vertex -28.3388 -33.3388 -3.53553
    endloop
  endfacet
  facet normal -0.707107 -0.707107 0
    outer loop
      vertex -27.3498 -34.3278 -0.5
      vertex -28.3388 -33.3388 -3.53553
      vertex -27.777 -33.9007 -2.5
    endloop
  endfacet
  facet normal -0.707107 -0.707107 5.61613e-15
    outer loop
      vertex -27.3498 -34.3278 -0.5
      vertex -27.777 -33.9007 -2.5
      vertex -27.4238 -34.2539 -1.2941
    endloop
  endfacet
  facet normal 0.314058 -0.942174 -0.116946
    outer loop
      vertex -27.3498 -34.3278 -0.5
      vertex -27.4238 -34.2539 -1.2941
      vertex -24.0956 -33.2431 -0.5
    endloop
  endfacet
  facet normal -0.942174 0.314058 -0.116946
    outer loop
      vertex -34.3278 -27.3498 -0.5
      vertex -33.8725 -25.9838 -0.5
      vertex -34.2539 -27.4238 -1.2941
    endloop
  endfacet
  facet normal -0.942174 0.314058 -0.116946
    outer loop
      vertex -34.2539 -27.4238 -1.2941
      vertex -33.8725 -25.9838 -0.5
      vertex -32.4259 -22.1807 -1.94114
    endloop
  endfacet
  facet normal -0.942174 0.314058 -0.116945
    outer loop
      vertex -32.4259 -22.1807 -1.94114
      vertex -33.8725 -25.9838 -0.5
      vertex -32.5601 -22.0465 -0.5
    endloop
  endfacet
  facet normal 0.314058 -0.942174 -0.116945
    outer loop
      vertex -24.0956 -33.2431 -0.5
      vertex -27.4238 -34.2539 -1.2941
      vertex -22.1807 -32.4259 -1.94114
    endloop
  endfacet
  facet normal 0.314058 -0.942174 -0.116945
    outer loop
      vertex -22.0465 -32.5601 -0.5
      vertex -24.0956 -33.2431 -0.5
      vertex -22.1807 -32.4259 -1.94114
    endloop
  endfacet
  facet normal -0.994522 0.104528 0
    outer loop
      vertex -27 0 -20
      vertex -27 0 20
      vertex -26.41 5.61362 -20
    endloop
  endfacet
  facet normal -0.994522 0.104528 0
    outer loop
      vertex -26.41 5.61362 -20
      vertex -27 0 20
      vertex -26.41 5.61362 20
    endloop
  endfacet
  facet normal -0.951056 0.309017 0
    outer loop
      vertex -26.41 5.61362 -20
      vertex -26.41 5.61362 20
      vertex -24.6657 10.9819 -20
    endloop
  endfacet
  facet normal -0.951056 0.309017 0
    outer loop
      vertex -24.6657 10.9819 -20
      vertex -26.41 5.61362 20
      vertex -24.6657 10.9819 20
    endloop
  endfacet
  facet normal -0.866025 0.5 0
    outer loop
      vertex -24.6657 10.9819 -20
      vertex -24.6657 10.9819 20
      vertex -21.8435 15.8702 -20
    endloop
  endfacet
  facet normal -0.866025 0.5 0
    outer loop
      vertex -21.8435 15.8702 -20
      vertex -24.6657 10.9819 20
      vertex -21.8435 15.8702 20
    endloop
  endfacet
  facet normal -0.743145 0.669131 0
    outer loop
      vertex -21.8435 15.8702 -20
      vertex -21.8435 15.8702 20
      vertex -18.0665 20.0649 -20
    endloop
  endfacet
  facet normal -0.743145 0.669131 0
    outer loop
      vertex -18.0665 20.0649 -20
      vertex -21.8435 15.8702 20
      vertex -18.0665 20.0649 20
    endloop
  endfacet
  facet normal -0.587785 0.809017 0
    outer loop
      vertex -18.0665 20.0649 -20
      vertex -18.0665 20.0649 20
      vertex -13.5 23.3827 -20
    endloop
  endfacet
  facet normal -0.587785 0.809017 0
    outer loop
      vertex -13.5 23.3827 -20
      vertex -18.0665 20.0649 20
      vertex -13.5 23.3827 20
    endloop
  endfacet
  facet normal -0.406737 0.913545 0
    outer loop
      vertex -13.5 23.3827 -20
      vertex -13.5 23.3827 20
      vertex -8.34346 25.6785 -20
    endloop
  endfacet
  facet normal -0.406737 0.913545 0
    outer loop
      vertex -8.34346 25.6785 -20
      vertex -13.5 23.3827 20
      vertex -8.34346 25.6785 20
    endloop
  endfacet
  facet normal -0.207912 0.978148 0
    outer loop
      vertex -8.34346 25.6785 -20
      vertex -8.34346 25.6785 20
      vertex -2.82227 26.8521 -20
    endloop
  endfacet
  facet normal -0.207912 0.978148 0
    outer loop
      vertex -2.82227 26.8521 -20
      vertex -8.34346 25.6785 20
      vertex -2.82227 26.8521 20
    endloop
  endfacet
  facet normal 0 1 0
    outer loop
      vertex -2.82227 26.8521 -20
      vertex -2.82227 26.8521 20
      vertex -1 26.8521 -20
    endloop
  endfacet
  facet normal 0 1 0
    outer loop
      vertex -1 26.8521 -20
      vertex -2.82227 26.8521 20
      vertex -1 26.8521 20
    endloop
  endfacet
  facet normal 1 0 0
    outer loop
      vertex -1 26.8521 -20
      vertex -1 26.8521 20
      vertex -1 24.863 20
    endloop
  endfacet
  facet normal 1 0 0
    outer loop
      vertex -1 24.863 -20
      vertex -1 26.8521 -20
      vertex -1 24.863 20
    endloop
  endfacet
  facet normal 0 -1 0
    outer loop
      vertex -1 24.863 -20
      vertex -1 24.863 20
      vertex -2.61321 24.863 20
    endloop
  endfacet
  facet normal -0 -1 -0
    outer loop
      vertex -2.61321 24.863 -20
      vertex -1 24.863 -20
      vertex -2.61321 24.863 20
    endloop
  endfacet
  facet normal 0.207912 -0.978148 0
    outer loop
      vertex -2.61321 24.863 -20
      vertex -2.61321 24.863 20
      vertex -7.72542 23.7764 20
    endloop
  endfacet
  facet normal 0.207912 -0.978148 0
    outer loop
      vertex -7.72542 23.7764 -20
      vertex -2.61321 24.863 -20
      vertex -7.72542 23.7764 20
    endloop
  endfacet
  facet normal 0.406737 -0.913545 0
    outer loop
      vertex -7.72542 23.7764 -20
      vertex -7.72542 23.7764 20
      vertex -12.5 21.6506 20
    endloop
  endfacet
  facet normal 0.406737 -0.913545 0
    outer loop
      vertex -12.5 21.6506 -20
      vertex -7.72542 23.7764 -20
      vertex -12.5 21.6506 20
    endloop
  endfacet
  facet normal 0.587785 -0.809017 0
    outer loop
      vertex -12.5 21.6506 -20
      vertex -12.5 21.6506 20
      vertex -16.7283 18.5786 20
    endloop
  endfacet
  facet normal 0.587785 -0.809017 0
    outer loop
      vertex -16.7283 18.5786 -20
      vertex -12.5 21.6506 -20
      vertex -16.7283 18.5786 20
    endloop
  endfacet
  facet normal 0.743145 -0.669131 0
    outer loop
      vertex -16.7283 18.5786 -20
      vertex -16.7283 18.5786 20
      vertex -20.2254 14.6946 20
    endloop
  endfacet
  facet normal 0.743145 -0.669131 0
    outer loop
      vertex -20.2254 14.6946 -20
      vertex -16.7283 18.5786 -20
      vertex -20.2254 14.6946 20
    endloop
  endfacet
  facet normal 0.866025 -0.5 0
    outer loop
      vertex -20.2254 14.6946 -20
      vertex -20.2254 14.6946 20
      vertex -22.8386 10.1684 20
    endloop
  endfacet
  facet normal 0.866025 -0.5 0
    outer loop
      vertex -22.8386 10.1684 -20
      vertex -20.2254 14.6946 -20
      vertex -22.8386 10.1684 20
    endloop
  endfacet
  facet normal 0.951056 -0.309017 0
    outer loop
      vertex -22.8386 10.1684 -20
      vertex -22.8386 10.1684 20
      vertex -24.4537 5.19779 20
    endloop
  endfacet
  facet normal 0.951056 -0.309017 0
    outer loop
      vertex -24.4537 5.19779 -20
      vertex -22.8386 10.1684 -20
      vertex -24.4537 5.19779 20
    endloop
  endfacet
  facet normal 0.994522 -0.104528 0
    outer loop
      vertex -24.4537 5.19779 -20
      vertex -24.4537 5.19779 20
      vertex -25 0 20
    endloop
  endfacet
  facet normal 0.994522 -0.104528 0
    outer loop
      vertex -25 0 -20
      vertex -24.4537 5.19779 -20
      vertex -25 0 20
    endloop
  endfacet
  facet normal 0.994522 0.104528 0
    outer loop
      vertex -25 0 20
      vertex -24.4537 -5.19779 20
      vertex -24.4537 -5.19779 -20
    endloop
  endfacet
  facet normal 0.994522 0.104528 0
    outer loop
      vertex -25 0 -20
      vertex -25 0 20
      vertex -24.4537 -5.19779 -20
    endloop
  endfacet
  facet normal 0.951056 0.309017 0
    outer loop
      vertex -24.4537 -5.19779 20
      vertex -22.8386 -10.1684 20
      vertex -22.8386 -10.1684 -20
    endloop
  endfacet
  facet normal 0.951056 0.309017 0
    outer loop
      vertex -24.4537 -5.19779 -20
      vertex -24.4537 -5.19779 20
      vertex -22.8386 -10.1684 -20
    endloop
  endfacet
  facet normal 0.866025 0.5 0
    outer loop
      vertex -22.8386 -10.1684 20
      vertex -20.2254 -14.6946 20
      vertex -20.2254 -14.6946 -20
    endloop
  endfacet
  facet normal 0.866025 0.5 0
    outer loop
      vertex -22.8386 -10.1684 -20
      vertex -22.8386 -10.1684 20
      vertex -20.2254 -14.6946 -20
    endloop
  endfacet
  facet normal 0.743145 0.669131 0
    outer loop
      vertex -20.2254 -14.6946 20
      vertex -16.7283 -18.5786 20
      vertex -16.7283 -18.5786 -20
    endloop
  endfacet
  facet normal 0.743145 0.669131 0
    outer loop
      vertex -20.2254 -14.6946 -20
      vertex -20.2254 -14.6946 20
      vertex -16.7283 -18.5786 -20
    endloop
  endfacet
  facet normal 0.587785 0.809017 -0
    outer loop
      vertex -12.5 -21.6506 20
      vertex -12.5 -21.6506 -20
      vertex -16.7283 -18.5786 20
    endloop
  endfacet
  facet normal 0.587785 0.809017 -0
    outer loop
      vertex -16.7283 -18.5786 20
      vertex -12.5 -21.6506 -20
      vertex -16.7283 -18.5786 -20
    endloop
  endfacet
  facet normal 0.406737 0.913545 -0
    outer loop
      vertex -7.72542 -23.7764 20
      vertex -7.72542 -23.7764 -20
      vertex -12.5 -21.6506 20
    endloop
  endfacet
  facet normal 0.406737 0.913545 -0
    outer loop
      vertex -12.5 -21.6506 20
      vertex -7.72542 -23.7764 -20
      vertex -12.5 -21.6506 -20
    endloop
  endfacet
  facet normal 0.207912 0.978148 -0
    outer loop
      vertex -2.61321 -24.863 20
      vertex -2.61321 -24.863 -20
      vertex -7.72542 -23.7764 20
    endloop
  endfacet
  facet normal 0.207912 0.978148 -0
    outer loop
      vertex -7.72542 -23.7764 20
      vertex -2.61321 -24.863 -20
      vertex -7.72542 -23.7764 -20
    endloop
  endfacet
  facet normal 0 1 0
    outer loop
      vertex 2.61321 -24.863 20
      vertex 2.61321 -24.863 -20
      vertex -2.61321 -24.863 20
    endloop
  endfacet
  facet normal 0 1 -0
    outer loop
      vertex -2.61321 -24.863 20
      vertex 2.61321 -24.863 -20
      vertex -2.61321 -24.863 -20
    endloop
  endfacet
  facet normal -0.207912 0.978148 0
    outer loop
      vertex 7.72542 -23.7764 20
      vertex 7.72542 -23.7764 -20
      vertex 2.61321 -24.863 20
    endloop
  endfacet
  facet normal -0.207912 0.978148 0
    outer loop
      vertex 2.61321 -24.863 20
      vertex 7.72542 -23.7764 -20
      vertex 2.61321 -24.863 -20
    endloop
  endfacet
  facet normal -0.406737 0.913545 0
    outer loop
      vertex 12.5 -21.6506 20
      vertex 12.5 -21.6506 -20
      vertex 7.72542 -23.7764 20
    endloop
  endfacet
  facet normal -0.406737 0.913545 0
    outer loop
      vertex 7.72542 -23.7764 20
      vertex 12.5 -21.6506 -20
      vertex 7.72542 -23.7764 -20
    endloop
  endfacet
  facet normal -0.587785 0.809017 0
    outer loop
      vertex 16.7283 -18.5786 20
      vertex 16.7283 -18.5786 -20
      vertex 12.5 -21.6506 20
    endloop
  endfacet
  facet normal -0.587785 0.809017 0
    outer loop
      vertex 12.5 -21.6506 20
      vertex 16.7283 -18.5786 -20
      vertex 12.5 -21.6506 -20
    endloop
  endfacet
  facet normal -0.743145 0.669131 0
    outer loop
      vertex 20.2254 -14.6946 20
      vertex 20.2254 -14.6946 -20
      vertex 16.7283 -18.5786 20
    endloop
  endfacet
  facet normal -0.743145 0.669131 0
    outer loop
      vertex 16.7283 -18.5786 20
      vertex 20.2254 -14.6946 -20
      vertex 16.7283 -18.5786 -20
    endloop
  endfacet
  facet normal -0.866025 0.5 0
    outer loop
      vertex 22.8386 -10.1684 20
      vertex 22.8386 -10.1684 -20
      vertex 20.2254 -14.6946 20
    endloop
  endfacet
  facet normal -0.866025 0.5 0
    outer loop
      vertex 20.2254 -14.6946 20
      vertex 22.8386 -10.1684 -20
      vertex 20.2254 -14.6946 -20
    endloop
  endfacet
  facet normal -0.951056 0.309017 0
    outer loop
      vertex 24.4537 -5.19779 20
      vertex 24.4537 -5.19779 -20
      vertex 22.8386 -10.1684 20
    endloop
  endfacet
  facet normal -0.951056 0.309017 0
    outer loop
      vertex 22.8386 -10.1684 20
      vertex 24.4537 -5.19779 -20
      vertex 22.8386 -10.1684 -20
    endloop
  endfacet
  facet normal -0.994522 0.104528 0
    outer loop
      vertex 24.8949 -1 20
      vertex 24.8949 -1 -20
      vertex 24.4537 -5.19779 20
    endloop
  endfacet
  facet normal -0.994522 0.104528 0
    outer loop
      vertex 24.4537 -5.19779 20
      vertex 24.8949 -1 -20
      vertex 24.4537 -5.19779 -20
    endloop
  endfacet
  facet normal 0 1 0
    outer loop
      vertex 26.8949 -1 20
      vertex 26.8949 -1 -20
      vertex 24.8949 -1 20
    endloop
  endfacet
  facet normal 0 1 -0
    outer loop
      vertex 24.8949 -1 20
      vertex 26.8949 -1 -20
      vertex 24.8949 -1 -20
    endloop
  endfacet
  facet normal 0.994522 -0.104528 0
    outer loop
      vertex 26.41 -5.61362 20
      vertex 26.41 -5.61362 -20
      vertex 26.8949 -1 -20
    endloop
  endfacet
  facet normal 0.994522 -0.104528 0
    outer loop
      vertex 26.8949 -1 20
      vertex 26.41 -5.61362 20
      vertex 26.8949 -1 -20
    endloop
  endfacet
  facet normal 0.951056 -0.309017 0
    outer loop
      vertex 24.6657 -10.9819 20
      vertex 24.6657 -10.9819 -20
      vertex 26.41 -5.61362 -20
    endloop
  endfacet
  facet normal 0.951056 -0.309017 0
    outer loop
      vertex 26.41 -5.61362 20
      vertex 24.6657 -10.9819 20
      vertex 26.41 -5.61362 -20
    endloop
  endfacet
  facet normal 0.866025 -0.5 0
    outer loop
      vertex 21.8435 -15.8702 20
      vertex 21.8435 -15.8702 -20
      vertex 24.6657 -10.9819 -20
    endloop
  endfacet
  facet normal 0.866025 -0.5 0
    outer loop
      vertex 24.6657 -10.9819 20
      vertex 21.8435 -15.8702 20
      vertex 24.6657 -10.9819 -20
    endloop
  endfacet
  facet normal 0.743145 -0.669131 0
    outer loop
      vertex 18.0665 -20.0649 20
      vertex 18.0665 -20.0649 -20
      vertex 21.8435 -15.8702 -20
    endloop
  endfacet
  facet normal 0.743145 -0.669131 0
    outer loop
      vertex 21.8435 -15.8702 20
      vertex 18.0665 -20.0649 20
      vertex 21.8435 -15.8702 -20
    endloop
  endfacet
  facet normal 0.587785 -0.809017 0
    outer loop
      vertex 13.5 -23.3827 20
      vertex 13.5 -23.3827 -20
      vertex 18.0665 -20.0649 -20
    endloop
  endfacet
  facet normal 0.587785 -0.809017 0
    outer loop
      vertex 18.0665 -20.0649 20
      vertex 13.5 -23.3827 20
      vertex 18.0665 -20.0649 -20
    endloop
  endfacet
  facet normal 0.406737 -0.913545 0
    outer loop
      vertex 8.34346 -25.6785 20
      vertex 8.34346 -25.6785 -20
      vertex 13.5 -23.3827 -20
    endloop
  endfacet
  facet normal 0.406737 -0.913545 0
    outer loop
      vertex 13.5 -23.3827 20
      vertex 8.34346 -25.6785 20
      vertex 13.5 -23.3827 -20
    endloop
  endfacet
  facet normal 0.207912 -0.978148 0
    outer loop
      vertex 2.82227 -26.8521 20
      vertex 2.82227 -26.8521 -20
      vertex 8.34346 -25.6785 -20
    endloop
  endfacet
  facet normal 0.207912 -0.978148 0
    outer loop
      vertex 8.34346 -25.6785 20
      vertex 2.82227 -26.8521 20
      vertex 8.34346 -25.6785 -20
    endloop
  endfacet
  facet normal 0 -1 0
    outer loop
      vertex -2.82227 -26.8521 20
      vertex -2.82227 -26.8521 -20
      vertex 2.82227 -26.8521 -20
    endloop
  endfacet
  facet normal 0 -1 0
    outer loop
      vertex 2.82227 -26.8521 20
      vertex -2.82227 -26.8521 20
      vertex 2.82227 -26.8521 -20
    endloop
  endfacet
  facet normal -0.207912 -0.978148 0
    outer loop
      vertex -8.34346 -25.6785 20
      vertex -8.34346 -25.6785 -20
      vertex -2.82227 -26.8521 -20
    endloop
  endfacet
  facet normal -0.207912 -0.978148 0
    outer loop
      vertex -2.82227 -26.8521 20
      vertex -8.34346 -25.6785 20
      vertex -2.82227 -26.8521 -20
    endloop
  endfacet
  facet normal -0.994522 -0.104528 -0
    outer loop
      vertex -27 0 -20
      vertex -26.41 -5.61362 -20
      vertex -27 0 20
    endloop
  endfacet
  facet normal -0.994522 -0.104528 0
    outer loop
      vertex -27 0 20
      vertex -26.41 -5.61362 -20
      vertex -26.41 -5.61362 20
    endloop
  endfacet
  facet normal -0.899369 0.271253 -0.342867
    outer loop
      vertex -31.8961 -22.7105 -3.75
      vertex -34.2539 -27.4238 -1.2941
      vertex -32.4259 -22.1807 -1.94114
    endloop
  endfacet
  facet normal -0.899369 0.271253 -0.342867
    outer loop
      vertex -33.9007 -27.777 -2.5
      vertex -34.2539 -27.4238 -1.2941
      vertex -31.8961 -22.7105 -3.75
    endloop
  endfacet
  facet normal -0.816676 0.18856 -0.545423
    outer loop
      vertex -31.0533 -23.5533 -5.3033
      vertex -33.9007 -27.777 -2.5
      vertex -31.8961 -22.7105 -3.75
    endloop
  endfacet
  facet normal -0.816676 0.18856 -0.545423
    outer loop
      vertex -33.3388 -28.3388 -3.53553
      vertex -33.9007 -27.777 -2.5
      vertex -31.0533 -23.5533 -5.3033
    endloop
  endfacet
  facet normal -0.69973 0.0716143 -0.710809
    outer loop
      vertex -29.955 -24.6517 -6.49519
      vertex -33.3388 -28.3388 -3.53553
      vertex -31.0533 -23.5533 -5.3033
    endloop
  endfacet
  facet normal -0.69973 0.0716141 -0.710809
    outer loop
      vertex -32.6066 -29.0711 -4.33013
      vertex -33.3388 -28.3388 -3.53553
      vertex -29.955 -24.6517 -6.49519
    endloop
  endfacet
  facet normal -0.556502 -0.0716143 -0.827754
    outer loop
      vertex -28.6759 -25.9307 -7.24444
      vertex -32.6066 -29.0711 -4.33013
      vertex -29.955 -24.6517 -6.49519
    endloop
  endfacet
  facet normal -0.556502 -0.0716144 -0.827754
    outer loop
      vertex -31.7539 -29.9238 -4.82963
      vertex -32.6066 -29.0711 -4.33013
      vertex -28.6759 -25.9307 -7.24444
    endloop
  endfacet
  facet normal -0.396751 -0.231365 -0.88829
    outer loop
      vertex -27.3033 -27.3033 -7.5
      vertex -31.7539 -29.9238 -4.82963
      vertex -28.6759 -25.9307 -7.24444
    endloop
  endfacet
  facet normal -0.396751 -0.231365 -0.88829
    outer loop
      vertex -30.8388 -30.8388 -5
      vertex -31.7539 -29.9238 -4.82963
      vertex -27.3033 -27.3033 -7.5
    endloop
  endfacet
  facet normal -0.231365 -0.396751 -0.88829
    outer loop
      vertex -25.9307 -28.6759 -7.24444
      vertex -30.8388 -30.8388 -5
      vertex -27.3033 -27.3033 -7.5
    endloop
  endfacet
  facet normal -0.231365 -0.396751 -0.88829
    outer loop
      vertex -29.9238 -31.7539 -4.82963
      vertex -30.8388 -30.8388 -5
      vertex -25.9307 -28.6759 -7.24444
    endloop
  endfacet
  facet normal -0.0716144 -0.556502 -0.827754
    outer loop
      vertex -24.6517 -29.955 -6.49519
      vertex -29.9238 -31.7539 -4.82963
      vertex -25.9307 -28.6759 -7.24444
    endloop
  endfacet
  facet normal -0.0716144 -0.556502 -0.827754
    outer loop
      vertex -29.0711 -32.6066 -4.33013
      vertex -29.9238 -31.7539 -4.82963
      vertex -24.6517 -29.955 -6.49519
    endloop
  endfacet
  facet normal 0.0716143 -0.69973 -0.710809
    outer loop
      vertex -23.5533 -31.0533 -5.3033
      vertex -29.0711 -32.6066 -4.33013
      vertex -24.6517 -29.955 -6.49519
    endloop
  endfacet
  facet normal 0.0716142 -0.69973 -0.710809
    outer loop
      vertex -28.3388 -33.3388 -3.53553
      vertex -29.0711 -32.6066 -4.33013
      vertex -23.5533 -31.0533 -5.3033
    endloop
  endfacet
  facet normal 0.18856 -0.816676 -0.545423
    outer loop
      vertex -22.7105 -31.8961 -3.75
      vertex -28.3388 -33.3388 -3.53553
      vertex -23.5533 -31.0533 -5.3033
    endloop
  endfacet
  facet normal 0.18856 -0.816676 -0.545423
    outer loop
      vertex -27.777 -33.9007 -2.5
      vertex -28.3388 -33.3388 -3.53553
      vertex -22.7105 -31.8961 -3.75
    endloop
  endfacet
  facet normal 0.271253 -0.899369 -0.342867
    outer loop
      vertex -22.1807 -32.4259 -1.94114
      vertex -27.777 -33.9007 -2.5
      vertex -22.7105 -31.8961 -3.75
    endloop
  endfacet
  facet normal 0.271253 -0.899369 -0.342867
    outer loop
      vertex -27.4238 -34.2539 -1.2941
      vertex -27.777 -33.9007 -2.5
      vertex -22.1807 -32.4259 -1.94114
    endloop
  endfacet
endsolid OpenSCAD_Model
