  0
SECTION
  2
HEADER
  9
$ACADVER
  1
AC1009
  9
$EXTMIN
 10
0.0
 20
0.0
 30
0.0
  9
$EXTMAX
 10
1000.0
 20
1000.0
 30
0.0
  9
$FILLMODE
 70
 0
  9
$SPLFRAME
 70
 1
  0
ENDSEC
  0
SECTION
  2
TABLES
  0
TABLE
  2
LAYER
 70
1
  0
LAYER
  2
0
 70
     0
 62
     7
  6
CONTINUOUS
  0
ENDTAB
  0
ENDSEC
  0
SECTION
  2
ENTITIES
  0
POLYLINE
  8
0
 62
     0
 66
     1
 10
0
 20
0
 30
0.0
 70
     1
 40
0
 41
0
  0
VERTEX
  8
0
 10
2.22032
 20
2.42046
 30
0.0
 40
0
 41
0
  0
VERTEX
  8
0
 10
2.20199
 20
2.40218
 30
0.0
 40
0
 41
0
  0
VERTEX
  8
0
 10
2.15343
 20
2.34825
 30
0.0
 40
0
 41
0
  0
VERTEX
  8
0
 10
2.08436
 20
2.26019
 30
0.0
 40
0
 41
0
  0
VERTEX
  8
0
 10
2.00429
 20
2.13949
 30
0.0
 40
0
 41
0
  0
VERTEX
  8
0
 10
1.92296
 20
1.98762
 30
0.0
 40
0
 41
0
  0
VERTEX
  8
0
 10
1.84999
 20
1.80615
 30
0.0
 40
0
 41
0
  0
VERTEX
  8
0
 10
1.79497
 20
1.59646
 30
0.0
 40
0
 41
0
  0
VERTEX
  8
0
 10
1.76758
 20
1.36008
 30
0.0
 40
0
 41
0
  0
VERTEX
  8
0
 10
1.47765
 20
1.36355
 30
0.0
 40
0
 41
0
  0
VERTEX
  8
0
 10
1.47379
 20
2.29611
 30
0.0
 40
0
 41
0
  0
VERTEX
  8
0
 10
1.46436
 20
2.29318
 30
0.0
 40
0
 41
0
  0
VERTEX
  8
0
 10
1.43733
 20
2.2844
 30
0.0
 40
0
 41
0
  0
VERTEX
  8
0
 10
1.39458
 20
2.26992
 30
0.0
 40
0
 41
0
  0
VERTEX
  8
0
 10
1.33784
 20
2.25
 30
0.0
 40
0
 41
0
  0
VERTEX
  8
0
 10
1.26893
 20
2.22472
 30
0.0
 40
0
 41
0
  0
VERTEX
  8
0
 10
1.18973
 20
2.19428
 30
0.0
 40
0
 41
0
  0
VERTEX
  8
0
 10
1.10205
 20
2.15881
 30
0.0
 40
0
 41
0
  0
VERTEX
  8
0
 10
1.00776
 20
2.11854
 30
0.0
 40
0
 41
0
  0
VERTEX
  8
0
 10
0.908529
 20
2.07357
 30
0.0
 40
0
 41
0
  0
VERTEX
  8
0
 10
0.806315
 20
2.02408
 30
0.0
 40
0
 41
0
  0
VERTEX
  8
0
 10
0.702963
 20
1.97026
 30
0.0
 40
0
 41
0
  0
VERTEX
  8
0
 10
0.600151
 20
1.91228
 30
0.0
 40
0
 41
0
  0
VERTEX
  8
0
 10
0.499838
 20
1.85026
 30
0.0
 40
0
 41
0
  0
VERTEX
  8
0
 10
0.403754
 20
1.7844
 30
0.0
 40
0
 41
0
  0
VERTEX
  8
0
 10
0.313803
 20
1.71485
 30
0.0
 40
0
 41
0
  0
VERTEX
  8
0
 10
0.231771
 20
1.64176
 30
0.0
 40
0
 41
0
  0
VERTEX
  8
0
 10
0.159451
 20
1.56532
 30
0.0
 40
0
 41
0
  0
VERTEX
  8
0
 10
0.0986871
 20
1.48568
 30
0.0
 40
0
 41
0
  0
VERTEX
  8
0
 10
0.0513238
 20
1.40306
 30
0.0
 40
0
 41
0
  0
VERTEX
  8
0
 10
0.0191515
 20
1.31749
 30
0.0
 40
0
 41
0
  0
VERTEX
  8
0
 10
0.00401475
 20
1.22927
 30
0.0
 40
0
 41
0
  0
VERTEX
  8
0
 10
0.00775825
 20
1.13851
 30
0.0
 40
0
 41
0
  0
VERTEX
  8
0
 10
0.0321724
 20
1.04536
 30
0.0
 40
0
 41
0
  0
VERTEX
  8
0
 10
0.0790474
 20
0.950032
 30
0.0
 40
0
 41
0
  0
VERTEX
  8
0
 10
0.150282
 20
0.852647
 30
0.0
 40
0
 41
0
  0
VERTEX
  8
0
 10
0.247613
 20
0.753364
 30
0.0
 40
0
 41
0
  0
VERTEX
  8
0
 10
0.372939
 20
0.652399
 30
0.0
 40
0
 41
0
  0
VERTEX
  8
0
 10
0.528049
 20
0.549858
 30
0.0
 40
0
 41
0
  0
VERTEX
  8
0
 10
0.714789
 20
0.44591
 30
0.0
 40
0
 41
0
  0
VERTEX
  8
0
 10
0.93495
 20
0.340767
 30
0.0
 40
0
 41
0
  0
VERTEX
  8
0
 10
1.19032
 20
0.234537
 30
0.0
 40
0
 41
0
  0
VERTEX
  8
0
 10
1.48286
 20
0.127441
 30
0.0
 40
0
 41
0
  0
VERTEX
  8
0
 10
1.47868
 20
1.10102
 30
0.0
 40
0
 41
0
  0
VERTEX
  8
0
 10
1.77626
 20
1.10862
 30
0.0
 40
0
 41
0
  0
VERTEX
  8
0
 10
1.82221
 20
0.857639
 30
0.0
 40
0
 41
0
  0
VERTEX
  8
0
 10
1.91146
 20
0.589031
 30
0.0
 40
0
 41
0
  0
VERTEX
  8
0
 10
2.05083
 20
0.303874
 30
0.0
 40
0
 41
0
  0
VERTEX
  8
0
 10
2.24707
 20
0.00314669
 30
0.0
 40
0
 41
0
  0
VERTEX
  8
0
 10
2.19706
 20
0.300131
 30
0.0
 40
0
 41
0
  0
VERTEX
  8
0
 10
2.16168
 20
0.586046
 30
0.0
 40
0
 41
0
  0
VERTEX
  8
0
 10
2.13917
 20
0.858942
 30
0.0
 40
0
 41
0
  0
VERTEX
  8
0
 10
2.12765
 20
1.11664
 30
0.0
 40
0
 41
0
  0
VERTEX
  8
0
 10
2.537
 20
1.12495
 30
0.0
 40
0
 41
0
  0
VERTEX
  8
0
 10
2.579
 20
0.888672
 30
0.0
 40
0
 41
0
  0
VERTEX
  8
0
 10
2.66206
 20
0.635417
 30
0.0
 40
0
 41
0
  0
VERTEX
  8
0
 10
2.79275
 20
0.366428
 30
0.0
 40
0
 41
0
  0
VERTEX
  8
0
 10
2.97765
 20
0.0825738
 30
0.0
 40
0
 41
0
  0
VERTEX
  8
0
 10
2.93061
 20
0.362196
 30
0.0
 40
0
 41
0
  0
VERTEX
  8
0
 10
2.89757
 20
0.631347
 30
0.0
 40
0
 41
0
  0
VERTEX
  8
0
 10
2.87668
 20
0.887967
 30
0.0
 40
0
 41
0
  0
VERTEX
  8
0
 10
2.86615
 20
1.13015
 30
0.0
 40
0
 41
0
  0
VERTEX
  8
0
 10
3.22487
 20
1.13439
 30
0.0
 40
0
 41
0
  0
VERTEX
  8
0
 10
3.25786
 20
0.957519
 30
0.0
 40
0
 41
0
  0
VERTEX
  8
0
 10
3.32135
 20
0.768283
 30
0.0
 40
0
 41
0
  0
VERTEX
  8
0
 10
3.41992
 20
0.567492
 30
0.0
 40
0
 41
0
  0
VERTEX
  8
0
 10
3.55821
 20
0.355849
 30
0.0
 40
0
 41
0
  0
VERTEX
  8
0
 10
3.49815
 20
0.764214
 30
0.0
 40
0
 41
0
  0
VERTEX
  8
0
 10
3.47379
 20
1.13639
 30
0.0
 40
0
 41
0
  0
VERTEX
  8
0
 10
3.93946
 20
1.13683
 30
0.0
 40
0
 41
0
  0
VERTEX
  8
0
 10
3.96946
 20
0.979221
 30
0.0
 40
0
 41
0
  0
VERTEX
  8
0
 10
4.02642
 20
0.810818
 30
0.0
 40
0
 41
0
  0
VERTEX
  8
0
 10
4.11431
 20
0.632269
 30
0.0
 40
0
 41
0
  0
VERTEX
  8
0
 10
4.23736
 20
0.444119
 30
0.0
 40
0
 41
0
  0
VERTEX
  8
0
 10
4.18403
 20
0.805664
 30
0.0
 40
0
 41
0
  0
VERTEX
  8
0
 10
4.162
 20
1.13574
 30
0.0
 40
0
 41
0
  0
VERTEX
  8
0
 10
4.42518
 20
1.13184
 30
0.0
 40
0
 41
0
  0
VERTEX
  8
0
 10
4.66444
 20
1.12532
 30
0.0
 40
0
 41
0
  0
VERTEX
  8
0
 10
4.69146
 20
0.999729
 30
0.0
 40
0
 41
0
  0
VERTEX
  8
0
 10
4.7391
 20
0.866049
 30
0.0
 40
0
 41
0
  0
VERTEX
  8
0
 10
4.81022
 20
0.724772
 30
0.0
 40
0
 41
0
  0
VERTEX
  8
0
 10
4.90782
 20
0.576335
 30
0.0
 40
0
 41
0
  0
VERTEX
  8
0
 10
4.86544
 20
0.858128
 30
0.0
 40
0
 41
0
  0
VERTEX
  8
0
 10
4.8464
 20
1.1173
 30
0.0
 40
0
 41
0
  0
VERTEX
  8
0
 10
5.02001
 20
1.10585
 30
0.0
 40
0
 41
0
  0
VERTEX
  8
0
 10
5.15761
 20
1.09131
 30
0.0
 40
0
 41
0
  0
VERTEX
  8
0
 10
5.25412
 20
1.07335
 30
0.0
 40
0
 41
0
  0
VERTEX
  8
0
 10
5.30474
 20
1.05176
 30
0.0
 40
0
 41
0
  0
VERTEX
  8
0
 10
5.31278
 20
1.04264
 30
0.0
 40
0
 41
0
  0
VERTEX
  8
0
 10
5.3361
 20
1.01655
 30
0.0
 40
0
 41
0
  0
VERTEX
  8
0
 10
5.37364
 20
0.975586
 30
0.0
 40
0
 41
0
  0
VERTEX
  8
0
 10
5.42426
 20
0.921658
 30
0.0
 40
0
 41
0
  0
VERTEX
  8
0
 10
5.48676
 20
0.856933
 30
0.0
 40
0
 41
0
  0
VERTEX
  8
0
 10
5.56011
 20
0.783257
 30
0.0
 40
0
 41
0
  0
VERTEX
  8
0
 10
5.64307
 20
0.7028
 30
0.0
 40
0
 41
0
  0
VERTEX
  8
0
 10
5.73454
 20
0.617458
 30
0.0
 40
0
 41
0
  0
VERTEX
  8
0
 10
5.83344
 20
0.529351
 30
0.0
 40
0
 41
0
  0
VERTEX
  8
0
 10
5.93858
 20
0.440429
 30
0.0
 40
0
 41
0
  0
VERTEX
  8
0
 10
6.04889
 20
0.352701
 30
0.0
 40
0
 41
0
  0
VERTEX
  8
0
 10
6.16319
 20
0.268229
 30
0.0
 40
0
 41
0
  0
VERTEX
  8
0
 10
6.28033
 20
0.189074
 30
0.0
 40
0
 41
0
  0
VERTEX
  8
0
 10
6.39919
 20
0.117133
 30
0.0
 40
0
 41
0
  0
VERTEX
  8
0
 10
6.51872
 20
0.0544706
 30
0.0
 40
0
 41
0
  0
VERTEX
  8
0
 10
6.63769
 20
0.00314669
 30
0.0
 40
0
 41
0
  0
VERTEX
  8
0
 10
6.63547
 20
0.0379232
 30
0.0
 40
0
 41
0
  0
VERTEX
  8
0
 10
6.62657
 20
0.133029
 30
0.0
 40
0
 41
0
  0
VERTEX
  8
0
 10
6.60769
 20
0.274522
 30
0.0
 40
0
 41
0
  0
VERTEX
  8
0
 10
6.57553
 20
0.448676
 30
0.0
 40
0
 41
0
  0
VERTEX
  8
0
 10
6.52664
 20
0.641547
 30
0.0
 40
0
 41
0
  0
VERTEX
  8
0
 10
6.45779
 20
0.839301
 30
0.0
 40
0
 41
0
  0
VERTEX
  8
0
 10
6.36561
 20
1.02816
 30
0.0
 40
0
 41
0
  0
VERTEX
  8
0
 10
6.24675
 20
1.19412
 30
0.0
 40
0
 41
0
  0
VERTEX
  8
0
 10
6.26281
 20
1.22277
 30
0.0
 40
0
 41
0
  0
VERTEX
  8
0
 10
6.30528
 20
1.30317
 30
0.0
 40
0
 41
0
  0
VERTEX
  8
0
 10
6.36572
 20
1.42708
 30
0.0
 40
0
 41
0
  0
VERTEX
  8
0
 10
6.43554
 20
1.58632
 30
0.0
 40
0
 41
0
  0
VERTEX
  8
0
 10
6.50618
 20
1.77268
 30
0.0
 40
0
 41
0
  0
VERTEX
  8
0
 10
6.56912
 20
1.97781
 30
0.0
 40
0
 41
0
  0
VERTEX
  8
0
 10
6.61578
 20
2.19362
 30
0.0
 40
0
 41
0
  0
VERTEX
  8
0
 10
6.63769
 20
2.41178
 30
0.0
 40
0
 41
0
  0
VERTEX
  8
0
 10
6.62657
 20
2.405
 30
0.0
 40
0
 41
0
  0
VERTEX
  8
0
 10
6.59489
 20
2.38519
 30
0.0
 40
0
 41
0
  0
VERTEX
  8
0
 10
6.54486
 20
2.3534
 30
0.0
 40
0
 41
0
  0
VERTEX
  8
0
 10
6.47879
 20
2.3106
 30
0.0
 40
0
 41
0
  0
VERTEX
  8
0
 10
6.39899
 20
2.25771
 30
0.0
 40
0
 41
0
  0
VERTEX
  8
0
 10
6.30772
 20
2.19575
 30
0.0
 40
0
 41
0
  0
VERTEX
  8
0
 10
6.20725
 20
2.12571
 30
0.0
 40
0
 41
0
  0
VERTEX
  8
0
 10
6.09993
 20
2.04856
 30
0.0
 40
0
 41
0
  0
VERTEX
  8
0
 10
5.98807
 20
1.96522
 30
0.0
 40
0
 41
0
  0
VERTEX
  8
0
 10
5.87386
 20
1.87674
 30
0.0
 40
0
 41
0
  0
VERTEX
  8
0
 10
5.75965
 20
1.78407
 30
0.0
 40
0
 41
0
  0
VERTEX
  8
0
 10
5.64779
 20
1.68821
 30
0.0
 40
0
 41
0
  0
VERTEX
  8
0
 10
5.54047
 20
1.59006
 30
0.0
 40
0
 41
0
  0
VERTEX
  8
0
 10
5.44
 20
1.49067
 30
0.0
 40
0
 41
0
  0
VERTEX
  8
0
 10
5.34874
 20
1.391
 30
0.0
 40
0
 41
0
  0
VERTEX
  8
0
 10
5.26893
 20
1.29199
 30
0.0
 40
0
 41
0
  0
VERTEX
  8
0
 10
5.2296
 20
1.29291
 30
0.0
 40
0
 41
0
  0
VERTEX
  8
0
 10
5.12864
 20
1.29514
 30
0.0
 40
0
 41
0
  0
VERTEX
  8
0
 10
4.9916
 20
1.29812
 30
0.0
 40
0
 41
0
  0
VERTEX
  8
0
 10
4.84397
 20
1.30132
 30
0.0
 40
0
 41
0
  0
VERTEX
  8
0
 10
4.85319
 20
1.52615
 30
0.0
 40
0
 41
0
  0
VERTEX
  8
0
 10
4.87011
 20
1.69829
 30
0.0
 40
0
 41
0
  0
VERTEX
  8
0
 10
4.88633
 20
1.80843
 30
0.0
 40
0
 41
0
  0
VERTEX
  8
0
 10
4.89361
 20
1.84717
 30
0.0
 40
0
 41
0
  0
VERTEX
  8
0
 10
4.88422
 20
1.83783
 30
0.0
 40
0
 41
0
  0
VERTEX
  8
0
 10
4.85938
 20
1.81033
 30
0.0
 40
0
 41
0
  0
VERTEX
  8
0
 10
4.82394
 20
1.76535
 30
0.0
 40
0
 41
0
  0
VERTEX
  8
0
 10
4.78267
 20
1.70367
 30
0.0
 40
0
 41
0
  0
VERTEX
  8
0
 10
4.74044
 20
1.62608
 30
0.0
 40
0
 41
0
  0
VERTEX
  8
0
 10
4.7021
 20
1.53331
 30
0.0
 40
0
 41
0
  0
VERTEX
  8
0
 10
4.67247
 20
1.42611
 30
0.0
 40
0
 41
0
  0
VERTEX
  8
0
 10
4.65647
 20
1.30523
 30
0.0
 40
0
 41
0
  0
VERTEX
  8
0
 10
4.42074
 20
1.31033
 30
0.0
 40
0
 41
0
  0
VERTEX
  8
0
 10
4.16026
 20
1.31592
 30
0.0
 40
0
 41
0
  0
VERTEX
  8
0
 10
4.16396
 20
1.45985
 30
0.0
 40
0
 41
0
  0
VERTEX
  8
0
 10
4.17133
 20
1.58914
 30
0.0
 40
0
 41
0
  0
VERTEX
  8
0
 10
4.18099
 20
1.70247
 30
0.0
 40
0
 41
0
  0
VERTEX
  8
0
 10
4.19179
 20
1.79844
 30
0.0
 40
0
 41
0
  0
VERTEX
  8
0
 10
4.20236
 20
1.87554
 30
0.0
 40
0
 41
0
  0
VERTEX
  8
0
 10
4.21149
 20
1.93235
 30
0.0
 40
0
 41
0
  0
VERTEX
  8
0
 10
4.21789
 20
1.9675
 30
0.0
 40
0
 41
0
  0
VERTEX
  8
0
 10
4.22032
 20
1.97949
 30
0.0
 40
0
 41
0
  0
VERTEX
  8
0
 10
4.20893
 20
1.96815
 30
0.0
 40
0
 41
0
  0
VERTEX
  8
0
 10
4.17876
 20
1.93468
 30
0.0
 40
0
 41
0
  0
VERTEX
  8
0
 10
4.13569
 20
1.87993
 30
0.0
 40
0
 41
0
  0
VERTEX
  8
0
 10
4.08561
 20
1.80496
 30
0.0
 40
0
 41
0
  0
VERTEX
  8
0
 10
4.03444
 20
1.71061
 30
0.0
 40
0
 41
0
  0
VERTEX
  8
0
 10
3.98812
 20
1.59776
 30
0.0
 40
0
 41
0
  0
VERTEX
  8
0
 10
3.95247
 20
1.46739
 30
0.0
 40
0
 41
0
  0
VERTEX
  8
0
 10
3.93354
 20
1.32042
 30
0.0
 40
0
 41
0
  0
VERTEX
  8
0
 10
3.47206
 20
1.32981
 30
0.0
 40
0
 41
0
  0
VERTEX
  8
0
 10
3.47624
 20
1.48986
 30
0.0
 40
0
 41
0
  0
VERTEX
  8
0
 10
3.48449
 20
1.63363
 30
0.0
 40
0
 41
0
  0
VERTEX
  8
0
 10
3.49528
 20
1.75965
 30
0.0
 40
0
 41
0
  0
VERTEX
  8
0
 10
3.50732
 20
1.86632
 30
0.0
 40
0
 41
0
  0
VERTEX
  8
0
 10
3.5191
 20
1.95204
 30
0.0
 40
0
 41
0
  0
VERTEX
  8
0
 10
3.52924
 20
2.01525
 30
0.0
 40
0
 41
0
  0
VERTEX
  8
0
 10
3.5364
 20
2.05431
 30
0.0
 40
0
 41
0
  0
VERTEX
  8
0
 10
3.53911
 20
2.06765
 30
0.0
 40
0
 41
0
  0
VERTEX
  8
0
 10
3.52642
 20
2.05501
 30
0.0
 40
0
 41
0
  0
VERTEX
  8
0
 10
3.49283
 20
2.01779
 30
0.0
 40
0
 41
0
  0
VERTEX
  8
0
 10
3.44488
 20
1.95697
 30
0.0
 40
0
 41
0
  0
VERTEX
  8
0
 10
3.38911
 20
1.87358
 30
0.0
 40
0
 41
0
  0
VERTEX
  8
0
 10
3.33208
 20
1.76861
 30
0.0
 40
0
 41
0
  0
VERTEX
  8
0
 10
3.28039
 20
1.64318
 30
0.0
 40
0
 41
0
  0
VERTEX
  8
0
 10
3.24061
 20
1.49821
 30
0.0
 40
0
 41
0
  0
VERTEX
  8
0
 10
3.21929
 20
1.33474
 30
0.0
 40
0
 41
0
  0
VERTEX
  8
0
 10
2.8641
 20
1.34169
 30
0.0
 40
0
 41
0
  0
VERTEX
  8
0
 10
2.86897
 20
1.558
 30
0.0
 40
0
 41
0
  0
VERTEX
  8
0
 10
2.87956
 20
1.75261
 30
0.0
 40
0
 41
0
  0
VERTEX
  8
0
 10
2.89382
 20
1.92324
 30
0.0
 40
0
 41
0
  0
VERTEX
  8
0
 10
2.90983
 20
2.06782
 30
0.0
 40
0
 41
0
  0
VERTEX
  8
0
 10
2.92563
 20
2.18403
 30
0.0
 40
0
 41
0
  0
VERTEX
  8
0
 10
2.93935
 20
2.26981
 30
0.0
 40
0
 41
0
  0
VERTEX
  8
0
 10
2.94894
 20
2.32286
 30
0.0
 40
0
 41
0
  0
VERTEX
  8
0
 10
2.95264
 20
2.34099
 30
0.0
 40
0
 41
0
  0
VERTEX
  8
0
 10
2.93544
 20
2.32383
 30
0.0
 40
0
 41
0
  0
VERTEX
  8
0
 10
2.89003
 20
2.27328
 30
0.0
 40
0
 41
0
  0
VERTEX
  8
0
 10
2.82536
 20
2.19069
 30
0.0
 40
0
 41
0
  0
VERTEX
  8
0
 10
2.75054
 20
2.07758
 30
0.0
 40
0
 41
0
  0
VERTEX
  8
0
 10
2.67447
 20
1.93528
 30
0.0
 40
0
 41
0
  0
VERTEX
  8
0
 10
2.60633
 20
1.76525
 30
0.0
 40
0
 41
0
  0
VERTEX
  8
0
 10
2.55507
 20
1.56885
 30
0.0
 40
0
 41
0
  0
VERTEX
  8
0
 10
2.52974
 20
1.34755
 30
0.0
 40
0
 41
0
  0
VERTEX
  8
0
 10
2.12522
 20
1.35449
 30
0.0
 40
0
 41
0
  0
VERTEX
  8
0
 10
2.13058
 20
1.58539
 30
0.0
 40
0
 41
0
  0
VERTEX
  8
0
 10
2.14193
 20
1.79303
 30
0.0
 40
0
 41
0
  0
VERTEX
  8
0
 10
2.15728
 20
1.9751
 30
0.0
 40
0
 41
0
  0
VERTEX
  8
0
 10
2.17443
 20
2.12924
 30
0.0
 40
0
 41
0
  0
VERTEX
  8
0
 10
2.1914
 20
2.25319
 30
0.0
 40
0
 41
0
  0
VERTEX
  8
0
 10
2.20606
 20
2.34457
 30
0.0
 40
0
 41
0
  0
VERTEX
  8
0
 10
2.21642
 20
2.40115
 30
0.0
 40
0
 41
0
  0
VERTEX
  8
0
 10
2.22032
 20
2.42046
 30
0.0
 40
0
 41
0
  0
SEQEND
 8
0
  0
POLYLINE
  8
0
 62
     0
 66
     1
 10
0
 20
0
 30
0.0
 70
     1
 40
0
 41
0
  0
VERTEX
  8
0
 10
0.774522
 20
1.82563
 30
0.0
 40
0
 41
0
  0
VERTEX
  8
0
 10
0.806478
 20
1.79411
 30
0.0
 40
0
 41
0
  0
VERTEX
  8
0
 10
0.954699
 20
1.64578
 30
0.0
 40
0
 41
0
  0
VERTEX
  8
0
 10
1.10297
 20
1.79411
 30
0.0
 40
0
 41
0
  0
VERTEX
  8
0
 10
1.1346
 20
1.82563
 30
0.0
 40
0
 41
0
  0
VERTEX
  8
0
 10
1.16585
 20
1.79372
 30
0.0
 40
0
 41
0
  0
VERTEX
  8
0
 10
1.21235
 20
1.74647
 30
0.0
 40
0
 41
0
  0
VERTEX
  8
0
 10
1.2436
 20
1.71522
 30
0.0
 40
0
 41
0
  0
VERTEX
  8
0
 10
1.24327
 20
1.71496
 30
0.0
 40
0
 41
0
  0
VERTEX
  8
0
 10
1.2436
 20
1.71451
 30
0.0
 40
0
 41
0
  0
VERTEX
  8
0
 10
1.21859
 20
1.68994
 30
0.0
 40
0
 41
0
  0
VERTEX
  8
0
 10
1.21235
 20
1.68371
 30
0.0
 40
0
 41
0
  0
VERTEX
  8
0
 10
1.06478
 20
1.53569
 30
0.0
 40
0
 41
0
  0
VERTEX
  8
0
 10
1.21235
 20
1.38813
 30
0.0
 40
0
 41
0
  0
VERTEX
  8
0
 10
1.24327
 20
1.35688
 30
0.0
 40
0
 41
0
  0
VERTEX
  8
0
 10
1.21235
 20
1.32563
 30
0.0
 40
0
 41
0
  0
VERTEX
  8
0
 10
1.16585
 20
1.2781
 30
0.0
 40
0
 41
0
  0
VERTEX
  8
0
 10
1.1346
 20
1.2462
 30
0.0
 40
0
 41
0
  0
VERTEX
  8
0
 10
1.10297
 20
1.2781
 30
0.0
 40
0
 41
0
  0
VERTEX
  8
0
 10
0.954699
 20
1.42632
 30
0.0
 40
0
 41
0
  0
VERTEX
  8
0
 10
0.774522
 20
1.2462
 30
0.0
 40
0
 41
0
  0
VERTEX
  8
0
 10
0.743272
 20
1.27848
 30
0.0
 40
0
 41
0
  0
VERTEX
  8
0
 10
0.697103
 20
1.32563
 30
0.0
 40
0
 41
0
  0
VERTEX
  8
0
 10
0.666504
 20
1.35731
 30
0.0
 40
0
 41
0
  0
VERTEX
  8
0
 10
0.697428
 20
1.38813
 30
0.0
 40
0
 41
0
  0
VERTEX
  8
0
 10
0.844672
 20
1.53569
 30
0.0
 40
0
 41
0
  0
VERTEX
  8
0
 10
0.697428
 20
1.68397
 30
0.0
 40
0
 41
0
  0
VERTEX
  8
0
 10
0.666504
 20
1.71496
 30
0.0
 40
0
 41
0
  0
VERTEX
  8
0
 10
0.697103
 20
1.74621
 30
0.0
 40
0
 41
0
  0
VERTEX
  8
0
 10
0.743272
 20
1.79372
 30
0.0
 40
0
 41
0
  0
VERTEX
  8
0
 10
0.774522
 20
1.82563
 30
0.0
 40
0
 41
0
  0
SEQEND
 8
0
  0
POLYLINE
  8
0
 62
     0
 66
     1
 10
0
 20
0
 30
0.0
 70
     1
 40
0.447957
 41
0.447957
  0
VERTEX
  8
0
 10
2.22032
 20
2.42046
 30
0.0
 40
0.00622163
 41
0.00622163
  0
VERTEX
  8
0
 10
2.20199
 20
2.40218
 30
0.0
 40
0.00622163
 41
0.00622163
  0
VERTEX
  8
0
 10
2.15343
 20
2.34825
 30
0.0
 40
0.00622163
 41
0.00622163
  0
VERTEX
  8
0
 10
2.08436
 20
2.26019
 30
0.0
 40
0.00622163
 41
0.00622163
  0
VERTEX
  8
0
 10
2.00429
 20
2.13949
 30
0.0
 40
0.00622163
 41
0.00622163
  0
VERTEX
  8
0
 10
1.92296
 20
1.98762
 30
0.0
 40
0.00622163
 41
0.00622163
  0
VERTEX
  8
0
 10
1.84999
 20
1.80615
 30
0.0
 40
0.00622163
 41
0.00622163
  0
VERTEX
  8
0
 10
1.79497
 20
1.59646
 30
0.0
 40
0.00622163
 41
0.00622163
  0
VERTEX
  8
0
 10
1.76758
 20
1.36008
 30
0.0
 40
0.00622163
 41
0.00622163
  0
VERTEX
  8
0
 10
1.47765
 20
1.36355
 30
0.0
 40
0.00622163
 41
0.00622163
  0
VERTEX
  8
0
 10
1.47379
 20
2.29611
 30
0.0
 40
0.00622163
 41
0.00622163
  0
VERTEX
  8
0
 10
1.46436
 20
2.29318
 30
0.0
 40
0.00622163
 41
0.00622163
  0
VERTEX
  8
0
 10
1.43733
 20
2.2844
 30
0.0
 40
0.00622163
 41
0.00622163
  0
VERTEX
  8
0
 10
1.39458
 20
2.26992
 30
0.0
 40
0.00622163
 41
0.00622163
  0
VERTEX
  8
0
 10
1.33784
 20
2.25
 30
0.0
 40
0.00622163
 41
0.00622163
  0
VERTEX
  8
0
 10
1.26893
 20
2.22472
 30
0.0
 40
0.00622163
 41
0.00622163
  0
VERTEX
  8
0
 10
1.18973
 20
2.19428
 30
0.0
 40
0.00622163
 41
0.00622163
  0
VERTEX
  8
0
 10
1.10205
 20
2.15881
 30
0.0
 40
0.00622163
 41
0.00622163
  0
VERTEX
  8
0
 10
1.00776
 20
2.11854
 30
0.0
 40
0.00622163
 41
0.00622163
  0
VERTEX
  8
0
 10
0.908529
 20
2.07357
 30
0.0
 40
0.00622163
 41
0.00622163
  0
VERTEX
  8
0
 10
0.806315
 20
2.02408
 30
0.0
 40
0.00622163
 41
0.00622163
  0
VERTEX
  8
0
 10
0.702963
 20
1.97026
 30
0.0
 40
0.00622163
 41
0.00622163
  0
VERTEX
  8
0
 10
0.600151
 20
1.91228
 30
0.0
 40
0.00622163
 41
0.00622163
  0
VERTEX
  8
0
 10
0.499838
 20
1.85026
 30
0.0
 40
0.00622163
 41
0.00622163
  0
VERTEX
  8
0
 10
0.403754
 20
1.7844
 30
0.0
 40
0.00622163
 41
0.00622163
  0
VERTEX
  8
0
 10
0.313803
 20
1.71485
 30
0.0
 40
0.00622163
 41
0.00622163
  0
VERTEX
  8
0
 10
0.231771
 20
1.64176
 30
0.0
 40
0.00622163
 41
0.00622163
  0
VERTEX
  8
0
 10
0.159451
 20
1.56532
 30
0.0
 40
0.00622163
 41
0.00622163
  0
VERTEX
  8
0
 10
0.0986871
 20
1.48568
 30
0.0
 40
0.00622163
 41
0.00622163
  0
VERTEX
  8
0
 10
0.0513238
 20
1.40306
 30
0.0
 40
0.00622163
 41
0.00622163
  0
VERTEX
  8
0
 10
0.0191515
 20
1.31749
 30
0.0
 40
0.00622163
 41
0.00622163
  0
VERTEX
  8
0
 10
0.00401475
 20
1.22927
 30
0.0
 40
0.00622163
 41
0.00622163
  0
VERTEX
  8
0
 10
0.00775825
 20
1.13851
 30
0.0
 40
0.00622163
 41
0.00622163
  0
VERTEX
  8
0
 10
0.0321724
 20
1.04536
 30
0.0
 40
0.00622163
 41
0.00622163
  0
VERTEX
  8
0
 10
0.0790474
 20
0.950032
 30
0.0
 40
0.00622163
 41
0.00622163
  0
VERTEX
  8
0
 10
0.150282
 20
0.852647
 30
0.0
 40
0.00622163
 41
0.00622163
  0
VERTEX
  8
0
 10
0.247613
 20
0.753364
 30
0.0
 40
0.00622163
 41
0.00622163
  0
VERTEX
  8
0
 10
0.372939
 20
0.652399
 30
0.0
 40
0.00622163
 41
0.00622163
  0
VERTEX
  8
0
 10
0.528049
 20
0.549858
 30
0.0
 40
0.00622163
 41
0.00622163
  0
VERTEX
  8
0
 10
0.714789
 20
0.44591
 30
0.0
 40
0.00622163
 41
0.00622163
  0
VERTEX
  8
0
 10
0.93495
 20
0.340767
 30
0.0
 40
0.00622163
 41
0.00622163
  0
VERTEX
  8
0
 10
1.19032
 20
0.234537
 30
0.0
 40
0.00622163
 41
0.00622163
  0
VERTEX
  8
0
 10
1.48286
 20
0.127441
 30
0.0
 40
0.00622163
 41
0.00622163
  0
VERTEX
  8
0
 10
1.47868
 20
1.10102
 30
0.0
 40
0.00622163
 41
0.00622163
  0
VERTEX
  8
0
 10
1.77626
 20
1.10862
 30
0.0
 40
0.00622163
 41
0.00622163
  0
VERTEX
  8
0
 10
1.82221
 20
0.857639
 30
0.0
 40
0.00622163
 41
0.00622163
  0
VERTEX
  8
0
 10
1.91146
 20
0.589031
 30
0.0
 40
0.00622163
 41
0.00622163
  0
VERTEX
  8
0
 10
2.05083
 20
0.303874
 30
0.0
 40
0.00622163
 41
0.00622163
  0
VERTEX
  8
0
 10
2.24707
 20
0.00314669
 30
0.0
 40
0.00622163
 41
0.00622163
  0
VERTEX
  8
0
 10
2.19706
 20
0.300131
 30
0.0
 40
0.00622163
 41
0.00622163
  0
VERTEX
  8
0
 10
2.16168
 20
0.586046
 30
0.0
 40
0.00622163
 41
0.00622163
  0
VERTEX
  8
0
 10
2.13917
 20
0.858942
 30
0.0
 40
0.00622163
 41
0.00622163
  0
VERTEX
  8
0
 10
2.12765
 20
1.11664
 30
0.0
 40
0.00622163
 41
0.00622163
  0
VERTEX
  8
0
 10
2.537
 20
1.12495
 30
0.0
 40
0.00622163
 41
0.00622163
  0
VERTEX
  8
0
 10
2.579
 20
0.888672
 30
0.0
 40
0.00622163
 41
0.00622163
  0
VERTEX
  8
0
 10
2.66206
 20
0.635417
 30
0.0
 40
0.00622163
 41
0.00622163
  0
VERTEX
  8
0
 10
2.79275
 20
0.366428
 30
0.0
 40
0.00622163
 41
0.00622163
  0
VERTEX
  8
0
 10
2.97765
 20
0.0825738
 30
0.0
 40
0.00622163
 41
0.00622163
  0
VERTEX
  8
0
 10
2.93061
 20
0.362196
 30
0.0
 40
0.00622163
 41
0.00622163
  0
VERTEX
  8
0
 10
2.89757
 20
0.631293
 30
0.0
 40
0.00622163
 41
0.00622163
  0
VERTEX
  8
0
 10
2.87668
 20
0.887967
 30
0.0
 40
0.00622163
 41
0.00622163
  0
VERTEX
  8
0
 10
2.86615
 20
1.13015
 30
0.0
 40
0.00622163
 41
0.00622163
  0
VERTEX
  8
0
 10
3.22487
 20
1.13439
 30
0.0
 40
0.00622163
 41
0.00622163
  0
VERTEX
  8
0
 10
3.25786
 20
0.957519
 30
0.0
 40
0.00622163
 41
0.00622163
  0
VERTEX
  8
0
 10
3.32135
 20
0.768283
 30
0.0
 40
0.00622163
 41
0.00622163
  0
VERTEX
  8
0
 10
3.41992
 20
0.567492
 30
0.0
 40
0.00622163
 41
0.00622163
  0
VERTEX
  8
0
 10
3.55821
 20
0.355849
 30
0.0
 40
0.00622163
 41
0.00622163
  0
VERTEX
  8
0
 10
3.49815
 20
0.764214
 30
0.0
 40
0.00622163
 41
0.00622163
  0
VERTEX
  8
0
 10
3.47379
 20
1.13639
 30
0.0
 40
0.00622163
 41
0.00622163
  0
VERTEX
  8
0
 10
3.93946
 20
1.13683
 30
0.0
 40
0.00622163
 41
0.00622163
  0
VERTEX
  8
0
 10
3.96946
 20
0.979221
 30
0.0
 40
0.00622163
 41
0.00622163
  0
VERTEX
  8
0
 10
4.02642
 20
0.810818
 30
0.0
 40
0.00622163
 41
0.00622163
  0
VERTEX
  8
0
 10
4.11431
 20
0.632269
 30
0.0
 40
0.00622163
 41
0.00622163
  0
VERTEX
  8
0
 10
4.23736
 20
0.444119
 30
0.0
 40
0.00622163
 41
0.00622163
  0
VERTEX
  8
0
 10
4.18403
 20
0.805664
 30
0.0
 40
0.00622163
 41
0.00622163
  0
VERTEX
  8
0
 10
4.162
 20
1.13574
 30
0.0
 40
0.00622163
 41
0.00622163
  0
VERTEX
  8
0
 10
4.42518
 20
1.13184
 30
0.0
 40
0.00622163
 41
0.00622163
  0
VERTEX
  8
0
 10
4.66444
 20
1.12532
 30
0.0
 40
0.00622163
 41
0.00622163
  0
VERTEX
  8
0
 10
4.69146
 20
0.999729
 30
0.0
 40
0.00622163
 41
0.00622163
  0
VERTEX
  8
0
 10
4.7391
 20
0.866049
 30
0.0
 40
0.00622163
 41
0.00622163
  0
VERTEX
  8
0
 10
4.81022
 20
0.724772
 30
0.0
 40
0.00622163
 41
0.00622163
  0
VERTEX
  8
0
 10
4.90782
 20
0.576335
 30
0.0
 40
0.00622163
 41
0.00622163
  0
VERTEX
  8
0
 10
4.86544
 20
0.858128
 30
0.0
 40
0.00622163
 41
0.00622163
  0
VERTEX
  8
0
 10
4.8464
 20
1.1173
 30
0.0
 40
0.00622163
 41
0.00622163
  0
VERTEX
  8
0
 10
5.02001
 20
1.10585
 30
0.0
 40
0.00622163
 41
0.00622163
  0
VERTEX
  8
0
 10
5.15761
 20
1.09131
 30
0.0
 40
0.00622163
 41
0.00622163
  0
VERTEX
  8
0
 10
5.25412
 20
1.07335
 30
0.0
 40
0.00622163
 41
0.00622163
  0
VERTEX
  8
0
 10
5.30474
 20
1.05176
 30
0.0
 40
0.00622163
 41
0.00622163
  0
VERTEX
  8
0
 10
5.31278
 20
1.04264
 30
0.0
 40
0.00622163
 41
0.00622163
  0
VERTEX
  8
0
 10
5.3361
 20
1.01655
 30
0.0
 40
0.00622163
 41
0.00622163
  0
VERTEX
  8
0
 10
5.37364
 20
0.975586
 30
0.0
 40
0.00622163
 41
0.00622163
  0
VERTEX
  8
0
 10
5.42426
 20
0.921658
 30
0.0
 40
0.00622163
 41
0.00622163
  0
VERTEX
  8
0
 10
5.48676
 20
0.856879
 30
0.0
 40
0.00622163
 41
0.00622163
  0
VERTEX
  8
0
 10
5.56011
 20
0.783257
 30
0.0
 40
0.00622163
 41
0.00622163
  0
VERTEX
  8
0
 10
5.64307
 20
0.702746
 30
0.0
 40
0.00622163
 41
0.00622163
  0
VERTEX
  8
0
 10
5.73454
 20
0.617458
 30
0.0
 40
0.00622163
 41
0.00622163
  0
VERTEX
  8
0
 10
5.83344
 20
0.529297
 30
0.0
 40
0.00622163
 41
0.00622163
  0
VERTEX
  8
0
 10
5.93858
 20
0.440375
 30
0.0
 40
0.00622163
 41
0.00622163
  0
VERTEX
  8
0
 10
6.04889
 20
0.352701
 30
0.0
 40
0.00622163
 41
0.00622163
  0
VERTEX
  8
0
 10
6.16319
 20
0.268229
 30
0.0
 40
0.00622163
 41
0.00622163
  0
VERTEX
  8
0
 10
6.28033
 20
0.189019
 30
0.0
 40
0.00622163
 41
0.00622163
  0
VERTEX
  8
0
 10
6.39919
 20
0.117133
 30
0.0
 40
0.00622163
 41
0.00622163
  0
VERTEX
  8
0
 10
6.51872
 20
0.0544706
 30
0.0
 40
0.00622163
 41
0.00622163
  0
VERTEX
  8
0
 10
6.63769
 20
0.00314669
 30
0.0
 40
0.00622163
 41
0.00622163
  0
VERTEX
  8
0
 10
6.63547
 20
0.0379232
 30
0.0
 40
0.00622163
 41
0.00622163
  0
VERTEX
  8
0
 10
6.62657
 20
0.133029
 30
0.0
 40
0.00622163
 41
0.00622163
  0
VERTEX
  8
0
 10
6.60769
 20
0.274522
 30
0.0
 40
0.00622163
 41
0.00622163
  0
VERTEX
  8
0
 10
6.57553
 20
0.448676
 30
0.0
 40
0.00622163
 41
0.00622163
  0
VERTEX
  8
0
 10
6.52664
 20
0.641547
 30
0.0
 40
0.00622163
 41
0.00622163
  0
VERTEX
  8
0
 10
6.45779
 20
0.839301
 30
0.0
 40
0.00622163
 41
0.00622163
  0
VERTEX
  8
0
 10
6.36561
 20
1.02816
 30
0.0
 40
0.00622163
 41
0.00622163
  0
VERTEX
  8
0
 10
6.24675
 20
1.19412
 30
0.0
 40
0.00622163
 41
0.00622163
  0
VERTEX
  8
0
 10
6.26281
 20
1.22277
 30
0.0
 40
0.00622163
 41
0.00622163
  0
VERTEX
  8
0
 10
6.30528
 20
1.30317
 30
0.0
 40
0.00622163
 41
0.00622163
  0
VERTEX
  8
0
 10
6.36572
 20
1.42708
 30
0.0
 40
0.00622163
 41
0.00622163
  0
VERTEX
  8
0
 10
6.43554
 20
1.58632
 30
0.0
 40
0.00622163
 41
0.00622163
  0
VERTEX
  8
0
 10
6.50618
 20
1.77268
 30
0.0
 40
0.00622163
 41
0.00622163
  0
VERTEX
  8
0
 10
6.56912
 20
1.97781
 30
0.0
 40
0.00622163
 41
0.00622163
  0
VERTEX
  8
0
 10
6.61578
 20
2.19362
 30
0.0
 40
0.00622163
 41
0.00622163
  0
VERTEX
  8
0
 10
6.63769
 20
2.41178
 30
0.0
 40
0.00622163
 41
0.00622163
  0
VERTEX
  8
0
 10
6.62657
 20
2.405
 30
0.0
 40
0.00622163
 41
0.00622163
  0
VERTEX
  8
0
 10
6.59489
 20
2.38519
 30
0.0
 40
0.00622163
 41
0.00622163
  0
VERTEX
  8
0
 10
6.54486
 20
2.3534
 30
0.0
 40
0.00622163
 41
0.00622163
  0
VERTEX
  8
0
 10
6.47879
 20
2.3106
 30
0.0
 40
0.00622163
 41
0.00622163
  0
VERTEX
  8
0
 10
6.39899
 20
2.25771
 30
0.0
 40
0.00622163
 41
0.00622163
  0
VERTEX
  8
0
 10
6.30772
 20
2.19575
 30
0.0
 40
0.00622163
 41
0.00622163
  0
VERTEX
  8
0
 10
6.20725
 20
2.12571
 30
0.0
 40
0.00622163
 41
0.00622163
  0
VERTEX
  8
0
 10
6.09993
 20
2.04856
 30
0.0
 40
0.00622163
 41
0.00622163
  0
VERTEX
  8
0
 10
5.98807
 20
1.96522
 30
0.0
 40
0.00622163
 41
0.00622163
  0
VERTEX
  8
0
 10
5.87386
 20
1.87674
 30
0.0
 40
0.00622163
 41
0.00622163
  0
VERTEX
  8
0
 10
5.75965
 20
1.78407
 30
0.0
 40
0.00622163
 41
0.00622163
  0
VERTEX
  8
0
 10
5.64779
 20
1.68821
 30
0.0
 40
0.00622163
 41
0.00622163
  0
VERTEX
  8
0
 10
5.54047
 20
1.59006
 30
0.0
 40
0.00622163
 41
0.00622163
  0
VERTEX
  8
0
 10
5.44
 20
1.49067
 30
0.0
 40
0.00622163
 41
0.00622163
  0
VERTEX
  8
0
 10
5.34874
 20
1.391
 30
0.0
 40
0.00622163
 41
0.00622163
  0
VERTEX
  8
0
 10
5.26893
 20
1.29199
 30
0.0
 40
0.00622163
 41
0.00622163
  0
VERTEX
  8
0
 10
5.2296
 20
1.29291
 30
0.0
 40
0.00622163
 41
0.00622163
  0
VERTEX
  8
0
 10
5.12864
 20
1.29514
 30
0.0
 40
0.00622163
 41
0.00622163
  0
VERTEX
  8
0
 10
4.9916
 20
1.29812
 30
0.0
 40
0.00622163
 41
0.00622163
  0
VERTEX
  8
0
 10
4.84397
 20
1.30132
 30
0.0
 40
0.00622163
 41
0.00622163
  0
VERTEX
  8
0
 10
4.85319
 20
1.52615
 30
0.0
 40
0.00622163
 41
0.00622163
  0
VERTEX
  8
0
 10
4.87011
 20
1.69829
 30
0.0
 40
0.00622163
 41
0.00622163
  0
VERTEX
  8
0
 10
4.88633
 20
1.80843
 30
0.0
 40
0.00622163
 41
0.00622163
  0
VERTEX
  8
0
 10
4.89361
 20
1.84717
 30
0.0
 40
0.00622163
 41
0.00622163
  0
VERTEX
  8
0
 10
4.88422
 20
1.83783
 30
0.0
 40
0.00622163
 41
0.00622163
  0
VERTEX
  8
0
 10
4.85938
 20
1.81033
 30
0.0
 40
0.00622163
 41
0.00622163
  0
VERTEX
  8
0
 10
4.82394
 20
1.76535
 30
0.0
 40
0.00622163
 41
0.00622163
  0
VERTEX
  8
0
 10
4.78267
 20
1.70367
 30
0.0
 40
0.00622163
 41
0.00622163
  0
VERTEX
  8
0
 10
4.74044
 20
1.62608
 30
0.0
 40
0.00622163
 41
0.00622163
  0
VERTEX
  8
0
 10
4.7021
 20
1.53331
 30
0.0
 40
0.00622163
 41
0.00622163
  0
VERTEX
  8
0
 10
4.67247
 20
1.42611
 30
0.0
 40
0.00622163
 41
0.00622163
  0
VERTEX
  8
0
 10
4.65647
 20
1.30523
 30
0.0
 40
0.00622163
 41
0.00622163
  0
VERTEX
  8
0
 10
4.42074
 20
1.31033
 30
0.0
 40
0.00622163
 41
0.00622163
  0
VERTEX
  8
0
 10
4.16026
 20
1.31592
 30
0.0
 40
0.00622163
 41
0.00622163
  0
VERTEX
  8
0
 10
4.16396
 20
1.45985
 30
0.0
 40
0.00622163
 41
0.00622163
  0
VERTEX
  8
0
 10
4.17133
 20
1.58914
 30
0.0
 40
0.00622163
 41
0.00622163
  0
VERTEX
  8
0
 10
4.18099
 20
1.70247
 30
0.0
 40
0.00622163
 41
0.00622163
  0
VERTEX
  8
0
 10
4.19179
 20
1.79844
 30
0.0
 40
0.00622163
 41
0.00622163
  0
VERTEX
  8
0
 10
4.20236
 20
1.87554
 30
0.0
 40
0.00622163
 41
0.00622163
  0
VERTEX
  8
0
 10
4.21149
 20
1.93235
 30
0.0
 40
0.00622163
 41
0.00622163
  0
VERTEX
  8
0
 10
4.21789
 20
1.9675
 30
0.0
 40
0.00622163
 41
0.00622163
  0
VERTEX
  8
0
 10
4.22032
 20
1.97949
 30
0.0
 40
0.00622163
 41
0.00622163
  0
VERTEX
  8
0
 10
4.20893
 20
1.96815
 30
0.0
 40
0.00622163
 41
0.00622163
  0
VERTEX
  8
0
 10
4.17876
 20
1.93468
 30
0.0
 40
0.00622163
 41
0.00622163
  0
VERTEX
  8
0
 10
4.13569
 20
1.87993
 30
0.0
 40
0.00622163
 41
0.00622163
  0
VERTEX
  8
0
 10
4.08561
 20
1.80496
 30
0.0
 40
0.00622163
 41
0.00622163
  0
VERTEX
  8
0
 10
4.03444
 20
1.71061
 30
0.0
 40
0.00622163
 41
0.00622163
  0
VERTEX
  8
0
 10
3.98812
 20
1.59776
 30
0.0
 40
0.00622163
 41
0.00622163
  0
VERTEX
  8
0
 10
3.95247
 20
1.46739
 30
0.0
 40
0.00622163
 41
0.00622163
  0
VERTEX
  8
0
 10
3.93354
 20
1.32042
 30
0.0
 40
0.00622163
 41
0.00622163
  0
VERTEX
  8
0
 10
3.47206
 20
1.32981
 30
0.0
 40
0.00622163
 41
0.00622163
  0
VERTEX
  8
0
 10
3.47624
 20
1.48986
 30
0.0
 40
0.00622163
 41
0.00622163
  0
VERTEX
  8
0
 10
3.48449
 20
1.63363
 30
0.0
 40
0.00622163
 41
0.00622163
  0
VERTEX
  8
0
 10
3.49528
 20
1.75965
 30
0.0
 40
0.00622163
 41
0.00622163
  0
VERTEX
  8
0
 10
3.50732
 20
1.86632
 30
0.0
 40
0.00622163
 41
0.00622163
  0
VERTEX
  8
0
 10
3.5191
 20
1.95204
 30
0.0
 40
0.00622163
 41
0.00622163
  0
VERTEX
  8
0
 10
3.52924
 20
2.01525
 30
0.0
 40
0.00622163
 41
0.00622163
  0
VERTEX
  8
0
 10
3.5364
 20
2.05431
 30
0.0
 40
0.00622163
 41
0.00622163
  0
VERTEX
  8
0
 10
3.53911
 20
2.06765
 30
0.0
 40
0.00622163
 41
0.00622163
  0
VERTEX
  8
0
 10
3.52642
 20
2.05501
 30
0.0
 40
0.00622163
 41
0.00622163
  0
VERTEX
  8
0
 10
3.49283
 20
2.01779
 30
0.0
 40
0.00622163
 41
0.00622163
  0
VERTEX
  8
0
 10
3.44488
 20
1.95697
 30
0.0
 40
0.00622163
 41
0.00622163
  0
VERTEX
  8
0
 10
3.38911
 20
1.87358
 30
0.0
 40
0.00622163
 41
0.00622163
  0
VERTEX
  8
0
 10
3.33208
 20
1.76861
 30
0.0
 40
0.00622163
 41
0.00622163
  0
VERTEX
  8
0
 10
3.28039
 20
1.64318
 30
0.0
 40
0.00622163
 41
0.00622163
  0
VERTEX
  8
0
 10
3.24061
 20
1.49821
 30
0.0
 40
0.00622163
 41
0.00622163
  0
VERTEX
  8
0
 10
3.21929
 20
1.33474
 30
0.0
 40
0.00622163
 41
0.00622163
  0
VERTEX
  8
0
 10
2.8641
 20
1.34169
 30
0.0
 40
0.00622163
 41
0.00622163
  0
VERTEX
  8
0
 10
2.86897
 20
1.558
 30
0.0
 40
0.00622163
 41
0.00622163
  0
VERTEX
  8
0
 10
2.87956
 20
1.75261
 30
0.0
 40
0.00622163
 41
0.00622163
  0
VERTEX
  8
0
 10
2.89382
 20
1.92324
 30
0.0
 40
0.00622163
 41
0.00622163
  0
VERTEX
  8
0
 10
2.90983
 20
2.06782
 30
0.0
 40
0.00622163
 41
0.00622163
  0
VERTEX
  8
0
 10
2.92563
 20
2.18403
 30
0.0
 40
0.00622163
 41
0.00622163
  0
VERTEX
  8
0
 10
2.93935
 20
2.26981
 30
0.0
 40
0.00622163
 41
0.00622163
  0
VERTEX
  8
0
 10
2.94894
 20
2.32286
 30
0.0
 40
0.00622163
 41
0.00622163
  0
VERTEX
  8
0
 10
2.95264
 20
2.34099
 30
0.0
 40
0.00622163
 41
0.00622163
  0
VERTEX
  8
0
 10
2.93544
 20
2.32383
 30
0.0
 40
0.00622163
 41
0.00622163
  0
VERTEX
  8
0
 10
2.89003
 20
2.27328
 30
0.0
 40
0.00622163
 41
0.00622163
  0
VERTEX
  8
0
 10
2.82536
 20
2.19069
 30
0.0
 40
0.00622163
 41
0.00622163
  0
VERTEX
  8
0
 10
2.75054
 20
2.07758
 30
0.0
 40
0.00622163
 41
0.00622163
  0
VERTEX
  8
0
 10
2.67447
 20
1.93528
 30
0.0
 40
0.00622163
 41
0.00622163
  0
VERTEX
  8
0
 10
2.60633
 20
1.76525
 30
0.0
 40
0.00622163
 41
0.00622163
  0
VERTEX
  8
0
 10
2.55507
 20
1.56885
 30
0.0
 40
0.00622163
 41
0.00622163
  0
VERTEX
  8
0
 10
2.52974
 20
1.34755
 30
0.0
 40
0.00622163
 41
0.00622163
  0
VERTEX
  8
0
 10
2.12522
 20
1.35449
 30
0.0
 40
0.00622163
 41
0.00622163
  0
VERTEX
  8
0
 10
2.13058
 20
1.58539
 30
0.0
 40
0.00622163
 41
0.00622163
  0
VERTEX
  8
0
 10
2.14193
 20
1.79303
 30
0.0
 40
0.00622163
 41
0.00622163
  0
VERTEX
  8
0
 10
2.15728
 20
1.9751
 30
0.0
 40
0.00622163
 41
0.00622163
  0
VERTEX
  8
0
 10
2.17443
 20
2.12924
 30
0.0
 40
0.00622163
 41
0.00622163
  0
VERTEX
  8
0
 10
2.1914
 20
2.25319
 30
0.0
 40
0.00622163
 41
0.00622163
  0
VERTEX
  8
0
 10
2.20606
 20
2.34457
 30
0.0
 40
0.00622163
 41
0.00622163
  0
VERTEX
  8
0
 10
2.21642
 20
2.40115
 30
0.0
 40
0.00622163
 41
0.00622163
  0
VERTEX
  8
0
 10
2.22032
 20
2.42046
 30
0.0
 40
0.00622163
 41
0.00622163
  0
SEQEND
 8
0
  0
POLYLINE
  8
0
 62
     0
 66
     1
 10
0
 20
0
 30
0.0
 70
     1
 40
0.447957
 41
0.447957
  0
VERTEX
  8
0
 10
0.774522
 20
1.82563
 30
0.0
 40
0.00622163
 41
0.00622163
  0
VERTEX
  8
0
 10
0.806478
 20
1.79411
 30
0.0
 40
0.00622163
 41
0.00622163
  0
VERTEX
  8
0
 10
0.954699
 20
1.64578
 30
0.0
 40
0.00622163
 41
0.00622163
  0
VERTEX
  8
0
 10
1.10297
 20
1.79411
 30
0.0
 40
0.00622163
 41
0.00622163
  0
VERTEX
  8
0
 10
1.1346
 20
1.82563
 30
0.0
 40
0.00622163
 41
0.00622163
  0
VERTEX
  8
0
 10
1.16585
 20
1.79372
 30
0.0
 40
0.00622163
 41
0.00622163
  0
VERTEX
  8
0
 10
1.21235
 20
1.74647
 30
0.0
 40
0.00622163
 41
0.00622163
  0
VERTEX
  8
0
 10
1.2436
 20
1.71522
 30
0.0
 40
0.00622163
 41
0.00622163
  0
VERTEX
  8
0
 10
1.24327
 20
1.71496
 30
0.0
 40
0.00622163
 41
0.00622163
  0
VERTEX
  8
0
 10
1.2436
 20
1.71451
 30
0.0
 40
0.00622163
 41
0.00622163
  0
VERTEX
  8
0
 10
1.21859
 20
1.68994
 30
0.0
 40
0.00622163
 41
0.00622163
  0
VERTEX
  8
0
 10
1.21235
 20
1.68371
 30
0.0
 40
0.00622163
 41
0.00622163
  0
VERTEX
  8
0
 10
1.06478
 20
1.53569
 30
0.0
 40
0.00622163
 41
0.00622163
  0
VERTEX
  8
0
 10
1.21235
 20
1.38813
 30
0.0
 40
0.00622163
 41
0.00622163
  0
VERTEX
  8
0
 10
1.24327
 20
1.35688
 30
0.0
 40
0.00622163
 41
0.00622163
  0
VERTEX
  8
0
 10
1.21235
 20
1.32563
 30
0.0
 40
0.00622163
 41
0.00622163
  0
VERTEX
  8
0
 10
1.16585
 20
1.2781
 30
0.0
 40
0.00622163
 41
0.00622163
  0
VERTEX
  8
0
 10
1.1346
 20
1.2462
 30
0.0
 40
0.00622163
 41
0.00622163
  0
VERTEX
  8
0
 10
1.10297
 20
1.2781
 30
0.0
 40
0.00622163
 41
0.00622163
  0
VERTEX
  8
0
 10
0.954699
 20
1.42632
 30
0.0
 40
0.00622163
 41
0.00622163
  0
VERTEX
  8
0
 10
0.774522
 20
1.2462
 30
0.0
 40
0.00622163
 41
0.00622163
  0
VERTEX
  8
0
 10
0.743272
 20
1.27848
 30
0.0
 40
0.00622163
 41
0.00622163
  0
VERTEX
  8
0
 10
0.697103
 20
1.32563
 30
0.0
 40
0.00622163
 41
0.00622163
  0
VERTEX
  8
0
 10
0.666504
 20
1.35731
 30
0.0
 40
0.00622163
 41
0.00622163
  0
VERTEX
  8
0
 10
0.697428
 20
1.38813
 30
0.0
 40
0.00622163
 41
0.00622163
  0
VERTEX
  8
0
 10
0.844672
 20
1.53569
 30
0.0
 40
0.00622163
 41
0.00622163
  0
VERTEX
  8
0
 10
0.697428
 20
1.68397
 30
0.0
 40
0.00622163
 41
0.00622163
  0
VERTEX
  8
0
 10
0.666504
 20
1.71496
 30
0.0
 40
0.00622163
 41
0.00622163
  0
VERTEX
  8
0
 10
0.697103
 20
1.74621
 30
0.0
 40
0.00622163
 41
0.00622163
  0
VERTEX
  8
0
 10
0.743272
 20
1.79372
 30
0.0
 40
0.00622163
 41
0.00622163
  0
VERTEX
  8
0
 10
0.774522
 20
1.82563
 30
0.0
 40
0.00622163
 41
0.00622163
  0
SEQEND
 8
0
  0
ENDSEC
  0
EOF
