<?xml version="1.0" encoding="UTF-8" standalone="no"?>
<!-- Created with Inkscape (http://www.inkscape.org/) -->

<svg
   xmlns:dc="http://purl.org/dc/elements/1.1/"
   xmlns:cc="http://creativecommons.org/ns#"
   xmlns:rdf="http://www.w3.org/1999/02/22-rdf-syntax-ns#"
   xmlns:svg="http://www.w3.org/2000/svg"
   xmlns="http://www.w3.org/2000/svg"
   xmlns:sodipodi="http://sodipodi.sourceforge.net/DTD/sodipodi-0.dtd"
   xmlns:inkscape="http://www.inkscape.org/namespaces/inkscape"
   width="597.67334"
   height="218.1225"
   id="svg2"
   version="1.1"
   inkscape:version="0.47 r22583"
   sodipodi:docname="fish.svg">
  <defs
     id="defs4">
    <inkscape:perspective
       sodipodi:type="inkscape:persp3d"
       inkscape:vp_x="0 : 109.09375 : 1"
       inkscape:vp_y="0 : 1000 : 0"
       inkscape:vp_z="597.70074 : 109.09375 : 1"
       inkscape:persp3d-origin="298.85037 : 72.729167 : 1"
       id="perspective9" />
  </defs>
  <sodipodi:namedview
     id="base"
     pagecolor="#ffffff"
     bordercolor="#666666"
     borderopacity="1.0"
     inkscape:pageopacity="0.0"
     inkscape:pageshadow="2"
     inkscape:zoom="0.98994949"
     inkscape:cx="505.68579"
     inkscape:cy="174.56986"
     inkscape:document-units="px"
     inkscape:current-layer="layer2"
     showgrid="false"
     inkscape:window-width="1440"
     inkscape:window-height="851"
     inkscape:window-x="0"
     inkscape:window-y="29"
     inkscape:window-maximized="1"
     fit-margin-top="0"
     fit-margin-left="0"
     fit-margin-right="0"
     fit-margin-bottom="0" />
  <metadata
     id="metadata7">
    <rdf:RDF>
      <cc:Work
         rdf:about="">
        <dc:format>image/svg+xml</dc:format>
        <dc:type
           rdf:resource="http://purl.org/dc/dcmitype/StillImage" />
        <dc:title />
      </cc:Work>
    </rdf:RDF>
  </metadata>
  <g
     inkscape:label="Layer 1"
     inkscape:groupmode="layer"
     id="layer1"
     transform="translate(232.04698,-516.69151)" />
  <g
     inkscape:groupmode="layer"
     id="layer2"
     inkscape:label="Layer"
     transform="translate(232.04698,-516.69151)">
    <path
       style="fill:#000000;stroke:#000000;stroke-width:0.55994594px;stroke-linecap:butt;stroke-linejoin:miter;stroke-opacity:1"
       d="m -32.216081,516.97148 c 0,0 -38.25714,35.62957 -40.75,95.4375 -9.41738,-0.12995 -18.26615,-0.23287 -26.09375,-0.3125 l -0.34375,-83.9375 c 0,0 -298.358629,91.99746 0.8125,195.1875 l -0.375,-87.625 c 8.09182,-0.21674 17.0198,-0.44943 26.78125,-0.6875 3.1859,29.02653 15.15123,62.52106 42.375,99.5 -6.95633,-36.22087 -9.95891,-70.27661 -10.75,-100.21875 11.86102,-0.2549 24.01792,-0.52259 36.8437502,-0.75 2.83453996,27.30475 13.9646998,58.91481 39.6562498,93.8125 -6.54782,-34.09384 -9.31894,-66.15802 -10.03125,-94.28125 10.70667,-0.15259 21.49138,-0.27018 32.28125,-0.375 2.32008,20.46516 10.84315,44.04111 30,70.0625 -4.8715,-25.36541 -7.0053,-49.21777 -7.59375,-70.25 14.30487,-0.0845 28.345701,-0.0807 41.906251,-0.0312 2.16101,18.24191 9.78332,39.21245 26.8125,62.34375 -4.31029,-22.44324 -6.22334,-43.5728 -6.78125,-62.25 16.38897,0.16467 31.7067,0.46696 45.21875,0.9375 2.12787,14.5746 8.49583,31.19044 21.90625,49.40625 -3.35262,-17.45672 -4.96679,-33.93255 -5.53125,-48.6875 22.8116,1.19786 38.13523,3.08813 41.25,5.90625 0,0 63.17423,72.77708 119.96875,94.375 0,0 -3.19059,-71.19098 -35.1875,-107.1875 0,0 33.58766,-57.59876 35.1875,-109.59375 0,0 -87.9909,53.58581 -123.1875,100.78125 0,0 -20.91401,-0.46501 -38.25,-0.84375 0.3231,-29.76036 4.46875,-49.125 4.46875,-49.125 0,0 -19.50509,18.18674 -21.34375,48.78125 -13.14481,-0.28244 -28.5427,-0.63203 -44.65625,-0.96875 0.36035,-36.16044 5.40625,-59.71875 5.40625,-59.71875 0,0 -23.72921,22.12223 -25.8125,59.3125 -13.33624,-0.27458 -27.429441,-0.56299 -41.531251,-0.84375 0.4168,-40.21171 6.03125,-66.40625 6.03125,-66.40625 0,0 -26.40026,24.60201 -28.78125,65.96875 -10.67266,-0.20763 -21.3706,-0.42683 -31.96875,-0.625 0.35145,-54.35185 7.96875,-89.9375 7.96875,-89.9375 0,0 -35.8152598,33.41944 -38.0624998,89.40625 -12.5582902,-0.22322 -24.7812802,-0.43698 -36.4062502,-0.625 0.40413,-58.01257 8.5625,-95.9375 8.5625,-95.9375 z m -130.124999,53.53125 2.875,2.84375 13.34375,13.34375 13.34375,-13.34375 2.84375,-2.84375 2.8125,2.875 4.1875,4.25 2.8125,2.8125 -0.0312,0.0312 0.0312,0.0312 -2.25,2.21875 -0.5625,0.5625 -13.28125,13.3125 13.28125,13.28125 2.78125,2.8125 -2.78125,2.8125 -4.1875,4.28125 -2.8125,2.875 -2.84375,-2.875 -13.34375,-13.34375 -13.34375,13.34375 -2.875,2.875 -2.8125,-2.90625 -4.15625,-4.25 -2.75,-2.84375 2.78125,-2.78125 13.25,-13.28125 -13.25,-13.34375 -2.78125,-2.78125 2.75,-2.8125 4.15625,-4.28125 2.8125,-2.875 z"
       id="path3051" />
  </g>
</svg>
