999
Inkscape export via "Better DXF Output" (bob@bobcookdev.com)
  0
SECTION
  2
HEADER
  9
$ACADVER
  1
AC1014
  9
$HANDSEED
  5
FFFF
  0
ENDSEC
  0
SECTION
  2
TABLES
  0
TABLE
  2
VPORT
  5
8
330
0
100
AcDbSymbolTable
 70
     4
  0
VPORT
  5
2E
330
8
100
AcDbSymbolTableRecord
100
AcDbViewportTableRecord
  2
*ACTIVE
 70
     0
 10
0.0
 20
0.0
 11
1.0
 21
1.0
 12
4.25
 22
5.5
 13
0.0
 23
0.0
 14
10.0
 24
10.0
 15
10.0
 25
10.0
 16
0.0
 26
0.0
 36
1.0
 17
0.0
 27
0.0
 37
0.0
 40
11
 41
1.24
 42
50.0
 43
0.0
 44
0.0
 50
0.0
 51
0.0
 71
     0
 72
   100
 73
     1
 74
     3
 75
     0
 76
     0
 77
     0
 78
     0
  0
ENDTAB
  0
TABLE
  2
LTYPE
  5
5
330
0
100
AcDbSymbolTable
 70
     1
  0
LTYPE
  5
14
330
5
100
AcDbSymbolTableRecord
100
AcDbLinetypeTableRecord
  2
BYBLOCK
 70
     0
  3

 72
    65
 73
     0
 40
0.0
  0
LTYPE
  5
15
330
5
100
AcDbSymbolTableRecord
100
AcDbLinetypeTableRecord
  2
BYLAYER
 70
     0
  3

 72
    65
 73
     0
 40
0.0
  0
LTYPE
  5
16
330
5
100
AcDbSymbolTableRecord
100
AcDbLinetypeTableRecord
  2
CONTINUOUS
 70
     0
  3
Solid line
 72
    65
 73
     0
 40
0.0
  0
ENDTAB
  0
TABLE
  2
LAYER
  5
2
330
0
100
AcDbSymbolTable
 70
1
  0
LAYER
  5
10
330
2
100
AcDbSymbolTableRecord
100
AcDbLayerTableRecord
  2
0
 70
     0
 62
     7
  6
CONTINUOUS
  0
ENDTAB
  0
TABLE
  2
STYLE
  5
3
330
0
100
AcDbSymbolTable
 70
     1
  0
STYLE
  5
11
330
3
100
AcDbSymbolTableRecord
100
AcDbTextStyleTableRecord
  2
STANDARD
 70
     0
 40
0.0
 41
1.0
 50
0.0
 71
     0
 42
2.5
  3
txt
  4

  0
ENDTAB
  0
TABLE
  2
VIEW
  5
6
330
0
100
AcDbSymbolTable
 70
     0
  0
ENDTAB
  0
TABLE
  2
UCS
  5
7
330
0
100
AcDbSymbolTable
 70
     0
  0
ENDTAB
  0
TABLE
  2
APPID
  5
9
330
0
100
AcDbSymbolTable
 70
     2
  0
APPID
  5
12
330
9
100
AcDbSymbolTableRecord
100
AcDbRegAppTableRecord
  2
ACAD
 70
     0
  0
ENDTAB
  0
TABLE
  2
DIMSTYLE
  5
A
330
0
100
AcDbSymbolTable
 70
     1
  0
DIMSTYLE
105
27
330
A
100
AcDbSymbolTableRecord
100
AcDbDimStyleTableRecord
  2
ISO-25
 70
     0
  3

  4

  5

  6

  7

 40
1.0
 41
2.5
 42
0.625
 43
3.75
 44
1.25
 45
0.0
 46
0.0
 47
0.0
 48
0.0
140
2.5
141
2.5
142
0.0
143
0.03937007874016
144
1.0
145
0.0
146
1.0
147
0.625
 71
     0
 72
     0
 73
     0
 74
     0
 75
     0
 76
     0
 77
     1
 78
     8
170
     0
171
     3
172
     1
173
     0
174
     0
175
     0
176
     0
177
     0
178
     0
270
     2
271
     2
272
     2
273
     2
274
     3
340
11
275
     0
280
     0
281
     0
282
     0
283
     0
284
     8
285
     0
286
     0
287
     3
288
     0
  0
ENDTAB
  0
TABLE
  2
BLOCK_RECORD
  5
1
330
0
100
AcDbSymbolTable
 70
     1
  0
BLOCK_RECORD
  5
1F
330
1
100
AcDbSymbolTableRecord
100
AcDbBlockTableRecord
  2
*MODEL_SPACE
  0
BLOCK_RECORD
  5
1B
330
1
100
AcDbSymbolTableRecord
100
AcDbBlockTableRecord
  2
*PAPER_SPACE
  0
ENDTAB
  0
ENDSEC
  0
SECTION
  2
BLOCKS
  0
BLOCK
  5
20
330
1F
100
AcDbEntity
  8
0
100
AcDbBlockBegin
  2
*MODEL_SPACE
 70
     0
 10
0.0
 20
0.0
 30
0.0
  3
*MODEL_SPACE
  1

  0
ENDBLK
  5
21
330
1F
100
AcDbEntity
  8
0
100
AcDbBlockEnd
  0
BLOCK
  5
1C
330
1B
100
AcDbEntity
 67
     1
  8
0
100
AcDbBlockBegin
  2
*PAPER_SPACE
  1

  0
ENDBLK
  5
1D
330
1B
100
AcDbEntity
 67
     1
  8
0
100
AcDbBlockEnd
  0
ENDSEC
  0
SECTION
  2
ENTITIES
0
LINE
8
Layer
62
4
5
100
100
AcDbEntity
100
AcDbLine
10
187.779865
20
-53.754514
30
0.0
11
183.744503
21
-56.325618
31
0.0
0
LINE
8
Layer
62
4
5
101
100
AcDbEntity
100
AcDbLine
10
183.744503
20
-56.325618
30
0.0
11
179.398728
21
-59.241960
31
0.0
0
LINE
8
Layer
62
4
5
102
100
AcDbEntity
100
AcDbLine
10
179.398728
20
-59.241960
30
0.0
11
174.121713
21
-62.981017
31
0.0
0
LINE
8
Layer
62
4
5
103
100
AcDbEntity
100
AcDbLine
10
174.121713
20
-62.981017
30
0.0
11
168.379077
21
-67.344431
31
0.0
0
LINE
8
Layer
62
4
5
104
100
AcDbEntity
100
AcDbLine
10
168.379077
20
-67.344431
30
0.0
11
162.636437
21
-72.133842
31
0.0
0
LINE
8
Layer
62
4
5
105
100
AcDbEntity
100
AcDbLine
10
162.636437
20
-72.133842
30
0.0
11
159.910621
21
-74.626310
31
0.0
0
LINE
8
Layer
62
4
5
106
100
AcDbEntity
100
AcDbLine
10
159.910621
20
-74.626310
30
0.0
11
157.359410
21
-77.150892
31
0.0
0
LINE
8
Layer
62
4
5
107
100
AcDbEntity
100
AcDbLine
10
157.359410
20
-77.150892
30
0.0
11
155.041007
21
-79.682795
31
0.0
0
LINE
8
Layer
62
4
5
108
100
AcDbEntity
100
AcDbLine
10
155.041007
20
-79.682795
30
0.0
11
153.013615
21
-82.197222
31
0.0
0
LINE
8
Layer
62
4
5
109
100
AcDbEntity
100
AcDbLine
10
153.013615
20
-82.197222
30
0.0
11
151.536801
21
-80.076644
31
0.0
0
LINE
8
Layer
62
4
5
10a
100
AcDbEntity
100
AcDbLine
10
151.536801
20
-80.076644
30
0.0
11
149.827569
21
-78.046627
31
0.0
0
LINE
8
Layer
62
4
5
10b
100
AcDbEntity
100
AcDbLine
10
149.827569
20
-78.046627
30
0.0
11
147.899252
21
-76.106654
31
0.0
0
LINE
8
Layer
62
4
5
10c
100
AcDbEntity
100
AcDbLine
10
147.899252
20
-76.106654
30
0.0
11
145.765186
21
-74.256206
31
0.0
0
LINE
8
Layer
62
4
5
10d
100
AcDbEntity
100
AcDbLine
10
145.765186
20
-74.256206
30
0.0
11
143.438707
21
-72.494768
31
0.0
0
LINE
8
Layer
62
4
5
10e
100
AcDbEntity
100
AcDbLine
10
143.438707
20
-72.494768
30
0.0
11
140.933148
21
-70.821822
31
0.0
0
LINE
8
Layer
62
4
5
10f
100
AcDbEntity
100
AcDbLine
10
140.933148
20
-70.821822
30
0.0
11
138.261844
21
-69.236850
31
0.0
0
LINE
8
Layer
62
4
5
110
100
AcDbEntity
100
AcDbLine
10
138.261844
20
-69.236850
30
0.0
11
135.438132
21
-67.739336
31
0.0
0
LINE
8
Layer
62
4
5
111
100
AcDbEntity
100
AcDbLine
10
135.438132
20
-67.739336
30
0.0
11
129.386819
21
-65.004610
31
0.0
0
LINE
8
Layer
62
4
5
112
100
AcDbEntity
100
AcDbLine
10
129.386819
20
-65.004610
30
0.0
11
122.885887
21
-62.613507
31
0.0
0
LINE
8
Layer
62
4
5
113
100
AcDbEntity
100
AcDbLine
10
122.885887
20
-62.613507
30
0.0
11
116.042018
21
-60.561889
31
0.0
0
LINE
8
Layer
62
4
5
114
100
AcDbEntity
100
AcDbLine
10
116.042018
20
-60.561889
30
0.0
11
108.961889
21
-58.845618
31
0.0
0
LINE
8
Layer
62
4
5
115
100
AcDbEntity
100
AcDbLine
10
108.961889
20
-58.845618
30
0.0
11
101.752182
21
-57.460555
31
0.0
0
LINE
8
Layer
62
4
5
116
100
AcDbEntity
100
AcDbLine
10
101.752182
20
-57.460555
30
0.0
11
94.519574
21
-56.402564
31
0.0
0
LINE
8
Layer
62
4
5
117
100
AcDbEntity
100
AcDbLine
10
94.519574
20
-56.402564
30
0.0
11
87.370746
21
-55.667506
31
0.0
0
LINE
8
Layer
62
4
5
118
100
AcDbEntity
100
AcDbLine
10
87.370746
20
-55.667506
30
0.0
11
80.412378
21
-55.251244
31
0.0
0
LINE
8
Layer
62
4
5
119
100
AcDbEntity
100
AcDbLine
10
80.412378
20
-55.251244
30
0.0
11
73.751148
21
-55.149639
31
0.0
0
LINE
8
Layer
62
4
5
11a
100
AcDbEntity
100
AcDbLine
10
73.751148
20
-55.149639
30
0.0
11
67.493737
21
-55.358553
31
0.0
0
LINE
8
Layer
62
4
5
11b
100
AcDbEntity
100
AcDbLine
10
67.493737
20
-55.358553
30
0.0
11
61.746823
21
-55.873849
31
0.0
0
LINE
8
Layer
62
4
5
11c
100
AcDbEntity
100
AcDbLine
10
61.746823
20
-55.873849
30
0.0
11
56.617087
21
-56.691389
31
0.0
0
LINE
8
Layer
62
4
5
11d
100
AcDbEntity
100
AcDbLine
10
56.617087
20
-56.691389
30
0.0
11
53.163878
21
-57.863898
31
0.0
0
LINE
8
Layer
62
4
5
11e
100
AcDbEntity
100
AcDbLine
10
53.163878
20
-57.863898
30
0.0
11
49.402923
21
-59.279425
31
0.0
0
LINE
8
Layer
62
4
5
11f
100
AcDbEntity
100
AcDbLine
10
49.402923
20
-59.279425
30
0.0
11
44.779562
21
-61.203261
31
0.0
0
LINE
8
Layer
62
4
5
120
100
AcDbEntity
100
AcDbLine
10
44.779562
20
-61.203261
30
0.0
11
39.664164
21
-63.601998
31
0.0
0
LINE
8
Layer
62
4
5
121
100
AcDbEntity
100
AcDbLine
10
39.664164
20
-63.601998
30
0.0
11
34.427102
21
-66.442233
31
0.0
0
LINE
8
Layer
62
4
5
122
100
AcDbEntity
100
AcDbLine
10
34.427102
20
-66.442233
30
0.0
11
29.438744
21
-69.690558
31
0.0
0
LINE
8
Layer
62
4
5
123
100
AcDbEntity
100
AcDbLine
10
29.438744
20
-69.690558
30
0.0
11
27.153570
21
-71.457315
31
0.0
0
LINE
8
Layer
62
4
5
124
100
AcDbEntity
100
AcDbLine
10
27.153570
20
-71.457315
30
0.0
11
25.069462
21
-73.313568
31
0.0
0
LINE
8
Layer
62
4
5
125
100
AcDbEntity
100
AcDbLine
10
25.069462
20
-73.313568
30
0.0
11
23.232715
21
-75.255141
31
0.0
0
LINE
8
Layer
62
4
5
126
100
AcDbEntity
100
AcDbLine
10
23.232715
20
-75.255141
30
0.0
11
21.689626
21
-77.277858
31
0.0
0
LINE
8
Layer
62
4
5
127
100
AcDbEntity
100
AcDbLine
10
21.689626
20
-77.277858
30
0.0
11
20.486491
21
-79.377543
31
0.0
0
LINE
8
Layer
62
4
5
128
100
AcDbEntity
100
AcDbLine
10
20.486491
20
-79.377543
30
0.0
11
19.669607
21
-81.550022
31
0.0
0
LINE
8
Layer
62
4
5
129
100
AcDbEntity
100
AcDbLine
10
19.669607
20
-81.550022
30
0.0
11
19.285270
21
-83.791117
31
0.0
0
LINE
8
Layer
62
4
5
12a
100
AcDbEntity
100
AcDbLine
10
19.285270
20
-83.791117
30
0.0
11
19.379775
21
-86.096654
31
0.0
0
LINE
8
Layer
62
4
5
12b
100
AcDbEntity
100
AcDbLine
10
19.379775
20
-86.096654
30
0.0
11
19.999420
21
-88.462456
31
0.0
0
LINE
8
Layer
62
4
5
12c
100
AcDbEntity
100
AcDbLine
10
19.999420
20
-88.462456
30
0.0
11
21.190501
21
-90.884348
31
0.0
0
LINE
8
Layer
62
4
5
12d
100
AcDbEntity
100
AcDbLine
10
21.190501
20
-90.884348
30
0.0
11
22.999314
21
-93.358155
31
0.0
0
LINE
8
Layer
62
4
5
12e
100
AcDbEntity
100
AcDbLine
10
22.999314
20
-93.358155
30
0.0
11
25.472155
21
-95.879700
31
0.0
0
LINE
8
Layer
62
4
5
12f
100
AcDbEntity
100
AcDbLine
10
25.472155
20
-95.879700
30
0.0
11
28.655321
21
-98.444807
31
0.0
0
LINE
8
Layer
62
4
5
130
100
AcDbEntity
100
AcDbLine
10
28.655321
20
-98.444807
30
0.0
11
32.595108
21
-101.049302
31
0.0
0
LINE
8
Layer
62
4
5
131
100
AcDbEntity
100
AcDbLine
10
32.595108
20
-101.049302
30
0.0
11
37.337812
21
-103.689009
31
0.0
0
LINE
8
Layer
62
4
5
132
100
AcDbEntity
100
AcDbLine
10
37.337812
20
-103.689009
30
0.0
11
42.929730
21
-106.359751
31
0.0
0
LINE
8
Layer
62
4
5
133
100
AcDbEntity
100
AcDbLine
10
42.929730
20
-106.359751
30
0.0
11
49.417158
21
-109.057353
31
0.0
0
LINE
8
Layer
62
4
5
134
100
AcDbEntity
100
AcDbLine
10
49.417158
20
-109.057353
30
0.0
11
56.846393
21
-111.777639
31
0.0
0
LINE
8
Layer
62
4
5
135
100
AcDbEntity
100
AcDbLine
10
56.846393
20
-111.777639
30
0.0
11
61.973630
21
-112.160524
31
0.0
0
LINE
8
Layer
62
4
5
136
100
AcDbEntity
100
AcDbLine
10
61.973630
20
-112.160524
30
0.0
11
67.800099
21
-112.408542
31
0.0
0
LINE
8
Layer
62
4
5
137
100
AcDbEntity
100
AcDbLine
10
67.800099
20
-112.408542
30
0.0
11
74.202822
21
-112.497728
31
0.0
0
LINE
8
Layer
62
4
5
138
100
AcDbEntity
100
AcDbLine
10
74.202822
20
-112.497728
30
0.0
11
81.058820
21
-112.404120
31
0.0
0
LINE
8
Layer
62
4
5
139
100
AcDbEntity
100
AcDbLine
10
81.058820
20
-112.404120
30
0.0
11
88.245113
21
-112.103755
31
0.0
0
LINE
8
Layer
62
4
5
13a
100
AcDbEntity
100
AcDbLine
10
88.245113
20
-112.103755
30
0.0
11
95.638725
21
-111.572669
31
0.0
0
LINE
8
Layer
62
4
5
13b
100
AcDbEntity
100
AcDbLine
10
95.638725
20
-111.572669
30
0.0
11
103.116675
21
-110.786899
31
0.0
0
LINE
8
Layer
62
4
5
13c
100
AcDbEntity
100
AcDbLine
10
103.116675
20
-110.786899
30
0.0
11
110.555986
21
-109.722483
31
0.0
0
LINE
8
Layer
62
4
5
13d
100
AcDbEntity
100
AcDbLine
10
110.555986
20
-109.722483
30
0.0
11
117.833679
21
-108.355456
31
0.0
0
LINE
8
Layer
62
4
5
13e
100
AcDbEntity
100
AcDbLine
10
117.833679
20
-108.355456
30
0.0
11
124.826775
21
-106.661856
31
0.0
0
LINE
8
Layer
62
4
5
13f
100
AcDbEntity
100
AcDbLine
10
124.826775
20
-106.661856
30
0.0
11
131.412295
21
-104.617720
31
0.0
0
LINE
8
Layer
62
4
5
140
100
AcDbEntity
100
AcDbLine
10
131.412295
20
-104.617720
30
0.0
11
137.467262
21
-102.199083
31
0.0
0
LINE
8
Layer
62
4
5
141
100
AcDbEntity
100
AcDbLine
10
137.467262
20
-102.199083
30
0.0
11
140.257357
21
-100.841839
31
0.0
0
LINE
8
Layer
62
4
5
142
100
AcDbEntity
100
AcDbLine
10
140.257357
20
-100.841839
30
0.0
11
142.868696
21
-99.381984
31
0.0
0
LINE
8
Layer
62
4
5
143
100
AcDbEntity
100
AcDbLine
10
142.868696
20
-99.381984
30
0.0
11
145.285908
21
-97.816523
31
0.0
0
LINE
8
Layer
62
4
5
144
100
AcDbEntity
100
AcDbLine
10
145.285908
20
-97.816523
30
0.0
11
147.493619
21
-96.142459
31
0.0
0
LINE
8
Layer
62
4
5
145
100
AcDbEntity
100
AcDbLine
10
147.493619
20
-96.142459
30
0.0
11
149.476458
21
-94.356798
31
0.0
0
LINE
8
Layer
62
4
5
146
100
AcDbEntity
100
AcDbLine
10
149.476458
20
-94.356798
30
0.0
11
151.219053
21
-92.456545
31
0.0
0
LINE
8
Layer
62
4
5
147
100
AcDbEntity
100
AcDbLine
10
151.219053
20
-92.456545
30
0.0
11
152.706030
21
-90.438703
31
0.0
0
LINE
8
Layer
62
4
5
148
100
AcDbEntity
100
AcDbLine
10
152.706030
20
-90.438703
30
0.0
11
153.922018
21
-88.300278
31
0.0
0
LINE
8
Layer
62
4
5
149
100
AcDbEntity
100
AcDbLine
10
153.922018
20
-88.300278
30
0.0
11
156.958274
21
-91.604786
31
0.0
0
LINE
8
Layer
62
4
5
14a
100
AcDbEntity
100
AcDbLine
10
156.958274
20
-91.604786
30
0.0
11
160.408541
21
-95.120481
31
0.0
0
LINE
8
Layer
62
4
5
14b
100
AcDbEntity
100
AcDbLine
10
160.408541
20
-95.120481
30
0.0
11
164.840188
21
-99.331859
31
0.0
0
LINE
8
Layer
62
4
5
14c
100
AcDbEntity
100
AcDbLine
10
164.840188
20
-99.331859
30
0.0
11
170.023179
21
-103.828959
31
0.0
0
LINE
8
Layer
62
4
5
14d
100
AcDbEntity
100
AcDbLine
10
170.023179
20
-103.828959
30
0.0
11
175.727479
21
-108.201822
31
0.0
0
LINE
8
Layer
62
4
5
14e
100
AcDbEntity
100
AcDbLine
10
175.727479
20
-108.201822
30
0.0
11
178.703234
21
-110.213553
31
0.0
0
LINE
8
Layer
62
4
5
14f
100
AcDbEntity
100
AcDbLine
10
178.703234
20
-110.213553
30
0.0
11
181.723052
21
-112.040489
31
0.0
0
LINE
8
Layer
62
4
5
150
100
AcDbEntity
100
AcDbLine
10
181.723052
20
-112.040489
30
0.0
11
184.758181
21
-113.631386
31
0.0
0
LINE
8
Layer
62
4
5
151
100
AcDbEntity
100
AcDbLine
10
184.758181
20
-113.631386
30
0.0
11
187.779865
21
-114.935000
31
0.0
0
LINE
8
Layer
62
4
5
152
100
AcDbEntity
100
AcDbLine
10
187.779865
20
-114.935000
30
0.0
11
187.498071
21
-111.636941
31
0.0
0
LINE
8
Layer
62
4
5
153
100
AcDbEntity
100
AcDbLine
10
187.498071
20
-111.636941
30
0.0
11
187.018751
21
-108.042138
31
0.0
0
LINE
8
Layer
62
4
5
154
100
AcDbEntity
100
AcDbLine
10
187.018751
20
-108.042138
30
0.0
11
186.200857
21
-103.619284
31
0.0
0
LINE
8
Layer
62
4
5
155
100
AcDbEntity
100
AcDbLine
10
186.200857
20
-103.619284
30
0.0
11
184.959671
21
-98.720226
31
0.0
0
LINE
8
Layer
62
4
5
156
100
AcDbEntity
100
AcDbLine
10
184.959671
20
-98.720226
30
0.0
11
183.210474
21
-93.696812
31
0.0
0
LINE
8
Layer
62
4
5
157
100
AcDbEntity
100
AcDbLine
10
183.210474
20
-93.696812
30
0.0
11
182.118896
21
-91.248424
31
0.0
0
LINE
8
Layer
62
4
5
158
100
AcDbEntity
100
AcDbLine
10
182.118896
20
-91.248424
30
0.0
11
180.868546
21
-88.900889
31
0.0
0
LINE
8
Layer
62
4
5
159
100
AcDbEntity
100
AcDbLine
10
180.868546
20
-88.900889
30
0.0
11
179.448834
21
-86.698190
31
0.0
0
LINE
8
Layer
62
4
5
15a
100
AcDbEntity
100
AcDbLine
10
179.448834
20
-86.698190
30
0.0
11
177.849170
21
-84.684306
31
0.0
0
LINE
8
Layer
62
4
5
15b
100
AcDbEntity
100
AcDbLine
10
177.849170
20
-84.684306
30
0.0
11
179.337348
21
-81.915077
31
0.0
0
LINE
8
Layer
62
4
5
15c
100
AcDbEntity
100
AcDbLine
10
179.337348
20
-81.915077
30
0.0
11
180.872254
21
-78.767085
31
0.0
0
LINE
8
Layer
62
4
5
15d
100
AcDbEntity
100
AcDbLine
10
180.872254
20
-78.767085
30
0.0
11
182.645201
21
-74.722213
31
0.0
0
LINE
8
Layer
62
4
5
15e
100
AcDbEntity
100
AcDbLine
10
182.645201
20
-74.722213
30
0.0
11
184.439313
21
-69.989491
31
0.0
0
LINE
8
Layer
62
4
5
15f
100
AcDbEntity
100
AcDbLine
10
184.439313
20
-69.989491
30
0.0
11
186.037713
21
-64.777947
31
0.0
0
LINE
8
Layer
62
4
5
160
100
AcDbEntity
100
AcDbLine
10
186.037713
20
-64.777947
30
0.0
11
187.223522
21
-59.296612
31
0.0
0
LINE
8
Layer
62
4
5
161
100
AcDbEntity
100
AcDbLine
10
187.223522
20
-59.296612
30
0.0
11
187.593932
21
-56.520094
31
0.0
0
LINE
8
Layer
62
4
5
162
100
AcDbEntity
100
AcDbLine
10
187.593932
20
-56.520094
30
0.0
11
187.779865
21
-53.754514
31
0.0
0
LINE
8
Layer
62
4
5
163
100
AcDbEntity
100
AcDbLine
10
187.779865
20
-53.754514
30
0.0
11
187.779865
21
-53.754514
31
0.0
0
LINE
8
Layer
62
4
5
164
100
AcDbEntity
100
AcDbLine
10
47.047990
20
-65.299167
30
0.0
11
48.211236
21
-65.416614
31
0.0
0
LINE
8
Layer
62
4
5
165
100
AcDbEntity
100
AcDbLine
10
48.211236
20
-65.416614
30
0.0
11
49.294313
21
-65.753420
31
0.0
0
LINE
8
Layer
62
4
5
166
100
AcDbEntity
100
AcDbLine
10
49.294313
20
-65.753420
30
0.0
11
50.274126
21
-66.286283
31
0.0
0
LINE
8
Layer
62
4
5
167
100
AcDbEntity
100
AcDbLine
10
50.274126
20
-66.286283
30
0.0
11
51.127580
21
-66.991903
31
0.0
0
LINE
8
Layer
62
4
5
168
100
AcDbEntity
100
AcDbLine
10
51.127580
20
-66.991903
30
0.0
11
51.831580
21
-67.846976
31
0.0
0
LINE
8
Layer
62
4
5
169
100
AcDbEntity
100
AcDbLine
10
51.831580
20
-67.846976
30
0.0
11
52.363032
21
-68.828202
31
0.0
0
LINE
8
Layer
62
4
5
16a
100
AcDbEntity
100
AcDbLine
10
52.363032
20
-68.828202
30
0.0
11
52.698839
21
-69.912278
31
0.0
0
LINE
8
Layer
62
4
5
16b
100
AcDbEntity
100
AcDbLine
10
52.698839
20
-69.912278
30
0.0
11
52.815907
21
-71.075903
31
0.0
0
LINE
8
Layer
62
4
5
16c
100
AcDbEntity
100
AcDbLine
10
52.815907
20
-71.075903
30
0.0
11
52.698839
21
-72.239149
31
0.0
0
LINE
8
Layer
62
4
5
16d
100
AcDbEntity
100
AcDbLine
10
52.698839
20
-72.239149
30
0.0
11
52.363032
21
-73.322226
31
0.0
0
LINE
8
Layer
62
4
5
16e
100
AcDbEntity
100
AcDbLine
10
52.363032
20
-73.322226
30
0.0
11
51.831580
21
-74.302039
31
0.0
0
LINE
8
Layer
62
4
5
16f
100
AcDbEntity
100
AcDbLine
10
51.831580
20
-74.302039
30
0.0
11
51.127580
21
-75.155493
31
0.0
0
LINE
8
Layer
62
4
5
170
100
AcDbEntity
100
AcDbLine
10
51.127580
20
-75.155493
30
0.0
11
50.274126
21
-75.859493
31
0.0
0
LINE
8
Layer
62
4
5
171
100
AcDbEntity
100
AcDbLine
10
50.274126
20
-75.859493
30
0.0
11
49.294313
21
-76.390944
31
0.0
0
LINE
8
Layer
62
4
5
172
100
AcDbEntity
100
AcDbLine
10
49.294313
20
-76.390944
30
0.0
11
48.211236
21
-76.726752
31
0.0
0
LINE
8
Layer
62
4
5
173
100
AcDbEntity
100
AcDbLine
10
48.211236
20
-76.726752
30
0.0
11
47.047990
21
-76.843819
31
0.0
0
LINE
8
Layer
62
4
5
174
100
AcDbEntity
100
AcDbLine
10
47.047990
20
-76.843819
30
0.0
11
45.884365
21
-76.726752
31
0.0
0
LINE
8
Layer
62
4
5
175
100
AcDbEntity
100
AcDbLine
10
45.884365
20
-76.726752
30
0.0
11
44.800289
21
-76.390944
31
0.0
0
LINE
8
Layer
62
4
5
176
100
AcDbEntity
100
AcDbLine
10
44.800289
20
-76.390944
30
0.0
11
43.819063
21
-75.859493
31
0.0
0
LINE
8
Layer
62
4
5
177
100
AcDbEntity
100
AcDbLine
10
43.819063
20
-75.859493
30
0.0
11
42.963990
21
-75.155493
31
0.0
0
LINE
8
Layer
62
4
5
178
100
AcDbEntity
100
AcDbLine
10
42.963990
20
-75.155493
30
0.0
11
42.258370
21
-74.302039
31
0.0
0
LINE
8
Layer
62
4
5
179
100
AcDbEntity
100
AcDbLine
10
42.258370
20
-74.302039
30
0.0
11
41.725507
21
-73.322226
31
0.0
0
LINE
8
Layer
62
4
5
17a
100
AcDbEntity
100
AcDbLine
10
41.725507
20
-73.322226
30
0.0
11
41.388701
21
-72.239149
31
0.0
0
LINE
8
Layer
62
4
5
17b
100
AcDbEntity
100
AcDbLine
10
41.388701
20
-72.239149
30
0.0
11
41.271254
21
-71.075903
31
0.0
0
LINE
8
Layer
62
4
5
17c
100
AcDbEntity
100
AcDbLine
10
41.271254
20
-71.075903
30
0.0
11
41.388701
21
-69.912278
31
0.0
0
LINE
8
Layer
62
4
5
17d
100
AcDbEntity
100
AcDbLine
10
41.388701
20
-69.912278
30
0.0
11
41.725507
21
-68.828202
31
0.0
0
LINE
8
Layer
62
4
5
17e
100
AcDbEntity
100
AcDbLine
10
41.725507
20
-68.828202
30
0.0
11
42.258370
21
-67.846976
31
0.0
0
LINE
8
Layer
62
4
5
17f
100
AcDbEntity
100
AcDbLine
10
42.258370
20
-67.846976
30
0.0
11
42.963990
21
-66.991903
31
0.0
0
LINE
8
Layer
62
4
5
180
100
AcDbEntity
100
AcDbLine
10
42.963990
20
-66.991903
30
0.0
11
43.819063
21
-66.286283
31
0.0
0
LINE
8
Layer
62
4
5
181
100
AcDbEntity
100
AcDbLine
10
43.819063
20
-66.286283
30
0.0
11
44.800289
21
-65.753420
31
0.0
0
LINE
8
Layer
62
4
5
182
100
AcDbEntity
100
AcDbLine
10
44.800289
20
-65.753420
30
0.0
11
45.884365
21
-65.416614
31
0.0
0
LINE
8
Layer
62
4
5
183
100
AcDbEntity
100
AcDbLine
10
45.884365
20
-65.416614
30
0.0
11
47.047990
21
-65.299167
31
0.0
0
LINE
8
Layer
62
4
5
184
100
AcDbEntity
100
AcDbLine
10
47.047990
20
-65.299167
30
0.0
11
47.047990
21
-65.299167
31
0.0
  0
ENDSEC
  0
SECTION
  2
OBJECTS
  0
DICTIONARY
  5
C
330
0
100
AcDbDictionary
  3
ACAD_GROUP
350
D
  3
ACAD_MLINESTYLE
350
17
  0
DICTIONARY
  5
D
330
C
100
AcDbDictionary
  0
DICTIONARY
  5
1A
330
C
100
AcDbDictionary
  0
DICTIONARY
  5
17
330
C
100
AcDbDictionary
  3
STANDARD
350
18
  0
DICTIONARY
  5
19
330
C
100
AcDbDictionary
  0
ENDSEC
  0
EOF
