solid Default
  facet normal -1.000000e+00 0.000000e+00 0.000000e+00
    outer loop
      vertex -3.750000e+01 3.400000e+01 3.000000e+00
      vertex -3.750000e+01 3.750000e+01 0.000000e+00
      vertex -3.750000e+01 -3.400000e+01 3.000000e+00
    endloop
  endfacet
  facet normal -1.000000e+00 0.000000e+00 0.000000e+00
    outer loop
      vertex -3.750000e+01 -3.750000e+01 0.000000e+00
      vertex -3.750000e+01 -3.750000e+01 2.300000e+01
      vertex -3.750000e+01 -3.400000e+01 3.000000e+00
    endloop
  endfacet
  facet normal -1.000000e+00 0.000000e+00 0.000000e+00
    outer loop
      vertex -3.750000e+01 -3.750000e+01 0.000000e+00
      vertex -3.750000e+01 -3.400000e+01 3.000000e+00
      vertex -3.750000e+01 3.750000e+01 0.000000e+00
    endloop
  endfacet
  facet normal -1.000000e+00 0.000000e+00 0.000000e+00
    outer loop
      vertex -3.750000e+01 3.750000e+01 0.000000e+00
      vertex -3.750000e+01 3.400000e+01 3.000000e+00
      vertex -3.750000e+01 3.400000e+01 2.300000e+01
    endloop
  endfacet
  facet normal -1.000000e+00 0.000000e+00 0.000000e+00
    outer loop
      vertex -3.750000e+01 3.750000e+01 0.000000e+00
      vertex -3.750000e+01 3.400000e+01 2.300000e+01
      vertex -3.750000e+01 3.750000e+01 2.300000e+01
    endloop
  endfacet
  facet normal -1.000000e+00 0.000000e+00 0.000000e+00
    outer loop
      vertex -3.750000e+01 -3.400000e+01 3.000000e+00
      vertex -3.750000e+01 -3.750000e+01 2.300000e+01
      vertex -3.750000e+01 -3.400000e+01 2.300000e+01
    endloop
  endfacet
  facet normal 0.000000e+00 -1.000000e+00 0.000000e+00
    outer loop
      vertex -3.750000e+01 -3.750000e+01 2.300000e+01
      vertex -3.750000e+01 -3.750000e+01 0.000000e+00
      vertex 3.750000e+01 -3.750000e+01 0.000000e+00
    endloop
  endfacet
  facet normal 0.000000e+00 -1.000000e+00 0.000000e+00
    outer loop
      vertex 3.750000e+01 -3.750000e+01 2.300000e+01
      vertex -3.750000e+01 -3.750000e+01 2.300000e+01
      vertex 3.750000e+01 -3.750000e+01 0.000000e+00
    endloop
  endfacet
  facet normal -0.000000e+00 -0.000000e+00 -1.000000e+00
    outer loop
      vertex -3.750000e+01 -3.750000e+01 0.000000e+00
      vertex -3.750000e+01 3.750000e+01 0.000000e+00
      vertex 3.750000e+01 -3.750000e+01 0.000000e+00
    endloop
  endfacet
  facet normal 0.000000e+00 0.000000e+00 -1.000000e+00
    outer loop
      vertex 3.750000e+01 -3.750000e+01 0.000000e+00
      vertex -3.750000e+01 3.750000e+01 0.000000e+00
      vertex 3.750000e+01 3.750000e+01 0.000000e+00
    endloop
  endfacet
  facet normal 0.000000e+00 1.000000e+00 0.000000e+00
    outer loop
      vertex -3.750000e+01 3.750000e+01 0.000000e+00
      vertex -3.750000e+01 3.750000e+01 2.300000e+01
      vertex 3.750000e+01 3.750000e+01 0.000000e+00
    endloop
  endfacet
  facet normal 0.000000e+00 1.000000e+00 0.000000e+00
    outer loop
      vertex 3.750000e+01 3.750000e+01 0.000000e+00
      vertex -3.750000e+01 3.750000e+01 2.300000e+01
      vertex 3.750000e+01 3.750000e+01 2.300000e+01
    endloop
  endfacet
  facet normal 0.000000e+00 0.000000e+00 1.000000e+00
    outer loop
      vertex -3.750000e+01 -3.400000e+01 2.300000e+01
      vertex -3.750000e+01 -3.750000e+01 2.300000e+01
      vertex 3.750000e+01 -3.750000e+01 2.300000e+01
    endloop
  endfacet
  facet normal 0.000000e+00 0.000000e+00 1.000000e+00
    outer loop
      vertex 3.450000e+01 -3.400000e+01 2.300000e+01
      vertex -3.750000e+01 -3.400000e+01 2.300000e+01
      vertex 3.750000e+01 -3.750000e+01 2.300000e+01
    endloop
  endfacet
  facet normal 0.000000e+00 0.000000e+00 1.000000e+00
    outer loop
      vertex -3.750000e+01 3.750000e+01 2.300000e+01
      vertex -3.750000e+01 3.400000e+01 2.300000e+01
      vertex 3.750000e+01 3.750000e+01 2.300000e+01
    endloop
  endfacet
  facet normal 0.000000e+00 0.000000e+00 1.000000e+00
    outer loop
      vertex 3.750000e+01 3.750000e+01 2.300000e+01
      vertex 3.450000e+01 3.400000e+01 2.300000e+01
      vertex 3.750000e+01 -3.750000e+01 2.300000e+01
    endloop
  endfacet
  facet normal 0.000000e+00 0.000000e+00 1.000000e+00
    outer loop
      vertex 3.450000e+01 3.400000e+01 2.300000e+01
      vertex 3.450000e+01 -3.400000e+01 2.300000e+01
      vertex 3.750000e+01 -3.750000e+01 2.300000e+01
    endloop
  endfacet
  facet normal 0.000000e+00 0.000000e+00 1.000000e+00
    outer loop
      vertex -3.750000e+01 3.400000e+01 2.300000e+01
      vertex 3.450000e+01 3.400000e+01 2.300000e+01
      vertex 3.750000e+01 3.750000e+01 2.300000e+01
    endloop
  endfacet
  facet normal 0.000000e+00 -1.000000e+00 0.000000e+00
    outer loop
      vertex -3.450000e+01 3.400000e+01 9.000000e+00
      vertex -3.750000e+01 3.400000e+01 2.300000e+01
      vertex -3.450000e+01 3.400000e+01 6.000000e+00
    endloop
  endfacet
  facet normal 0.000000e+00 -1.000000e+00 0.000000e+00
    outer loop
      vertex 3.450000e+01 3.400000e+01 3.000000e+00
      vertex 3.450000e+01 3.400000e+01 6.000000e+00
      vertex -3.450000e+01 3.400000e+01 6.000000e+00
    endloop
  endfacet
  facet normal 0.000000e+00 -1.000000e+00 0.000000e+00
    outer loop
      vertex -3.750000e+01 3.400000e+01 3.000000e+00
      vertex 3.450000e+01 3.400000e+01 3.000000e+00
      vertex -3.450000e+01 3.400000e+01 6.000000e+00
    endloop
  endfacet
  facet normal 0.000000e+00 -1.000000e+00 0.000000e+00
    outer loop
      vertex 3.450000e+01 3.400000e+01 9.000000e+00
      vertex 3.450000e+01 3.400000e+01 2.300000e+01
      vertex -3.450000e+01 3.400000e+01 9.000000e+00
    endloop
  endfacet
  facet normal 0.000000e+00 -1.000000e+00 0.000000e+00
    outer loop
      vertex 3.450000e+01 3.400000e+01 2.300000e+01
      vertex -3.750000e+01 3.400000e+01 2.300000e+01
      vertex -3.450000e+01 3.400000e+01 9.000000e+00
    endloop
  endfacet
  facet normal 0.000000e+00 -1.000000e+00 0.000000e+00
    outer loop
      vertex -3.750000e+01 3.400000e+01 2.300000e+01
      vertex -3.750000e+01 3.400000e+01 3.000000e+00
      vertex -3.450000e+01 3.400000e+01 6.000000e+00
    endloop
  endfacet
  facet normal 0.000000e+00 0.000000e+00 1.000000e+00
    outer loop
      vertex 3.450000e+01 -3.400000e+01 3.000000e+00
      vertex 3.450000e+01 3.400000e+01 3.000000e+00
      vertex -3.750000e+01 3.400000e+01 3.000000e+00
    endloop
  endfacet
  facet normal 0.000000e+00 0.000000e+00 1.000000e+00
    outer loop
      vertex -3.750000e+01 -3.400000e+01 3.000000e+00
      vertex 3.450000e+01 -3.400000e+01 3.000000e+00
      vertex -3.750000e+01 3.400000e+01 3.000000e+00
    endloop
  endfacet
  facet normal 0.000000e+00 1.000000e+00 0.000000e+00
    outer loop
      vertex 3.450000e+01 -3.400000e+01 2.300000e+01
      vertex 3.450000e+01 -3.400000e+01 9.000000e+00
      vertex -3.750000e+01 -3.400000e+01 2.300000e+01
    endloop
  endfacet
  facet normal 0.000000e+00 1.000000e+00 0.000000e+00
    outer loop
      vertex -3.750000e+01 -3.400000e+01 2.300000e+01
      vertex 3.450000e+01 -3.400000e+01 9.000000e+00
      vertex -3.450000e+01 -3.400000e+01 9.000000e+00
    endloop
  endfacet
  facet normal 0.000000e+00 1.000000e+00 0.000000e+00
    outer loop
      vertex -3.750000e+01 -3.400000e+01 2.300000e+01
      vertex -3.450000e+01 -3.400000e+01 9.000000e+00
      vertex -3.450000e+01 -3.400000e+01 6.000000e+00
    endloop
  endfacet
  facet normal 0.000000e+00 1.000000e+00 0.000000e+00
    outer loop
      vertex -3.450000e+01 -3.400000e+01 6.000000e+00
      vertex 3.450000e+01 -3.400000e+01 6.000000e+00
      vertex 3.450000e+01 -3.400000e+01 3.000000e+00
    endloop
  endfacet
  facet normal 0.000000e+00 1.000000e+00 0.000000e+00
    outer loop
      vertex -3.450000e+01 -3.400000e+01 6.000000e+00
      vertex 3.450000e+01 -3.400000e+01 3.000000e+00
      vertex -3.750000e+01 -3.400000e+01 3.000000e+00
    endloop
  endfacet
  facet normal 0.000000e+00 1.000000e+00 0.000000e+00
    outer loop
      vertex -3.450000e+01 -3.400000e+01 6.000000e+00
      vertex -3.750000e+01 -3.400000e+01 3.000000e+00
      vertex -3.750000e+01 -3.400000e+01 2.300000e+01
    endloop
  endfacet
  facet normal 1.000000e+00 0.000000e+00 0.000000e+00
    outer loop
      vertex 3.750000e+01 -2.250000e+01 1.260000e+01
      vertex 3.750000e+01 -3.750000e+01 0.000000e+00
      vertex 3.750000e+01 3.750000e+01 0.000000e+00
    endloop
  endfacet
  facet normal 1.000000e+00 0.000000e+00 0.000000e+00
    outer loop
      vertex 3.750000e+01 -7.500000e+00 1.260000e+01
      vertex 3.750000e+01 -2.250000e+01 1.260000e+01
      vertex 3.750000e+01 3.750000e+01 0.000000e+00
    endloop
  endfacet
  facet normal 1.000000e+00 0.000000e+00 0.000000e+00
    outer loop
      vertex 3.750000e+01 -3.750000e+01 2.300000e+01
      vertex 3.750000e+01 -3.750000e+01 0.000000e+00
      vertex 3.750000e+01 -2.250000e+01 1.260000e+01
    endloop
  endfacet
  facet normal 1.000000e+00 0.000000e+00 0.000000e+00
    outer loop
      vertex 3.750000e+01 3.750000e+01 2.300000e+01
      vertex 3.750000e+01 -3.750000e+01 2.300000e+01
      vertex 3.750000e+01 -2.250000e+01 2.060000e+01
    endloop
  endfacet
  facet normal 1.000000e+00 0.000000e+00 0.000000e+00
    outer loop
      vertex 3.750000e+01 3.750000e+01 2.300000e+01
      vertex 3.750000e+01 -2.250000e+01 2.060000e+01
      vertex 3.750000e+01 -7.500000e+00 2.060000e+01
    endloop
  endfacet
  facet normal 1.000000e+00 0.000000e+00 0.000000e+00
    outer loop
      vertex 3.750000e+01 7.500000e+00 1.260000e+01
      vertex 3.750000e+01 -7.500000e+00 1.260000e+01
      vertex 3.750000e+01 3.750000e+01 0.000000e+00
    endloop
  endfacet
  facet normal 1.000000e+00 0.000000e+00 0.000000e+00
    outer loop
      vertex 3.750000e+01 -7.500000e+00 2.060000e+01
      vertex 3.750000e+01 -7.500000e+00 1.260000e+01
      vertex 3.750000e+01 7.500000e+00 1.260000e+01
    endloop
  endfacet
  facet normal 1.000000e+00 0.000000e+00 0.000000e+00
    outer loop
      vertex 3.750000e+01 2.250000e+01 1.260000e+01
      vertex 3.750000e+01 7.500000e+00 1.260000e+01
      vertex 3.750000e+01 3.750000e+01 0.000000e+00
    endloop
  endfacet
  facet normal 1.000000e+00 0.000000e+00 0.000000e+00
    outer loop
      vertex 3.750000e+01 3.750000e+01 2.300000e+01
      vertex 3.750000e+01 -7.500000e+00 2.060000e+01
      vertex 3.750000e+01 7.500000e+00 2.060000e+01
    endloop
  endfacet
  facet normal 1.000000e+00 0.000000e+00 0.000000e+00
    outer loop
      vertex 3.750000e+01 3.750000e+01 2.300000e+01
      vertex 3.750000e+01 2.250000e+01 2.060000e+01
      vertex 3.750000e+01 3.750000e+01 0.000000e+00
    endloop
  endfacet
  facet normal 1.000000e+00 0.000000e+00 0.000000e+00
    outer loop
      vertex 3.750000e+01 3.750000e+01 2.300000e+01
      vertex 3.750000e+01 7.500000e+00 2.060000e+01
      vertex 3.750000e+01 2.250000e+01 2.060000e+01
    endloop
  endfacet
  facet normal 1.000000e+00 0.000000e+00 0.000000e+00
    outer loop
      vertex 3.750000e+01 2.250000e+01 2.060000e+01
      vertex 3.750000e+01 2.250000e+01 1.260000e+01
      vertex 3.750000e+01 3.750000e+01 0.000000e+00
    endloop
  endfacet
  facet normal 1.000000e+00 0.000000e+00 0.000000e+00
    outer loop
      vertex 3.750000e+01 7.500000e+00 1.260000e+01
      vertex 3.750000e+01 7.500000e+00 2.060000e+01
      vertex 3.750000e+01 -7.500000e+00 2.060000e+01
    endloop
  endfacet
  facet normal 1.000000e+00 0.000000e+00 0.000000e+00
    outer loop
      vertex 3.750000e+01 -2.250000e+01 1.260000e+01
      vertex 3.750000e+01 -2.250000e+01 2.060000e+01
      vertex 3.750000e+01 -3.750000e+01 2.300000e+01
    endloop
  endfacet
  facet normal -1.000000e+00 0.000000e+00 0.000000e+00
    outer loop
      vertex 3.450000e+01 -3.400000e+01 2.300000e+01
      vertex 3.450000e+01 -3.100000e+01 9.000000e+00
      vertex 3.450000e+01 -3.400000e+01 9.000000e+00
    endloop
  endfacet
  facet normal -1.000000e+00 0.000000e+00 0.000000e+00
    outer loop
      vertex 3.450000e+01 -2.250000e+01 1.260000e+01
      vertex 3.450000e+01 -3.100000e+01 9.000000e+00
      vertex 3.450000e+01 -3.400000e+01 2.300000e+01
    endloop
  endfacet
  facet normal -1.000000e+00 0.000000e+00 0.000000e+00
    outer loop
      vertex 3.450000e+01 7.500000e+00 2.060000e+01
      vertex 3.450000e+01 3.400000e+01 2.300000e+01
      vertex 3.450000e+01 2.250000e+01 2.060000e+01
    endloop
  endfacet
  facet normal -1.000000e+00 0.000000e+00 0.000000e+00
    outer loop
      vertex 3.450000e+01 3.100000e+01 9.000000e+00
      vertex 3.450000e+01 3.400000e+01 2.300000e+01
      vertex 3.450000e+01 3.400000e+01 9.000000e+00
    endloop
  endfacet
  facet normal -1.000000e+00 0.000000e+00 0.000000e+00
    outer loop
      vertex 3.450000e+01 2.250000e+01 1.260000e+01
      vertex 3.450000e+01 3.400000e+01 2.300000e+01
      vertex 3.450000e+01 3.100000e+01 9.000000e+00
    endloop
  endfacet
  facet normal -1.000000e+00 0.000000e+00 0.000000e+00
    outer loop
      vertex 3.450000e+01 -7.500000e+00 1.260000e+01
      vertex 3.450000e+01 -3.100000e+01 9.000000e+00
      vertex 3.450000e+01 -2.250000e+01 1.260000e+01
    endloop
  endfacet
  facet normal -1.000000e+00 0.000000e+00 0.000000e+00
    outer loop
      vertex 3.450000e+01 -3.100000e+01 6.000000e+00
      vertex 3.450000e+01 3.400000e+01 3.000000e+00
      vertex 3.450000e+01 -3.400000e+01 6.000000e+00
    endloop
  endfacet
  facet normal -1.000000e+00 0.000000e+00 0.000000e+00
    outer loop
      vertex 3.450000e+01 3.100000e+01 6.000000e+00
      vertex 3.450000e+01 3.400000e+01 6.000000e+00
      vertex 3.450000e+01 3.400000e+01 3.000000e+00
    endloop
  endfacet
  facet normal -1.000000e+00 0.000000e+00 0.000000e+00
    outer loop
      vertex 3.450000e+01 3.100000e+01 6.000000e+00
      vertex 3.450000e+01 3.400000e+01 3.000000e+00
      vertex 3.450000e+01 -3.100000e+01 6.000000e+00
    endloop
  endfacet
  facet normal -1.000000e+00 0.000000e+00 0.000000e+00
    outer loop
      vertex 3.450000e+01 3.400000e+01 3.000000e+00
      vertex 3.450000e+01 -3.400000e+01 3.000000e+00
      vertex 3.450000e+01 -3.400000e+01 6.000000e+00
    endloop
  endfacet
  facet normal -1.000000e+00 0.000000e+00 0.000000e+00
    outer loop
      vertex 3.450000e+01 -7.500000e+00 2.060000e+01
      vertex 3.450000e+01 7.500000e+00 2.060000e+01
      vertex 3.450000e+01 -7.500000e+00 1.260000e+01
    endloop
  endfacet
  facet normal -1.000000e+00 0.000000e+00 0.000000e+00
    outer loop
      vertex 3.450000e+01 -2.250000e+01 2.060000e+01
      vertex 3.450000e+01 -2.250000e+01 1.260000e+01
      vertex 3.450000e+01 -3.400000e+01 2.300000e+01
    endloop
  endfacet
  facet normal -1.000000e+00 0.000000e+00 0.000000e+00
    outer loop
      vertex 3.450000e+01 -3.100000e+01 6.000000e+00
      vertex 3.450000e+01 -3.100000e+01 9.000000e+00
      vertex 3.450000e+01 -7.500000e+00 1.260000e+01
    endloop
  endfacet
  facet normal -1.000000e+00 0.000000e+00 0.000000e+00
    outer loop
      vertex 3.450000e+01 7.500000e+00 1.260000e+01
      vertex 3.450000e+01 -3.100000e+01 6.000000e+00
      vertex 3.450000e+01 -7.500000e+00 1.260000e+01
    endloop
  endfacet
  facet normal -1.000000e+00 0.000000e+00 0.000000e+00
    outer loop
      vertex 3.450000e+01 3.400000e+01 2.300000e+01
      vertex 3.450000e+01 -7.500000e+00 2.060000e+01
      vertex 3.450000e+01 -3.400000e+01 2.300000e+01
    endloop
  endfacet
  facet normal -1.000000e+00 0.000000e+00 0.000000e+00
    outer loop
      vertex 3.450000e+01 -7.500000e+00 2.060000e+01
      vertex 3.450000e+01 -2.250000e+01 2.060000e+01
      vertex 3.450000e+01 -3.400000e+01 2.300000e+01
    endloop
  endfacet
  facet normal -1.000000e+00 0.000000e+00 0.000000e+00
    outer loop
      vertex 3.450000e+01 2.250000e+01 2.060000e+01
      vertex 3.450000e+01 3.400000e+01 2.300000e+01
      vertex 3.450000e+01 2.250000e+01 1.260000e+01
    endloop
  endfacet
  facet normal -1.000000e+00 0.000000e+00 0.000000e+00
    outer loop
      vertex 3.450000e+01 -3.100000e+01 6.000000e+00
      vertex 3.450000e+01 7.500000e+00 1.260000e+01
      vertex 3.450000e+01 3.100000e+01 9.000000e+00
    endloop
  endfacet
  facet normal -1.000000e+00 0.000000e+00 0.000000e+00
    outer loop
      vertex 3.450000e+01 7.500000e+00 1.260000e+01
      vertex 3.450000e+01 2.250000e+01 1.260000e+01
      vertex 3.450000e+01 3.100000e+01 9.000000e+00
    endloop
  endfacet
  facet normal -1.000000e+00 0.000000e+00 0.000000e+00
    outer loop
      vertex 3.450000e+01 7.500000e+00 1.260000e+01
      vertex 3.450000e+01 -7.500000e+00 1.260000e+01
      vertex 3.450000e+01 7.500000e+00 2.060000e+01
    endloop
  endfacet
  facet normal -1.000000e+00 0.000000e+00 0.000000e+00
    outer loop
      vertex 3.450000e+01 3.400000e+01 2.300000e+01
      vertex 3.450000e+01 7.500000e+00 2.060000e+01
      vertex 3.450000e+01 -7.500000e+00 2.060000e+01
    endloop
  endfacet
  facet normal -1.000000e+00 0.000000e+00 0.000000e+00
    outer loop
      vertex 3.450000e+01 3.100000e+01 6.000000e+00
      vertex 3.450000e+01 -3.100000e+01 6.000000e+00
      vertex 3.450000e+01 3.100000e+01 9.000000e+00
    endloop
  endfacet
  facet normal 0.000000e+00 0.000000e+00 1.000000e+00
    outer loop
      vertex -3.450000e+01 3.400000e+01 9.000000e+00
      vertex -3.450000e+01 3.100000e+01 9.000000e+00
      vertex 3.450000e+01 3.100000e+01 9.000000e+00
    endloop
  endfacet
  facet normal 0.000000e+00 0.000000e+00 1.000000e+00
    outer loop
      vertex 3.450000e+01 3.400000e+01 9.000000e+00
      vertex -3.450000e+01 3.400000e+01 9.000000e+00
      vertex 3.450000e+01 3.100000e+01 9.000000e+00
    endloop
  endfacet
  facet normal -1.000000e+00 -0.000000e+00 -0.000000e+00
    outer loop
      vertex -3.450000e+01 3.100000e+01 6.000000e+00
      vertex -3.450000e+01 3.100000e+01 9.000000e+00
      vertex -3.450000e+01 3.400000e+01 6.000000e+00
    endloop
  endfacet
  facet normal -1.000000e+00 0.000000e+00 0.000000e+00
    outer loop
      vertex -3.450000e+01 3.400000e+01 6.000000e+00
      vertex -3.450000e+01 3.100000e+01 9.000000e+00
      vertex -3.450000e+01 3.400000e+01 9.000000e+00
    endloop
  endfacet
  facet normal 0.000000e+00 0.000000e+00 -1.000000e+00
    outer loop
      vertex 3.450000e+01 3.400000e+01 6.000000e+00
      vertex 3.450000e+01 3.100000e+01 6.000000e+00
      vertex -3.450000e+01 3.400000e+01 6.000000e+00
    endloop
  endfacet
  facet normal 0.000000e+00 0.000000e+00 -1.000000e+00
    outer loop
      vertex -3.450000e+01 3.400000e+01 6.000000e+00
      vertex 3.450000e+01 3.100000e+01 6.000000e+00
      vertex -3.450000e+01 3.100000e+01 6.000000e+00
    endloop
  endfacet
  facet normal 0.000000e+00 0.000000e+00 -1.000000e+00
    outer loop
      vertex 3.450000e+01 -3.100000e+01 6.000000e+00
      vertex 3.450000e+01 -3.400000e+01 6.000000e+00
      vertex -3.450000e+01 -3.100000e+01 6.000000e+00
    endloop
  endfacet
  facet normal 0.000000e+00 0.000000e+00 -1.000000e+00
    outer loop
      vertex -3.450000e+01 -3.100000e+01 6.000000e+00
      vertex 3.450000e+01 -3.400000e+01 6.000000e+00
      vertex -3.450000e+01 -3.400000e+01 6.000000e+00
    endloop
  endfacet
  facet normal -1.000000e+00 -0.000000e+00 -0.000000e+00
    outer loop
      vertex -3.450000e+01 -3.400000e+01 6.000000e+00
      vertex -3.450000e+01 -3.400000e+01 9.000000e+00
      vertex -3.450000e+01 -3.100000e+01 6.000000e+00
    endloop
  endfacet
  facet normal -1.000000e+00 0.000000e+00 0.000000e+00
    outer loop
      vertex -3.450000e+01 -3.100000e+01 6.000000e+00
      vertex -3.450000e+01 -3.400000e+01 9.000000e+00
      vertex -3.450000e+01 -3.100000e+01 9.000000e+00
    endloop
  endfacet
  facet normal 0.000000e+00 0.000000e+00 1.000000e+00
    outer loop
      vertex -3.450000e+01 -3.100000e+01 9.000000e+00
      vertex -3.450000e+01 -3.400000e+01 9.000000e+00
      vertex 3.450000e+01 -3.400000e+01 9.000000e+00
    endloop
  endfacet
  facet normal 0.000000e+00 0.000000e+00 1.000000e+00
    outer loop
      vertex 3.450000e+01 -3.100000e+01 9.000000e+00
      vertex -3.450000e+01 -3.100000e+01 9.000000e+00
      vertex 3.450000e+01 -3.400000e+01 9.000000e+00
    endloop
  endfacet
  facet normal 0.000000e+00 0.000000e+00 1.000000e+00
    outer loop
      vertex 3.750000e+01 -2.250000e+01 1.260000e+01
      vertex 3.750000e+01 -7.500000e+00 1.260000e+01
      vertex 3.450000e+01 -7.500000e+00 1.260000e+01
    endloop
  endfacet
  facet normal 0.000000e+00 0.000000e+00 1.000000e+00
    outer loop
      vertex 3.450000e+01 -2.250000e+01 1.260000e+01
      vertex 3.750000e+01 -2.250000e+01 1.260000e+01
      vertex 3.450000e+01 -7.500000e+00 1.260000e+01
    endloop
  endfacet
  facet normal 0.000000e+00 1.000000e+00 0.000000e+00
    outer loop
      vertex 3.750000e+01 -2.250000e+01 2.060000e+01
      vertex 3.750000e+01 -2.250000e+01 1.260000e+01
      vertex 3.450000e+01 -2.250000e+01 2.060000e+01
    endloop
  endfacet
  facet normal 0.000000e+00 1.000000e+00 0.000000e+00
    outer loop
      vertex 3.450000e+01 -2.250000e+01 2.060000e+01
      vertex 3.750000e+01 -2.250000e+01 1.260000e+01
      vertex 3.450000e+01 -2.250000e+01 1.260000e+01
    endloop
  endfacet
  facet normal 0.000000e+00 -1.000000e+00 0.000000e+00
    outer loop
      vertex 3.750000e+01 -7.500000e+00 1.260000e+01
      vertex 3.750000e+01 -7.500000e+00 2.060000e+01
      vertex 3.450000e+01 -7.500000e+00 2.060000e+01
    endloop
  endfacet
  facet normal -0.000000e+00 -1.000000e+00 -0.000000e+00
    outer loop
      vertex 3.450000e+01 -7.500000e+00 1.260000e+01
      vertex 3.750000e+01 -7.500000e+00 1.260000e+01
      vertex 3.450000e+01 -7.500000e+00 2.060000e+01
    endloop
  endfacet
  facet normal 0.000000e+00 0.000000e+00 -1.000000e+00
    outer loop
      vertex 3.750000e+01 -7.500000e+00 2.060000e+01
      vertex 3.750000e+01 -2.250000e+01 2.060000e+01
      vertex 3.450000e+01 -7.500000e+00 2.060000e+01
    endloop
  endfacet
  facet normal 0.000000e+00 0.000000e+00 -1.000000e+00
    outer loop
      vertex 3.450000e+01 -7.500000e+00 2.060000e+01
      vertex 3.750000e+01 -2.250000e+01 2.060000e+01
      vertex 3.450000e+01 -2.250000e+01 2.060000e+01
    endloop
  endfacet
  facet normal 0.000000e+00 0.000000e+00 1.000000e+00
    outer loop
      vertex 3.750000e+01 7.500000e+00 1.260000e+01
      vertex 3.750000e+01 2.250000e+01 1.260000e+01
      vertex 3.450000e+01 2.250000e+01 1.260000e+01
    endloop
  endfacet
  facet normal 0.000000e+00 0.000000e+00 1.000000e+00
    outer loop
      vertex 3.450000e+01 7.500000e+00 1.260000e+01
      vertex 3.750000e+01 7.500000e+00 1.260000e+01
      vertex 3.450000e+01 2.250000e+01 1.260000e+01
    endloop
  endfacet
  facet normal 0.000000e+00 1.000000e+00 0.000000e+00
    outer loop
      vertex 3.750000e+01 7.500000e+00 2.060000e+01
      vertex 3.750000e+01 7.500000e+00 1.260000e+01
      vertex 3.450000e+01 7.500000e+00 2.060000e+01
    endloop
  endfacet
  facet normal 0.000000e+00 1.000000e+00 0.000000e+00
    outer loop
      vertex 3.450000e+01 7.500000e+00 2.060000e+01
      vertex 3.750000e+01 7.500000e+00 1.260000e+01
      vertex 3.450000e+01 7.500000e+00 1.260000e+01
    endloop
  endfacet
  facet normal 0.000000e+00 -1.000000e+00 0.000000e+00
    outer loop
      vertex 3.750000e+01 2.250000e+01 1.260000e+01
      vertex 3.750000e+01 2.250000e+01 2.060000e+01
      vertex 3.450000e+01 2.250000e+01 2.060000e+01
    endloop
  endfacet
  facet normal -0.000000e+00 -1.000000e+00 -0.000000e+00
    outer loop
      vertex 3.450000e+01 2.250000e+01 1.260000e+01
      vertex 3.750000e+01 2.250000e+01 1.260000e+01
      vertex 3.450000e+01 2.250000e+01 2.060000e+01
    endloop
  endfacet
  facet normal 0.000000e+00 0.000000e+00 -1.000000e+00
    outer loop
      vertex 3.750000e+01 2.250000e+01 2.060000e+01
      vertex 3.750000e+01 7.500000e+00 2.060000e+01
      vertex 3.450000e+01 2.250000e+01 2.060000e+01
    endloop
  endfacet
  facet normal 0.000000e+00 0.000000e+00 -1.000000e+00
    outer loop
      vertex 3.450000e+01 2.250000e+01 2.060000e+01
      vertex 3.750000e+01 7.500000e+00 2.060000e+01
      vertex 3.450000e+01 7.500000e+00 2.060000e+01
    endloop
  endfacet
  facet normal 0.000000e+00 -1.000000e+00 0.000000e+00
    outer loop
      vertex -3.450000e+01 3.100000e+01 9.000000e+00
      vertex -3.450000e+01 3.100000e+01 6.000000e+00
      vertex 3.450000e+01 3.100000e+01 6.000000e+00
    endloop
  endfacet
  facet normal 0.000000e+00 -1.000000e+00 0.000000e+00
    outer loop
      vertex 3.450000e+01 3.100000e+01 9.000000e+00
      vertex -3.450000e+01 3.100000e+01 9.000000e+00
      vertex 3.450000e+01 3.100000e+01 6.000000e+00
    endloop
  endfacet
  facet normal 0.000000e+00 1.000000e+00 0.000000e+00
    outer loop
      vertex -3.450000e+01 -3.100000e+01 6.000000e+00
      vertex -3.450000e+01 -3.100000e+01 9.000000e+00
      vertex 3.450000e+01 -3.100000e+01 6.000000e+00
    endloop
  endfacet
  facet normal 0.000000e+00 1.000000e+00 0.000000e+00
    outer loop
      vertex 3.450000e+01 -3.100000e+01 6.000000e+00
      vertex -3.450000e+01 -3.100000e+01 9.000000e+00
      vertex 3.450000e+01 -3.100000e+01 9.000000e+00
    endloop
  endfacet
  facet normal -1.000000e+00 -0.000000e+00 -0.000000e+00
    outer loop
      vertex -4.000000e+01 -4.000000e+01 0.000000e+00
      vertex -4.000000e+01 -4.000000e+01 5.000000e+00
      vertex -4.000000e+01 -3.100000e+01 0.000000e+00
    endloop
  endfacet
  facet normal -1.000000e+00 0.000000e+00 0.000000e+00
    outer loop
      vertex -4.000000e+01 -3.100000e+01 0.000000e+00
      vertex -4.000000e+01 -4.000000e+01 5.000000e+00
      vertex -4.000000e+01 -3.100000e+01 5.000000e+00
    endloop
  endfacet
  facet normal 0.000000e+00 -1.000000e+00 0.000000e+00
    outer loop
      vertex -4.000000e+01 -4.000000e+01 5.000000e+00
      vertex -4.000000e+01 -4.000000e+01 0.000000e+00
      vertex -3.100000e+01 -4.000000e+01 0.000000e+00
    endloop
  endfacet
  facet normal 0.000000e+00 -1.000000e+00 0.000000e+00
    outer loop
      vertex -3.100000e+01 -4.000000e+01 5.000000e+00
      vertex -4.000000e+01 -4.000000e+01 5.000000e+00
      vertex -3.100000e+01 -4.000000e+01 0.000000e+00
    endloop
  endfacet
  facet normal 0.000000e+00 0.000000e+00 -1.000000e+00
    outer loop
      vertex -3.100000e+01 -3.800000e+01 0.000000e+00
      vertex -3.100000e+01 -4.000000e+01 0.000000e+00
      vertex -3.800000e+01 -3.800000e+01 0.000000e+00
    endloop
  endfacet
  facet normal 0.000000e+00 0.000000e+00 -1.000000e+00
    outer loop
      vertex -4.000000e+01 -4.000000e+01 0.000000e+00
      vertex -4.000000e+01 -3.100000e+01 0.000000e+00
      vertex -3.800000e+01 -3.800000e+01 0.000000e+00
    endloop
  endfacet
  facet normal 0.000000e+00 0.000000e+00 -1.000000e+00
    outer loop
      vertex -4.000000e+01 -4.000000e+01 0.000000e+00
      vertex -3.800000e+01 -3.800000e+01 0.000000e+00
      vertex -3.100000e+01 -4.000000e+01 0.000000e+00
    endloop
  endfacet
  facet normal 0.000000e+00 0.000000e+00 -1.000000e+00
    outer loop
      vertex -3.800000e+01 -3.800000e+01 0.000000e+00
      vertex -4.000000e+01 -3.100000e+01 0.000000e+00
      vertex -3.800000e+01 -3.100000e+01 0.000000e+00
    endloop
  endfacet
  facet normal 0.000000e+00 1.000000e+00 0.000000e+00
    outer loop
      vertex -3.800000e+01 -3.100000e+01 5.000000e+00
      vertex -3.800000e+01 -3.100000e+01 0.000000e+00
      vertex -4.000000e+01 -3.100000e+01 5.000000e+00
    endloop
  endfacet
  facet normal 0.000000e+00 1.000000e+00 0.000000e+00
    outer loop
      vertex -4.000000e+01 -3.100000e+01 5.000000e+00
      vertex -3.800000e+01 -3.100000e+01 0.000000e+00
      vertex -4.000000e+01 -3.100000e+01 0.000000e+00
    endloop
  endfacet
  facet normal 0.000000e+00 0.000000e+00 1.000000e+00
    outer loop
      vertex -3.800000e+01 -3.800000e+01 5.000000e+00
      vertex -4.000000e+01 -4.000000e+01 5.000000e+00
      vertex -3.100000e+01 -4.000000e+01 5.000000e+00
    endloop
  endfacet
  facet normal 0.000000e+00 0.000000e+00 1.000000e+00
    outer loop
      vertex -3.800000e+01 -3.800000e+01 5.000000e+00
      vertex -3.800000e+01 -3.100000e+01 5.000000e+00
      vertex -4.000000e+01 -3.100000e+01 5.000000e+00
    endloop
  endfacet
  facet normal 0.000000e+00 0.000000e+00 1.000000e+00
    outer loop
      vertex -4.000000e+01 -3.100000e+01 5.000000e+00
      vertex -4.000000e+01 -4.000000e+01 5.000000e+00
      vertex -3.800000e+01 -3.800000e+01 5.000000e+00
    endloop
  endfacet
  facet normal 0.000000e+00 0.000000e+00 1.000000e+00
    outer loop
      vertex -3.100000e+01 -3.800000e+01 5.000000e+00
      vertex -3.800000e+01 -3.800000e+01 5.000000e+00
      vertex -3.100000e+01 -4.000000e+01 5.000000e+00
    endloop
  endfacet
  facet normal 1.000000e+00 0.000000e+00 0.000000e+00
    outer loop
      vertex -3.100000e+01 -3.800000e+01 0.000000e+00
      vertex -3.100000e+01 -3.800000e+01 5.000000e+00
      vertex -3.100000e+01 -4.000000e+01 5.000000e+00
    endloop
  endfacet
  facet normal 1.000000e+00 0.000000e+00 0.000000e+00
    outer loop
      vertex -3.100000e+01 -4.000000e+01 0.000000e+00
      vertex -3.100000e+01 -3.800000e+01 0.000000e+00
      vertex -3.100000e+01 -4.000000e+01 5.000000e+00
    endloop
  endfacet
  facet normal 0.000000e+00 1.000000e+00 0.000000e+00
    outer loop
      vertex -3.100000e+01 -3.800000e+01 5.000000e+00
      vertex -3.100000e+01 -3.800000e+01 0.000000e+00
      vertex -3.800000e+01 -3.800000e+01 5.000000e+00
    endloop
  endfacet
  facet normal 0.000000e+00 1.000000e+00 0.000000e+00
    outer loop
      vertex -3.800000e+01 -3.800000e+01 5.000000e+00
      vertex -3.100000e+01 -3.800000e+01 0.000000e+00
      vertex -3.800000e+01 -3.800000e+01 0.000000e+00
    endloop
  endfacet
  facet normal 1.000000e+00 0.000000e+00 0.000000e+00
    outer loop
      vertex -3.800000e+01 -3.100000e+01 0.000000e+00
      vertex -3.800000e+01 -3.100000e+01 5.000000e+00
      vertex -3.800000e+01 -3.800000e+01 5.000000e+00
    endloop
  endfacet
  facet normal 1.000000e+00 0.000000e+00 0.000000e+00
    outer loop
      vertex -3.800000e+01 -3.800000e+01 0.000000e+00
      vertex -3.800000e+01 -3.100000e+01 0.000000e+00
      vertex -3.800000e+01 -3.800000e+01 5.000000e+00
    endloop
  endfacet
  facet normal -0.000000e+00 -0.000000e+00 -1.000000e+00
    outer loop
      vertex 3.100000e+01 -4.000000e+01 0.000000e+00
      vertex 3.100000e+01 -3.800000e+01 0.000000e+00
      vertex 4.000000e+01 -4.000000e+01 0.000000e+00
    endloop
  endfacet
  facet normal 0.000000e+00 0.000000e+00 -1.000000e+00
    outer loop
      vertex 4.000000e+01 -4.000000e+01 0.000000e+00
      vertex 3.100000e+01 -3.800000e+01 0.000000e+00
      vertex 3.800000e+01 -3.800000e+01 0.000000e+00
    endloop
  endfacet
  facet normal 0.000000e+00 0.000000e+00 -1.000000e+00
    outer loop
      vertex 4.000000e+01 -4.000000e+01 0.000000e+00
      vertex 3.800000e+01 -3.800000e+01 0.000000e+00
      vertex 3.800000e+01 -3.100000e+01 0.000000e+00
    endloop
  endfacet
  facet normal 0.000000e+00 0.000000e+00 -1.000000e+00
    outer loop
      vertex 4.000000e+01 -4.000000e+01 0.000000e+00
      vertex 3.800000e+01 -3.100000e+01 0.000000e+00
      vertex 4.000000e+01 -3.100000e+01 0.000000e+00
    endloop
  endfacet
  facet normal -1.000000e+00 0.000000e+00 0.000000e+00
    outer loop
      vertex 3.100000e+01 -3.800000e+01 5.000000e+00
      vertex 3.100000e+01 -3.800000e+01 0.000000e+00
      vertex 3.100000e+01 -4.000000e+01 5.000000e+00
    endloop
  endfacet
  facet normal -1.000000e+00 0.000000e+00 0.000000e+00
    outer loop
      vertex 3.100000e+01 -4.000000e+01 5.000000e+00
      vertex 3.100000e+01 -3.800000e+01 0.000000e+00
      vertex 3.100000e+01 -4.000000e+01 0.000000e+00
    endloop
  endfacet
  facet normal 0.000000e+00 -1.000000e+00 0.000000e+00
    outer loop
      vertex 3.100000e+01 -4.000000e+01 5.000000e+00
      vertex 3.100000e+01 -4.000000e+01 0.000000e+00
      vertex 4.000000e+01 -4.000000e+01 0.000000e+00
    endloop
  endfacet
  facet normal 0.000000e+00 -1.000000e+00 0.000000e+00
    outer loop
      vertex 4.000000e+01 -4.000000e+01 5.000000e+00
      vertex 3.100000e+01 -4.000000e+01 5.000000e+00
      vertex 4.000000e+01 -4.000000e+01 0.000000e+00
    endloop
  endfacet
  facet normal 1.000000e+00 0.000000e+00 0.000000e+00
    outer loop
      vertex 4.000000e+01 -4.000000e+01 5.000000e+00
      vertex 4.000000e+01 -4.000000e+01 0.000000e+00
      vertex 4.000000e+01 -3.100000e+01 0.000000e+00
    endloop
  endfacet
  facet normal 1.000000e+00 0.000000e+00 0.000000e+00
    outer loop
      vertex 4.000000e+01 -3.100000e+01 5.000000e+00
      vertex 4.000000e+01 -4.000000e+01 5.000000e+00
      vertex 4.000000e+01 -3.100000e+01 0.000000e+00
    endloop
  endfacet
  facet normal 0.000000e+00 1.000000e+00 0.000000e+00
    outer loop
      vertex 4.000000e+01 -3.100000e+01 5.000000e+00
      vertex 4.000000e+01 -3.100000e+01 0.000000e+00
      vertex 3.800000e+01 -3.100000e+01 5.000000e+00
    endloop
  endfacet
  facet normal 0.000000e+00 1.000000e+00 0.000000e+00
    outer loop
      vertex 3.800000e+01 -3.100000e+01 5.000000e+00
      vertex 4.000000e+01 -3.100000e+01 0.000000e+00
      vertex 3.800000e+01 -3.100000e+01 0.000000e+00
    endloop
  endfacet
  facet normal -1.000000e+00 0.000000e+00 0.000000e+00
    outer loop
      vertex 3.800000e+01 -3.100000e+01 5.000000e+00
      vertex 3.800000e+01 -3.100000e+01 0.000000e+00
      vertex 3.800000e+01 -3.800000e+01 5.000000e+00
    endloop
  endfacet
  facet normal -1.000000e+00 0.000000e+00 0.000000e+00
    outer loop
      vertex 3.800000e+01 -3.800000e+01 5.000000e+00
      vertex 3.800000e+01 -3.100000e+01 0.000000e+00
      vertex 3.800000e+01 -3.800000e+01 0.000000e+00
    endloop
  endfacet
  facet normal 0.000000e+00 1.000000e+00 0.000000e+00
    outer loop
      vertex 3.800000e+01 -3.800000e+01 5.000000e+00
      vertex 3.800000e+01 -3.800000e+01 0.000000e+00
      vertex 3.100000e+01 -3.800000e+01 5.000000e+00
    endloop
  endfacet
  facet normal 0.000000e+00 1.000000e+00 0.000000e+00
    outer loop
      vertex 3.100000e+01 -3.800000e+01 5.000000e+00
      vertex 3.800000e+01 -3.800000e+01 0.000000e+00
      vertex 3.100000e+01 -3.800000e+01 0.000000e+00
    endloop
  endfacet
  facet normal 0.000000e+00 0.000000e+00 1.000000e+00
    outer loop
      vertex 3.100000e+01 -3.800000e+01 5.000000e+00
      vertex 3.100000e+01 -4.000000e+01 5.000000e+00
      vertex 4.000000e+01 -4.000000e+01 5.000000e+00
    endloop
  endfacet
  facet normal 0.000000e+00 0.000000e+00 1.000000e+00
    outer loop
      vertex 3.800000e+01 -3.800000e+01 5.000000e+00
      vertex 3.100000e+01 -3.800000e+01 5.000000e+00
      vertex 4.000000e+01 -4.000000e+01 5.000000e+00
    endloop
  endfacet
  facet normal 0.000000e+00 0.000000e+00 1.000000e+00
    outer loop
      vertex 4.000000e+01 -3.100000e+01 5.000000e+00
      vertex 3.800000e+01 -3.800000e+01 5.000000e+00
      vertex 4.000000e+01 -4.000000e+01 5.000000e+00
    endloop
  endfacet
  facet normal 0.000000e+00 0.000000e+00 1.000000e+00
    outer loop
      vertex 3.800000e+01 -3.100000e+01 5.000000e+00
      vertex 3.800000e+01 -3.800000e+01 5.000000e+00
      vertex 4.000000e+01 -3.100000e+01 5.000000e+00
    endloop
  endfacet
  facet normal 0.000000e+00 -1.000000e+00 0.000000e+00
    outer loop
      vertex 3.800000e+01 3.800000e+01 0.000000e+00
      vertex 3.800000e+01 3.800000e+01 5.000000e+00
      vertex 3.100000e+01 3.800000e+01 5.000000e+00
    endloop
  endfacet
  facet normal -0.000000e+00 -1.000000e+00 -0.000000e+00
    outer loop
      vertex 3.100000e+01 3.800000e+01 0.000000e+00
      vertex 3.800000e+01 3.800000e+01 0.000000e+00
      vertex 3.100000e+01 3.800000e+01 5.000000e+00
    endloop
  endfacet
  facet normal -0.000000e+00 -0.000000e+00 -1.000000e+00
    outer loop
      vertex 3.100000e+01 3.800000e+01 0.000000e+00
      vertex 3.100000e+01 4.000000e+01 0.000000e+00
      vertex 3.800000e+01 3.800000e+01 0.000000e+00
    endloop
  endfacet
  facet normal 0.000000e+00 0.000000e+00 -1.000000e+00
    outer loop
      vertex 3.800000e+01 3.800000e+01 0.000000e+00
      vertex 3.100000e+01 4.000000e+01 0.000000e+00
      vertex 4.000000e+01 4.000000e+01 0.000000e+00
    endloop
  endfacet
  facet normal 0.000000e+00 0.000000e+00 -1.000000e+00
    outer loop
      vertex 3.800000e+01 3.800000e+01 0.000000e+00
      vertex 4.000000e+01 4.000000e+01 0.000000e+00
      vertex 4.000000e+01 3.100000e+01 0.000000e+00
    endloop
  endfacet
  facet normal 0.000000e+00 0.000000e+00 -1.000000e+00
    outer loop
      vertex 3.800000e+01 3.800000e+01 0.000000e+00
      vertex 4.000000e+01 3.100000e+01 0.000000e+00
      vertex 3.800000e+01 3.100000e+01 0.000000e+00
    endloop
  endfacet
  facet normal -1.000000e+00 0.000000e+00 0.000000e+00
    outer loop
      vertex 3.100000e+01 4.000000e+01 5.000000e+00
      vertex 3.100000e+01 4.000000e+01 0.000000e+00
      vertex 3.100000e+01 3.800000e+01 5.000000e+00
    endloop
  endfacet
  facet normal -1.000000e+00 0.000000e+00 0.000000e+00
    outer loop
      vertex 3.100000e+01 3.800000e+01 5.000000e+00
      vertex 3.100000e+01 4.000000e+01 0.000000e+00
      vertex 3.100000e+01 3.800000e+01 0.000000e+00
    endloop
  endfacet
  facet normal -1.000000e+00 0.000000e+00 0.000000e+00
    outer loop
      vertex 3.800000e+01 3.800000e+01 5.000000e+00
      vertex 3.800000e+01 3.800000e+01 0.000000e+00
      vertex 3.800000e+01 3.100000e+01 5.000000e+00
    endloop
  endfacet
  facet normal -1.000000e+00 0.000000e+00 0.000000e+00
    outer loop
      vertex 3.800000e+01 3.100000e+01 5.000000e+00
      vertex 3.800000e+01 3.800000e+01 0.000000e+00
      vertex 3.800000e+01 3.100000e+01 0.000000e+00
    endloop
  endfacet
  facet normal 0.000000e+00 0.000000e+00 1.000000e+00
    outer loop
      vertex 3.100000e+01 4.000000e+01 5.000000e+00
      vertex 3.100000e+01 3.800000e+01 5.000000e+00
      vertex 3.800000e+01 3.800000e+01 5.000000e+00
    endloop
  endfacet
  facet normal 0.000000e+00 0.000000e+00 1.000000e+00
    outer loop
      vertex 4.000000e+01 4.000000e+01 5.000000e+00
      vertex 3.100000e+01 4.000000e+01 5.000000e+00
      vertex 3.800000e+01 3.800000e+01 5.000000e+00
    endloop
  endfacet
  facet normal 0.000000e+00 0.000000e+00 1.000000e+00
    outer loop
      vertex 3.800000e+01 3.100000e+01 5.000000e+00
      vertex 4.000000e+01 3.100000e+01 5.000000e+00
      vertex 3.800000e+01 3.800000e+01 5.000000e+00
    endloop
  endfacet
  facet normal 0.000000e+00 0.000000e+00 1.000000e+00
    outer loop
      vertex 4.000000e+01 3.100000e+01 5.000000e+00
      vertex 4.000000e+01 4.000000e+01 5.000000e+00
      vertex 3.800000e+01 3.800000e+01 5.000000e+00
    endloop
  endfacet
  facet normal 0.000000e+00 -1.000000e+00 0.000000e+00
    outer loop
      vertex 4.000000e+01 3.100000e+01 0.000000e+00
      vertex 4.000000e+01 3.100000e+01 5.000000e+00
      vertex 3.800000e+01 3.100000e+01 5.000000e+00
    endloop
  endfacet
  facet normal -0.000000e+00 -1.000000e+00 -0.000000e+00
    outer loop
      vertex 3.800000e+01 3.100000e+01 0.000000e+00
      vertex 4.000000e+01 3.100000e+01 0.000000e+00
      vertex 3.800000e+01 3.100000e+01 5.000000e+00
    endloop
  endfacet
  facet normal 1.000000e+00 0.000000e+00 0.000000e+00
    outer loop
      vertex 4.000000e+01 3.100000e+01 5.000000e+00
      vertex 4.000000e+01 3.100000e+01 0.000000e+00
      vertex 4.000000e+01 4.000000e+01 0.000000e+00
    endloop
  endfacet
  facet normal 1.000000e+00 0.000000e+00 0.000000e+00
    outer loop
      vertex 4.000000e+01 4.000000e+01 5.000000e+00
      vertex 4.000000e+01 3.100000e+01 5.000000e+00
      vertex 4.000000e+01 4.000000e+01 0.000000e+00
    endloop
  endfacet
  facet normal 0.000000e+00 1.000000e+00 0.000000e+00
    outer loop
      vertex 3.100000e+01 4.000000e+01 0.000000e+00
      vertex 3.100000e+01 4.000000e+01 5.000000e+00
      vertex 4.000000e+01 4.000000e+01 0.000000e+00
    endloop
  endfacet
  facet normal 0.000000e+00 1.000000e+00 0.000000e+00
    outer loop
      vertex 4.000000e+01 4.000000e+01 0.000000e+00
      vertex 3.100000e+01 4.000000e+01 5.000000e+00
      vertex 4.000000e+01 4.000000e+01 5.000000e+00
    endloop
  endfacet
  facet normal -1.000000e+00 -0.000000e+00 -0.000000e+00
    outer loop
      vertex -4.000000e+01 3.100000e+01 0.000000e+00
      vertex -4.000000e+01 3.100000e+01 5.000000e+00
      vertex -4.000000e+01 4.000000e+01 0.000000e+00
    endloop
  endfacet
  facet normal -1.000000e+00 0.000000e+00 0.000000e+00
    outer loop
      vertex -4.000000e+01 4.000000e+01 0.000000e+00
      vertex -4.000000e+01 3.100000e+01 5.000000e+00
      vertex -4.000000e+01 4.000000e+01 5.000000e+00
    endloop
  endfacet
  facet normal 0.000000e+00 -1.000000e+00 0.000000e+00
    outer loop
      vertex -3.800000e+01 3.100000e+01 0.000000e+00
      vertex -3.800000e+01 3.100000e+01 5.000000e+00
      vertex -4.000000e+01 3.100000e+01 5.000000e+00
    endloop
  endfacet
  facet normal -0.000000e+00 -1.000000e+00 -0.000000e+00
    outer loop
      vertex -4.000000e+01 3.100000e+01 0.000000e+00
      vertex -3.800000e+01 3.100000e+01 0.000000e+00
      vertex -4.000000e+01 3.100000e+01 5.000000e+00
    endloop
  endfacet
  facet normal -0.000000e+00 -0.000000e+00 -1.000000e+00
    outer loop
      vertex -4.000000e+01 3.100000e+01 0.000000e+00
      vertex -4.000000e+01 4.000000e+01 0.000000e+00
      vertex -3.800000e+01 3.100000e+01 0.000000e+00
    endloop
  endfacet
  facet normal 0.000000e+00 0.000000e+00 -1.000000e+00
    outer loop
      vertex -3.800000e+01 3.800000e+01 0.000000e+00
      vertex -4.000000e+01 4.000000e+01 0.000000e+00
      vertex -3.100000e+01 4.000000e+01 0.000000e+00
    endloop
  endfacet
  facet normal 0.000000e+00 0.000000e+00 -1.000000e+00
    outer loop
      vertex -3.800000e+01 3.100000e+01 0.000000e+00
      vertex -4.000000e+01 4.000000e+01 0.000000e+00
      vertex -3.800000e+01 3.800000e+01 0.000000e+00
    endloop
  endfacet
  facet normal 0.000000e+00 0.000000e+00 -1.000000e+00
    outer loop
      vertex -3.800000e+01 3.800000e+01 0.000000e+00
      vertex -3.100000e+01 4.000000e+01 0.000000e+00
      vertex -3.100000e+01 3.800000e+01 0.000000e+00
    endloop
  endfacet
  facet normal 0.000000e+00 1.000000e+00 0.000000e+00
    outer loop
      vertex -4.000000e+01 4.000000e+01 0.000000e+00
      vertex -4.000000e+01 4.000000e+01 5.000000e+00
      vertex -3.100000e+01 4.000000e+01 0.000000e+00
    endloop
  endfacet
  facet normal 0.000000e+00 1.000000e+00 0.000000e+00
    outer loop
      vertex -3.100000e+01 4.000000e+01 0.000000e+00
      vertex -4.000000e+01 4.000000e+01 5.000000e+00
      vertex -3.100000e+01 4.000000e+01 5.000000e+00
    endloop
  endfacet
  facet normal 0.000000e+00 0.000000e+00 1.000000e+00
    outer loop
      vertex -4.000000e+01 4.000000e+01 5.000000e+00
      vertex -4.000000e+01 3.100000e+01 5.000000e+00
      vertex -3.800000e+01 3.100000e+01 5.000000e+00
    endloop
  endfacet
  facet normal 0.000000e+00 0.000000e+00 1.000000e+00
    outer loop
      vertex -3.100000e+01 3.800000e+01 5.000000e+00
      vertex -4.000000e+01 4.000000e+01 5.000000e+00
      vertex -3.800000e+01 3.800000e+01 5.000000e+00
    endloop
  endfacet
  facet normal 0.000000e+00 0.000000e+00 1.000000e+00
    outer loop
      vertex -3.800000e+01 3.800000e+01 5.000000e+00
      vertex -4.000000e+01 4.000000e+01 5.000000e+00
      vertex -3.800000e+01 3.100000e+01 5.000000e+00
    endloop
  endfacet
  facet normal 0.000000e+00 0.000000e+00 1.000000e+00
    outer loop
      vertex -3.100000e+01 4.000000e+01 5.000000e+00
      vertex -4.000000e+01 4.000000e+01 5.000000e+00
      vertex -3.100000e+01 3.800000e+01 5.000000e+00
    endloop
  endfacet
  facet normal 1.000000e+00 0.000000e+00 0.000000e+00
    outer loop
      vertex -3.800000e+01 3.800000e+01 0.000000e+00
      vertex -3.800000e+01 3.800000e+01 5.000000e+00
      vertex -3.800000e+01 3.100000e+01 5.000000e+00
    endloop
  endfacet
  facet normal 1.000000e+00 0.000000e+00 0.000000e+00
    outer loop
      vertex -3.800000e+01 3.100000e+01 0.000000e+00
      vertex -3.800000e+01 3.800000e+01 0.000000e+00
      vertex -3.800000e+01 3.100000e+01 5.000000e+00
    endloop
  endfacet
  facet normal 0.000000e+00 -1.000000e+00 0.000000e+00
    outer loop
      vertex -3.100000e+01 3.800000e+01 0.000000e+00
      vertex -3.100000e+01 3.800000e+01 5.000000e+00
      vertex -3.800000e+01 3.800000e+01 5.000000e+00
    endloop
  endfacet
  facet normal -0.000000e+00 -1.000000e+00 -0.000000e+00
    outer loop
      vertex -3.800000e+01 3.800000e+01 0.000000e+00
      vertex -3.100000e+01 3.800000e+01 0.000000e+00
      vertex -3.800000e+01 3.800000e+01 5.000000e+00
    endloop
  endfacet
  facet normal 1.000000e+00 0.000000e+00 0.000000e+00
    outer loop
      vertex -3.100000e+01 4.000000e+01 0.000000e+00
      vertex -3.100000e+01 4.000000e+01 5.000000e+00
      vertex -3.100000e+01 3.800000e+01 5.000000e+00
    endloop
  endfacet
  facet normal 1.000000e+00 0.000000e+00 0.000000e+00
    outer loop
      vertex -3.100000e+01 3.800000e+01 0.000000e+00
      vertex -3.100000e+01 4.000000e+01 0.000000e+00
      vertex -3.100000e+01 3.800000e+01 5.000000e+00
    endloop
  endfacet
endsolid Default
