solid OpenSCAD_Model
  facet normal -1 0 0
    outer loop
      vertex -37.5 34 -1.5
      vertex -37.5 37.5 -4.5
      vertex -37.5 -34 -1.5
    endloop
  endfacet
  facet normal -1 0 -0
    outer loop
      vertex -37.5 -37.5 -4.5
      vertex -37.5 -37.5 18.5
      vertex -37.5 -34 -1.5
    endloop
  endfacet
  facet normal -1 -0 0
    outer loop
      vertex -37.5 -37.5 -4.5
      vertex -37.5 -34 -1.5
      vertex -37.5 37.5 -4.5
    endloop
  endfacet
  facet normal -1 0 0
    outer loop
      vertex -37.5 37.5 -4.5
      vertex -37.5 34 -1.5
      vertex -37.5 34 18.5
    endloop
  endfacet
  facet normal -1 0 0
    outer loop
      vertex -37.5 37.5 -4.5
      vertex -37.5 34 18.5
      vertex -37.5 37.5 18.5
    endloop
  endfacet
  facet normal -1 0 0
    outer loop
      vertex -37.5 -34 -1.5
      vertex -37.5 -37.5 18.5
      vertex -37.5 -34 18.5
    endloop
  endfacet
  facet normal 0 -1 0
    outer loop
      vertex -37.5 -37.5 18.5
      vertex -37.5 -37.5 -4.5
      vertex 37.5 -37.5 -4.5
    endloop
  endfacet
  facet normal 0 -1 0
    outer loop
      vertex 37.5 -37.5 18.5
      vertex -37.5 -37.5 18.5
      vertex 37.5 -37.5 -4.5
    endloop
  endfacet
  facet normal -0 -0 -1
    outer loop
      vertex -37.5 -37.5 -4.5
      vertex -37.5 37.5 -4.5
      vertex 37.5 -37.5 -4.5
    endloop
  endfacet
  facet normal 0 0 -1
    outer loop
      vertex 37.5 -37.5 -4.5
      vertex -37.5 37.5 -4.5
      vertex 37.5 37.5 -4.5
    endloop
  endfacet
  facet normal 0 1 0
    outer loop
      vertex -37.5 37.5 -4.5
      vertex -37.5 37.5 18.5
      vertex 37.5 37.5 -4.5
    endloop
  endfacet
  facet normal 0 1 0
    outer loop
      vertex 37.5 37.5 -4.5
      vertex -37.5 37.5 18.5
      vertex 37.5 37.5 18.5
    endloop
  endfacet
  facet normal 0 -0 1
    outer loop
      vertex -37.5 -34 18.5
      vertex -37.5 -37.5 18.5
      vertex 37.5 -37.5 18.5
    endloop
  endfacet
  facet normal 0 -0 1
    outer loop
      vertex 34.5 -34 18.5
      vertex -37.5 -34 18.5
      vertex 37.5 -37.5 18.5
    endloop
  endfacet
  facet normal 0 -0 1
    outer loop
      vertex -37.5 37.5 18.5
      vertex -37.5 34 18.5
      vertex 37.5 37.5 18.5
    endloop
  endfacet
  facet normal 0 0 1
    outer loop
      vertex 37.5 37.5 18.5
      vertex 34.5 34 18.5
      vertex 37.5 -37.5 18.5
    endloop
  endfacet
  facet normal 0 -0 1
    outer loop
      vertex 34.5 34 18.5
      vertex 34.5 -34 18.5
      vertex 37.5 -37.5 18.5
    endloop
  endfacet
  facet normal 0 0 1
    outer loop
      vertex -37.5 34 18.5
      vertex 34.5 34 18.5
      vertex 37.5 37.5 18.5
    endloop
  endfacet
  facet normal 0 -1 0
    outer loop
      vertex -34.5 34 4.5
      vertex -37.5 34 18.5
      vertex -34.5 34 1.5
    endloop
  endfacet
  facet normal 0 -1 0
    outer loop
      vertex 34.5 34 -1.5
      vertex 34.5 34 1.5
      vertex -34.5 34 1.5
    endloop
  endfacet
  facet normal -0 -1 0
    outer loop
      vertex -37.5 34 -1.5
      vertex 34.5 34 -1.5
      vertex -34.5 34 1.5
    endloop
  endfacet
  facet normal 0 -1 0
    outer loop
      vertex 34.5 34 4.5
      vertex 34.5 34 18.5
      vertex -34.5 34 4.5
    endloop
  endfacet
  facet normal 0 -1 0
    outer loop
      vertex 34.5 34 18.5
      vertex -37.5 34 18.5
      vertex -34.5 34 4.5
    endloop
  endfacet
  facet normal 0 -1 0
    outer loop
      vertex -37.5 34 18.5
      vertex -37.5 34 -1.5
      vertex -34.5 34 1.5
    endloop
  endfacet
  facet normal 0 0 1
    outer loop
      vertex 34.5 -34 -1.5
      vertex 34.5 34 -1.5
      vertex -37.5 34 -1.5
    endloop
  endfacet
  facet normal 0 0 1
    outer loop
      vertex -37.5 -34 -1.5
      vertex 34.5 -34 -1.5
      vertex -37.5 34 -1.5
    endloop
  endfacet
  facet normal 0 1 0
    outer loop
      vertex 34.5 -34 18.5
      vertex 34.5 -34 4.5
      vertex -37.5 -34 18.5
    endloop
  endfacet
  facet normal 0 1 0
    outer loop
      vertex -37.5 -34 18.5
      vertex 34.5 -34 4.5
      vertex -34.5 -34 4.5
    endloop
  endfacet
  facet normal 0 1 0
    outer loop
      vertex -37.5 -34 18.5
      vertex -34.5 -34 4.5
      vertex -34.5 -34 1.5
    endloop
  endfacet
  facet normal 0 1 0
    outer loop
      vertex -34.5 -34 1.5
      vertex 34.5 -34 1.5
      vertex 34.5 -34 -1.5
    endloop
  endfacet
  facet normal 0 1 -0
    outer loop
      vertex -34.5 -34 1.5
      vertex 34.5 -34 -1.5
      vertex -37.5 -34 -1.5
    endloop
  endfacet
  facet normal -0 1 0
    outer loop
      vertex -34.5 -34 1.5
      vertex -37.5 -34 -1.5
      vertex -37.5 -34 18.5
    endloop
  endfacet
  facet normal 1 0 -0
    outer loop
      vertex 37.5 -22.5 8.6
      vertex 37.5 -37.5 -4.5
      vertex 37.5 37.5 -4.5
    endloop
  endfacet
  facet normal 1 0 -0
    outer loop
      vertex 37.5 -7.5 8.6
      vertex 37.5 -22.5 8.6
      vertex 37.5 37.5 -4.5
    endloop
  endfacet
  facet normal 1 0 -0
    outer loop
      vertex 37.5 -37.5 18.5
      vertex 37.5 -37.5 -4.5
      vertex 37.5 -22.5 8.6
    endloop
  endfacet
  facet normal 1 0 0
    outer loop
      vertex 37.5 37.5 18.5
      vertex 37.5 -37.5 18.5
      vertex 37.5 -22.5 15.6
    endloop
  endfacet
  facet normal 1 0 0
    outer loop
      vertex 37.5 37.5 18.5
      vertex 37.5 -22.5 15.6
      vertex 37.5 -7.5 15.6
    endloop
  endfacet
  facet normal 1 0 -0
    outer loop
      vertex 37.5 7.5 8.6
      vertex 37.5 -7.5 8.6
      vertex 37.5 37.5 -4.5
    endloop
  endfacet
  facet normal 1 0 -0
    outer loop
      vertex 37.5 -7.5 15.6
      vertex 37.5 -7.5 8.6
      vertex 37.5 7.5 8.6
    endloop
  endfacet
  facet normal 1 0 -0
    outer loop
      vertex 37.5 22.5 8.6
      vertex 37.5 7.5 8.6
      vertex 37.5 37.5 -4.5
    endloop
  endfacet
  facet normal 1 0 0
    outer loop
      vertex 37.5 37.5 18.5
      vertex 37.5 -7.5 15.6
      vertex 37.5 7.5 15.6
    endloop
  endfacet
  facet normal 1 0 0
    outer loop
      vertex 37.5 37.5 18.5
      vertex 37.5 22.5 15.6
      vertex 37.5 37.5 -4.5
    endloop
  endfacet
  facet normal 1 0 0
    outer loop
      vertex 37.5 37.5 18.5
      vertex 37.5 7.5 15.6
      vertex 37.5 22.5 15.6
    endloop
  endfacet
  facet normal 1 0 -0
    outer loop
      vertex 37.5 22.5 15.6
      vertex 37.5 22.5 8.6
      vertex 37.5 37.5 -4.5
    endloop
  endfacet
  facet normal 1 0 0
    outer loop
      vertex 37.5 7.5 8.6
      vertex 37.5 7.5 15.6
      vertex 37.5 -7.5 15.6
    endloop
  endfacet
  facet normal 1 0 0
    outer loop
      vertex 37.5 -22.5 8.6
      vertex 37.5 -22.5 15.6
      vertex 37.5 -37.5 18.5
    endloop
  endfacet
  facet normal -1 0 0
    outer loop
      vertex 34.5 -34 18.5
      vertex 34.5 -31 4.5
      vertex 34.5 -34 4.5
    endloop
  endfacet
  facet normal -1 0 0
    outer loop
      vertex 34.5 -22.5 8.6
      vertex 34.5 -31 4.5
      vertex 34.5 -34 18.5
    endloop
  endfacet
  facet normal -1 -0 0
    outer loop
      vertex 34.5 31 4.5
      vertex 34.5 34 18.5
      vertex 34.5 34 4.5
    endloop
  endfacet
  facet normal -1 -0 0
    outer loop
      vertex 34.5 22.5 8.6
      vertex 34.5 34 18.5
      vertex 34.5 31 4.5
    endloop
  endfacet
  facet normal -1 -0 0
    outer loop
      vertex 34.5 7.5 15.6
      vertex 34.5 34 18.5
      vertex 34.5 22.5 15.6
    endloop
  endfacet
  facet normal -1 0 0
    outer loop
      vertex 34.5 -7.5 8.6
      vertex 34.5 -31 4.5
      vertex 34.5 -22.5 8.6
    endloop
  endfacet
  facet normal -1 0 0
    outer loop
      vertex 34.5 -31 1.5
      vertex 34.5 34 -1.5
      vertex 34.5 -34 1.5
    endloop
  endfacet
  facet normal -1 0 0
    outer loop
      vertex 34.5 31 1.5
      vertex 34.5 34 1.5
      vertex 34.5 34 -1.5
    endloop
  endfacet
  facet normal -1 0 0
    outer loop
      vertex 34.5 31 1.5
      vertex 34.5 34 -1.5
      vertex 34.5 -31 1.5
    endloop
  endfacet
  facet normal -1 0 0
    outer loop
      vertex 34.5 34 -1.5
      vertex 34.5 -34 -1.5
      vertex 34.5 -34 1.5
    endloop
  endfacet
  facet normal -1 0 0
    outer loop
      vertex 34.5 -7.5 15.6
      vertex 34.5 7.5 15.6
      vertex 34.5 -7.5 8.6
    endloop
  endfacet
  facet normal -1 0 0
    outer loop
      vertex 34.5 -22.5 15.6
      vertex 34.5 -22.5 8.6
      vertex 34.5 -34 18.5
    endloop
  endfacet
  facet normal -1 0 -0
    outer loop
      vertex 34.5 -31 1.5
      vertex 34.5 -31 4.5
      vertex 34.5 -7.5 8.6
    endloop
  endfacet
  facet normal -1 0 0
    outer loop
      vertex 34.5 7.5 8.6
      vertex 34.5 -31 1.5
      vertex 34.5 -7.5 8.6
    endloop
  endfacet
  facet normal -1 0 0
    outer loop
      vertex 34.5 34 18.5
      vertex 34.5 -7.5 15.6
      vertex 34.5 -34 18.5
    endloop
  endfacet
  facet normal -1 0 0
    outer loop
      vertex 34.5 -7.5 15.6
      vertex 34.5 -22.5 15.6
      vertex 34.5 -34 18.5
    endloop
  endfacet
  facet normal -1 -0 0
    outer loop
      vertex 34.5 22.5 15.6
      vertex 34.5 34 18.5
      vertex 34.5 22.5 8.6
    endloop
  endfacet
  facet normal -1 0 0
    outer loop
      vertex 34.5 -31 1.5
      vertex 34.5 7.5 8.6
      vertex 34.5 31 4.5
    endloop
  endfacet
  facet normal -1 0 0
    outer loop
      vertex 34.5 7.5 8.6
      vertex 34.5 22.5 8.6
      vertex 34.5 31 4.5
    endloop
  endfacet
  facet normal -1 0 0
    outer loop
      vertex 34.5 7.5 8.6
      vertex 34.5 -7.5 8.6
      vertex 34.5 7.5 15.6
    endloop
  endfacet
  facet normal -1 0 0
    outer loop
      vertex 34.5 34 18.5
      vertex 34.5 7.5 15.6
      vertex 34.5 -7.5 15.6
    endloop
  endfacet
  facet normal -1 0 0
    outer loop
      vertex 34.5 31 1.5
      vertex 34.5 -31 1.5
      vertex 34.5 31 4.5
    endloop
  endfacet
  facet normal 0 -0 1
    outer loop
      vertex -34.5 34 4.5
      vertex -34.5 31 4.5
      vertex 34.5 31 4.5
    endloop
  endfacet
  facet normal 0 0 1
    outer loop
      vertex 34.5 34 4.5
      vertex -34.5 34 4.5
      vertex 34.5 31 4.5
    endloop
  endfacet
  facet normal -1 -0 -0
    outer loop
      vertex -34.5 31 1.5
      vertex -34.5 31 4.5
      vertex -34.5 34 1.5
    endloop
  endfacet
  facet normal -1 0 0
    outer loop
      vertex -34.5 34 1.5
      vertex -34.5 31 4.5
      vertex -34.5 34 4.5
    endloop
  endfacet
  facet normal 0 0 -1
    outer loop
      vertex 34.5 34 1.5
      vertex 34.5 31 1.5
      vertex -34.5 34 1.5
    endloop
  endfacet
  facet normal 0 0 -1
    outer loop
      vertex -34.5 34 1.5
      vertex 34.5 31 1.5
      vertex -34.5 31 1.5
    endloop
  endfacet
  facet normal 0 0 -1
    outer loop
      vertex 34.5 -31 1.5
      vertex 34.5 -34 1.5
      vertex -34.5 -31 1.5
    endloop
  endfacet
  facet normal 0 0 -1
    outer loop
      vertex -34.5 -31 1.5
      vertex 34.5 -34 1.5
      vertex -34.5 -34 1.5
    endloop
  endfacet
  facet normal -1 -0 -0
    outer loop
      vertex -34.5 -34 1.5
      vertex -34.5 -34 4.5
      vertex -34.5 -31 1.5
    endloop
  endfacet
  facet normal -1 0 0
    outer loop
      vertex -34.5 -31 1.5
      vertex -34.5 -34 4.5
      vertex -34.5 -31 4.5
    endloop
  endfacet
  facet normal 0 -0 1
    outer loop
      vertex -34.5 -31 4.5
      vertex -34.5 -34 4.5
      vertex 34.5 -34 4.5
    endloop
  endfacet
  facet normal 0 0 1
    outer loop
      vertex 34.5 -31 4.5
      vertex -34.5 -31 4.5
      vertex 34.5 -34 4.5
    endloop
  endfacet
  facet normal 0 0 1
    outer loop
      vertex 37.5 -22.5 8.6
      vertex 37.5 -7.5 8.6
      vertex 34.5 -7.5 8.6
    endloop
  endfacet
  facet normal 0 0 1
    outer loop
      vertex 34.5 -22.5 8.6
      vertex 37.5 -22.5 8.6
      vertex 34.5 -7.5 8.6
    endloop
  endfacet
  facet normal 0 1 0
    outer loop
      vertex 37.5 -22.5 15.6
      vertex 37.5 -22.5 8.6
      vertex 34.5 -22.5 15.6
    endloop
  endfacet
  facet normal 0 1 -0
    outer loop
      vertex 34.5 -22.5 15.6
      vertex 37.5 -22.5 8.6
      vertex 34.5 -22.5 8.6
    endloop
  endfacet
  facet normal 0 -1 0
    outer loop
      vertex 37.5 -7.5 8.6
      vertex 37.5 -7.5 15.6
      vertex 34.5 -7.5 15.6
    endloop
  endfacet
  facet normal -0 -1 -0
    outer loop
      vertex 34.5 -7.5 8.6
      vertex 37.5 -7.5 8.6
      vertex 34.5 -7.5 15.6
    endloop
  endfacet
  facet normal 0 0 -1
    outer loop
      vertex 37.5 -7.5 15.6
      vertex 37.5 -22.5 15.6
      vertex 34.5 -7.5 15.6
    endloop
  endfacet
  facet normal 0 0 -1
    outer loop
      vertex 34.5 -7.5 15.6
      vertex 37.5 -22.5 15.6
      vertex 34.5 -22.5 15.6
    endloop
  endfacet
  facet normal 0 0 1
    outer loop
      vertex 37.5 7.5 8.6
      vertex 37.5 22.5 8.6
      vertex 34.5 22.5 8.6
    endloop
  endfacet
  facet normal 0 0 1
    outer loop
      vertex 34.5 7.5 8.6
      vertex 37.5 7.5 8.6
      vertex 34.5 22.5 8.6
    endloop
  endfacet
  facet normal 0 1 0
    outer loop
      vertex 37.5 7.5 15.6
      vertex 37.5 7.5 8.6
      vertex 34.5 7.5 15.6
    endloop
  endfacet
  facet normal 0 1 -0
    outer loop
      vertex 34.5 7.5 15.6
      vertex 37.5 7.5 8.6
      vertex 34.5 7.5 8.6
    endloop
  endfacet
  facet normal 0 -1 0
    outer loop
      vertex 37.5 22.5 8.6
      vertex 37.5 22.5 15.6
      vertex 34.5 22.5 15.6
    endloop
  endfacet
  facet normal -0 -1 -0
    outer loop
      vertex 34.5 22.5 8.6
      vertex 37.5 22.5 8.6
      vertex 34.5 22.5 15.6
    endloop
  endfacet
  facet normal 0 0 -1
    outer loop
      vertex 37.5 22.5 15.6
      vertex 37.5 7.5 15.6
      vertex 34.5 22.5 15.6
    endloop
  endfacet
  facet normal 0 0 -1
    outer loop
      vertex 34.5 22.5 15.6
      vertex 37.5 7.5 15.6
      vertex 34.5 7.5 15.6
    endloop
  endfacet
  facet normal 0 -1 0
    outer loop
      vertex -34.5 31 4.5
      vertex -34.5 31 1.5
      vertex 34.5 31 1.5
    endloop
  endfacet
  facet normal 0 -1 0
    outer loop
      vertex 34.5 31 4.5
      vertex -34.5 31 4.5
      vertex 34.5 31 1.5
    endloop
  endfacet
  facet normal 0 1 0
    outer loop
      vertex -34.5 -31 1.5
      vertex -34.5 -31 4.5
      vertex 34.5 -31 1.5
    endloop
  endfacet
  facet normal 0 1 0
    outer loop
      vertex 34.5 -31 1.5
      vertex -34.5 -31 4.5
      vertex 34.5 -31 4.5
    endloop
  endfacet
endsolid OpenSCAD_Model
