<?xml version="1.0" encoding="UTF-8" standalone="no"?>
<!-- Created with Inkscape (http://www.inkscape.org/) -->

<svg
   xmlns:dc="http://purl.org/dc/elements/1.1/"
   xmlns:cc="http://creativecommons.org/ns#"
   xmlns:rdf="http://www.w3.org/1999/02/22-rdf-syntax-ns#"
   xmlns:svg="http://www.w3.org/2000/svg"
   xmlns="http://www.w3.org/2000/svg"
   xmlns:xlink="http://www.w3.org/1999/xlink"
   xmlns:sodipodi="http://sodipodi.sourceforge.net/DTD/sodipodi-0.dtd"
   xmlns:inkscape="http://www.inkscape.org/namespaces/inkscape"
   width="1052.3622"
   height="744.09448"
   id="svg2"
   version="1.1"
   inkscape:version="0.48.2 r9819"
   sodipodi:docname="New document 1">
  <defs
     id="defs4">
    <linearGradient
       y2="229.1877"
       x2="235.6498"
       y1="162.5244"
       x1="53.841801"
       gradientTransform="translate(0,40.216988)"
       gradientUnits="userSpaceOnUse"
       id="linearGradient3247"
       xlink:href="#SVGID_1_"
       inkscape:collect="always" />
  </defs>
  <sodipodi:namedview
     id="base"
     pagecolor="#ffffff"
     bordercolor="#666666"
     borderopacity="1.0"
     inkscape:pageopacity="0.0"
     inkscape:pageshadow="2"
     inkscape:zoom="0.35"
     inkscape:cx="6.4285714"
     inkscape:cy="520"
     inkscape:document-units="px"
     inkscape:current-layer="layer1"
     showgrid="false"
     inkscape:window-width="1680"
     inkscape:window-height="996"
     inkscape:window-x="0"
     inkscape:window-y="26"
     inkscape:window-maximized="1" />
  <metadata
     id="metadata7">
    <rdf:RDF>
      <cc:Work
         rdf:about="">
        <dc:format>image/svg+xml</dc:format>
        <dc:type
           rdf:resource="http://purl.org/dc/dcmitype/StillImage" />
        <dc:title></dc:title>
      </cc:Work>
    </rdf:RDF>
  </metadata>
  <g
     inkscape:label="Layer 1"
     inkscape:groupmode="layer"
     id="layer1"
     transform="translate(0,-308.2677)">
    <g
       id="g3147"
       transform="translate(16.756252,42.238478)">
      <g
         transform="matrix(1.5,0,0,1.5,182.35846,116.65132)"
         id="text2985"
         style="font-size:72px;font-style:normal;font-variant:normal;font-weight:normal;font-stretch:normal;line-height:125%;letter-spacing:0px;word-spacing:0px;fill:#000000;fill-opacity:1;stroke:none;font-family:Bandy;-inkscape-font-specification:Bandy">
        <path
           inkscape:connector-curvature="0"
           id="path2990"
           d="m 196.39581,350.25643 c -1e-5,3.20812 0.94784,6.0152 2.84355,8.42126 2.11441,2.74634 4.98226,4.1195 8.60354,4.1195 1.79846,0 3.43896,-0.3767 4.92152,-1.13013 0.97212,-0.46176 2.06579,-1.28809 3.28101,-2.47899 l 0,-26.86784 7.14532,0 0,26.86784 4.95797,5.28608 -4.59341,5.03089 -3.71848,-3.75494 -0.72912,0.54683 -0.76557,0.61975 c -1.0937,0.68051 -2.50332,1.39747 -4.22886,2.15089 -2.13876,0.77772 -4.22888,1.16658 -6.27038,1.16658 -5.51698,0 -10.12254,-2.11443 -13.81671,-6.34329 -3.1838,-3.81569 -4.7757,-8.14176 -4.77569,-12.97823 l 0,-18.5924 7.14531,0 0,17.9362" />
        <path
           inkscape:connector-curvature="0"
           id="path2992"
           d="m 259.86824,352.0063 c -3e-5,-4.05871 -0.71699,-7.14529 -2.15088,-9.25975 -1.65269,-2.47895 -4.26535,-3.71845 -7.83798,-3.71848 -1.70128,3e-5 -3.24457,0.34029 -4.62987,1.02076 -1.02078,0.51041 -2.1023,1.3732 -3.24456,2.58836 l 0,26.86785 -7.14532,0 0,-26.86785 -5.03088,-5.28608 4.59342,-5.03088 3.93721,4.04658 1.2395,-1.20304 1.6405,-1.23949 0.91139,-0.51038 1.20304,-0.58329 c 2.18733,-0.8263 4.36251,-1.23946 6.52557,-1.2395 5.73567,4e-5 10.11035,1.92004 13.12405,5.76 2.62477,3.32965 3.93718,7.65572 3.93722,12.97823 l 0,19.1757 -7.07241,0 0,-17.49874" />
        <path
           inkscape:connector-curvature="0"
           id="path2994"
           d="m 304.59205,364.14605 c -1.53117,1.79848 -3.51193,3.28101 -5.94228,4.44759 -2.33319,1.09367 -4.87294,1.64051 -7.61924,1.64051 -4.95799,0 -9.29622,-1.85924 -13.01468,-5.57772 -3.71849,-3.71847 -5.57773,-8.29974 -5.57773,-13.7438 0,-5.46833 1.83494,-10.04959 5.50481,-13.7438 3.69417,-3.71844 8.0567,-5.57768 13.0876,-5.57772 1.60403,4e-5 2.97719,0.13371 4.11949,0.40101 1.19086,0.21878 2.43036,0.6684 3.71848,1.34886 2.1144,0.94789 4.02225,2.38181 5.72355,4.30178 l -5.35899,5.21316 c -1.14231,-1.21516 -2.22382,-2.1144 -3.24456,-2.69772 -0.31597,-0.1701 -0.65622,-0.31592 -1.02076,-0.43747 -0.36458,-0.14579 -0.77774,-0.26731 -1.23949,-0.36456 -0.43749,-0.12148 -0.86281,-0.20655 -1.27595,-0.25519 -0.38888,-0.0486 -0.8628,-0.0729 -1.42177,-0.0729 -2.94078,3e-5 -5.57774,1.17877 -7.91089,3.53621 -2.33317,2.35749 -3.49975,5.14027 -3.49974,8.34835 -10e-6,3.20812 1.14226,5.9909 3.42683,8.34835 2.30885,2.35748 4.97011,3.53621 7.9838,3.53621 1.50681,0 2.84352,-0.23088 4.01013,-0.69266 1.40959,-0.58328 2.92858,-1.68911 4.55696,-3.31747 l 4.99443,5.35899" />
        <path
           inkscape:connector-curvature="0"
           id="path2996"
           d="m 325.09823,331.59111 c 4.98226,4e-5 9.33263,1.90789 13.05114,5.72355 1.84706,1.89572 3.23237,3.97369 4.15595,6.23392 0.92351,2.26028 1.38528,4.72711 1.38532,7.40051 -4e-5,5.22533 -1.82282,9.74583 -5.46836,13.56152 -3.64559,3.81569 -8.02027,5.72354 -13.12405,5.72354 -5.10381,0 -9.49064,-1.88354 -13.1605,-5.65063 -3.64558,-3.76708 -5.46836,-8.31189 -5.46836,-13.63443 0,-5.20099 1.82278,-9.72149 5.46836,-13.56152 3.64556,-3.86427 8.03239,-5.79642 13.1605,-5.79646 m 11.37418,19.35798 c -3e-5,-3.3053 -1.118,-6.11238 -3.35392,-8.42127 -2.23598,-2.33314 -4.90939,-3.49972 -8.02026,-3.49975 -3.1109,3e-5 -5.79647,1.17877 -8.0567,3.53621 -2.23596,2.33319 -3.35394,5.12812 -3.35393,8.38481 -10e-6,3.18381 1.09366,5.95444 3.28101,8.31189 2.18733,2.35748 4.8972,3.53621 8.12962,3.53621 3.11087,0 5.78428,-1.16658 8.02026,-3.49975 2.23592,-2.35746 3.35389,-5.14024 3.35392,-8.34835" />
        <path
           inkscape:connector-curvature="0"
           id="path2998"
           d="m 374.32681,317.4463 7.07241,0 0,44.62177 c -1.31244,2.26026 -3.43902,4.19241 -6.37975,5.79646 -2.91648,1.57975 -5.88154,2.36962 -8.89519,2.36962 -5.24964,0 -9.66077,-1.90785 -13.23342,-5.72354 -3.57266,-3.84 -5.35899,-8.37265 -5.35899,-13.59798 0,-5.07947 1.82278,-9.56352 5.46836,-13.45215 3.66986,-3.91288 8.04454,-5.86933 13.12405,-5.86937 l 2.11443,0.10937 c 0.31593,4e-5 0.66833,0.0486 1.05721,0.14582 l 1.20304,0.25519 c 1.65263,0.34029 2.92858,0.87497 3.82785,1.60405 l 0,-16.25924 m -8.09316,21.58177 c -3.11091,3e-5 -5.80863,1.20307 -8.09317,3.60912 -2.28457,2.38179 -3.42684,5.14027 -3.42683,8.27544 -10e-6,1.53116 0.25518,2.98938 0.76557,4.37468 0.51036,1.38533 1.34884,2.69774 2.51544,3.93722 2.18733,2.38178 4.8972,3.57266 8.12962,3.57266 0.85061,0 1.61618,-0.0729 2.29671,-0.21874 0.68048,-0.14581 1.4582,-0.41315 2.33316,-0.80202 1.53111,-0.6805 2.722,-1.54328 3.57266,-2.58836 l 0,-16.55088 c -1.50686,-1.38529 -2.90433,-2.33314 -4.1924,-2.84355 -1.28813,-0.51035 -2.58838,-0.76554 -3.90076,-0.76557" />
        <path
           inkscape:connector-curvature="0"
           id="path3000"
           d="m 387.46937,332.32023 10.71798,0 0,37.18481 -7.14532,0 0,-29.74785 -3.57266,0 0,-7.43696 m 3.57266,-14.87393 7.14532,0 0,7.43696 -7.14532,0 0,-7.43696" />
        <path
           inkscape:connector-curvature="0"
           id="path3002"
           d="m 434.24324,352.0063 c -3e-5,-4.05871 -0.71699,-7.14529 -2.15088,-9.25975 -1.65269,-2.47895 -4.26535,-3.71845 -7.83798,-3.71848 -1.70128,3e-5 -3.24457,0.34029 -4.62987,1.02076 -1.02078,0.51041 -2.1023,1.3732 -3.24456,2.58836 l 0,26.86785 -7.14532,0 0,-26.86785 -5.03088,-5.28608 4.59342,-5.03088 3.93721,4.04658 1.2395,-1.20304 1.6405,-1.23949 0.91139,-0.51038 1.20304,-0.58329 c 2.18733,-0.8263 4.36251,-1.23946 6.52557,-1.2395 5.73567,4e-5 10.11035,1.92004 13.12405,5.76 2.62477,3.32965 3.93718,7.65572 3.93722,12.97823 l 0,19.1757 -7.07241,0 0,-17.49874" />
      </g>
      <g
         id="g3238"
         transform="matrix(0.65034293,0,0,0.65034293,174.51771,508.08675)">
        <path
           style="fill:#fdb913"
           inkscape:connector-curvature="0"
           id="path236"
           d="m 183.935,40.216988 v 32.689 c 56.719,0 102.7,45.980002 102.7,102.704992 0,56.721 -45.981,102.702 -102.7,102.702 v 32.684 c 74.777,0 135.395,-60.611 135.395,-135.386 0,-74.77699 -60.618,-135.393992 -135.395,-135.393992 z" />
        <path
           style="fill:#002d62"
           inkscape:connector-curvature="0"
           id="path238"
           d="m 295.692,61.364988 -16.824,16.824 c 53.116,53.116002 53.116,139.239992 0,192.346992 -4.957,4.957 -10.194,9.442 -15.674,13.477 -52.525,38.496 -126.722,34.02 -174.202,-13.456 -52.433,-52.435 -52.433,-137.45899 0,-189.888992 l -16.607,-16.613 C 11.19,125.25499 10.806,224.18398 71.166,285.89098 l -1.473,1.464 c 62.414,62.419 163.591,62.419 225.999,0 62.414,-62.399 62.414,-163.58599 0,-225.989992 z" />
        <path
           style="fill:#00afdb"
           inkscape:connector-curvature="0"
           id="path240"
           d="m 333.388,222.05598 c -25.649,82.539 -113.36,128.661 -195.9,103.002 C 54.949,299.41698 8.827,211.70498 34.482,129.16299 l -26.147,-8.124 c -30.143,96.97299 24.045,200.03299 121.029,230.16899 96.985,30.136 200.036,-24.044 230.172,-121.023 l -26.148,-8.129 z" />
        <path
           style="fill:url(#linearGradient3247)"
           inkscape:connector-curvature="0"
           id="path249"
           d="m 183.935,247.57498 c -39.748,0 -71.967,-32.213 -71.967,-71.964 H 68.225 c 0,63.896 51.802,115.708 115.71,115.708 v -43.744 z" />
        <path
           style="fill:#f5a01a"
           inkscape:connector-curvature="0"
           id="path251"
           d="m 222.726,214.40498 c -21.424,21.42 -56.157,21.42 -77.582,0 -21.429,-21.433 -21.429,-56.165 0,-77.58899 l -23.582,-23.578 c -34.446,34.44599 -34.446,90.29099 0,124.74399 l 0,0 c 34.451,34.441 90.295,34.441 124.747,0 l -23.583,-23.577 z" />
        <path
           style="fill:#f37421"
           inkscape:connector-curvature="0"
           id="path253"
           d="m 121.563,237.98198 c -17.221,-17.229 -25.837,-39.796 -25.837,-62.37 h -27.5 c 0,63.896 51.802,115.708 115.71,115.708 v -27.507 c -22.574,0 -45.144,-8.611 -62.373,-25.831 z" />
        <path
           style="fill:#f37421"
           inkscape:connector-curvature="0"
           id="path255"
           d="m 227.705,131.84699 c 12.082,12.08299 18.123,27.92299 18.123,43.76399 h 19.298 c 0,-44.84799 -36.348,-81.189992 -81.19,-81.189992 v 19.292002 c 15.84,10e-4 31.675,6.052 43.769,18.134 z" />
      </g>
    </g>
  </g>
</svg>
