999
Inkscape export via "Better DXF Output" (bob@bobcookdev.com)
  0
SECTION
  2
HEADER
  9
$ACADVER
  1
AC1014
  9
$HANDSEED
  5
FFFF
  0
ENDSEC
  0
SECTION
  2
TABLES
  0
TABLE
  2
VPORT
  5
8
330
0
100
AcDbSymbolTable
 70
     4
  0
VPORT
  5
2E
330
8
100
AcDbSymbolTableRecord
100
AcDbViewportTableRecord
  2
*ACTIVE
 70
     0
 10
0.0
 20
0.0
 11
1.0
 21
1.0
 12
4.25
 22
5.5
 13
0.0
 23
0.0
 14
10.0
 24
10.0
 15
10.0
 25
10.0
 16
0.0
 26
0.0
 36
1.0
 17
0.0
 27
0.0
 37
0.0
 40
11
 41
1.24
 42
50.0
 43
0.0
 44
0.0
 50
0.0
 51
0.0
 71
     0
 72
   100
 73
     1
 74
     3
 75
     0
 76
     0
 77
     0
 78
     0
  0
ENDTAB
  0
TABLE
  2
LTYPE
  5
5
330
0
100
AcDbSymbolTable
 70
     1
  0
LTYPE
  5
14
330
5
100
AcDbSymbolTableRecord
100
AcDbLinetypeTableRecord
  2
BYBLOCK
 70
     0
  3

 72
    65
 73
     0
 40
0.0
  0
LTYPE
  5
15
330
5
100
AcDbSymbolTableRecord
100
AcDbLinetypeTableRecord
  2
BYLAYER
 70
     0
  3

 72
    65
 73
     0
 40
0.0
  0
LTYPE
  5
16
330
5
100
AcDbSymbolTableRecord
100
AcDbLinetypeTableRecord
  2
CONTINUOUS
 70
     0
  3
Solid line
 72
    65
 73
     0
 40
0.0
  0
ENDTAB
  0
TABLE
  2
LAYER
  5
2
330
0
100
AcDbSymbolTable
 70
1
  0
LAYER
  5
10
330
2
100
AcDbSymbolTableRecord
100
AcDbLayerTableRecord
  2
0
 70
     0
 62
     7
  6
CONTINUOUS
  0
ENDTAB
  0
TABLE
  2
STYLE
  5
3
330
0
100
AcDbSymbolTable
 70
     1
  0
STYLE
  5
11
330
3
100
AcDbSymbolTableRecord
100
AcDbTextStyleTableRecord
  2
STANDARD
 70
     0
 40
0.0
 41
1.0
 50
0.0
 71
     0
 42
2.5
  3
txt
  4

  0
ENDTAB
  0
TABLE
  2
VIEW
  5
6
330
0
100
AcDbSymbolTable
 70
     0
  0
ENDTAB
  0
TABLE
  2
UCS
  5
7
330
0
100
AcDbSymbolTable
 70
     0
  0
ENDTAB
  0
TABLE
  2
APPID
  5
9
330
0
100
AcDbSymbolTable
 70
     2
  0
APPID
  5
12
330
9
100
AcDbSymbolTableRecord
100
AcDbRegAppTableRecord
  2
ACAD
 70
     0
  0
ENDTAB
  0
TABLE
  2
DIMSTYLE
  5
A
330
0
100
AcDbSymbolTable
 70
     1
  0
DIMSTYLE
105
27
330
A
100
AcDbSymbolTableRecord
100
AcDbDimStyleTableRecord
  2
ISO-25
 70
     0
  3

  4

  5

  6

  7

 40
1.0
 41
2.5
 42
0.625
 43
3.75
 44
1.25
 45
0.0
 46
0.0
 47
0.0
 48
0.0
140
2.5
141
2.5
142
0.0
143
0.03937007874016
144
1.0
145
0.0
146
1.0
147
0.625
 71
     0
 72
     0
 73
     0
 74
     0
 75
     0
 76
     0
 77
     1
 78
     8
170
     0
171
     3
172
     1
173
     0
174
     0
175
     0
176
     0
177
     0
178
     0
270
     2
271
     2
272
     2
273
     2
274
     3
340
11
275
     0
280
     0
281
     0
282
     0
283
     0
284
     8
285
     0
286
     0
287
     3
288
     0
  0
ENDTAB
  0
TABLE
  2
BLOCK_RECORD
  5
1
330
0
100
AcDbSymbolTable
 70
     1
  0
BLOCK_RECORD
  5
1F
330
1
100
AcDbSymbolTableRecord
100
AcDbBlockTableRecord
  2
*MODEL_SPACE
  0
BLOCK_RECORD
  5
1B
330
1
100
AcDbSymbolTableRecord
100
AcDbBlockTableRecord
  2
*PAPER_SPACE
  0
ENDTAB
  0
ENDSEC
  0
SECTION
  2
BLOCKS
  0
BLOCK
  5
20
330
1F
100
AcDbEntity
  8
0
100
AcDbBlockBegin
  2
*MODEL_SPACE
 70
     0
 10
0.0
 20
0.0
 30
0.0
  3
*MODEL_SPACE
  1

  0
ENDBLK
  5
21
330
1F
100
AcDbEntity
  8
0
100
AcDbBlockEnd
  0
BLOCK
  5
1C
330
1B
100
AcDbEntity
 67
     1
  8
0
100
AcDbBlockBegin
  2
*PAPER_SPACE
  1

  0
ENDBLK
  5
1D
330
1B
100
AcDbEntity
 67
     1
  8
0
100
AcDbBlockEnd
  0
ENDSEC
  0
SECTION
  2
ENTITIES
0
LINE
8
Layer 1
62
4
5
100
100
AcDbEntity
100
AcDbLine
10
86.068527
20
-43.634787
30
0.0
11
86.269153
21
-44.908004
31
0.0
0
LINE
8
Layer 1
62
4
5
101
100
AcDbEntity
100
AcDbLine
10
86.269153
20
-44.908004
30
0.0
11
86.871040
21
-46.011454
31
0.0
0
LINE
8
Layer 1
62
4
5
102
100
AcDbEntity
100
AcDbLine
10
86.871040
20
-46.011454
30
0.0
11
87.358459
21
-46.520099
31
0.0
0
LINE
8
Layer 1
62
4
5
103
100
AcDbEntity
100
AcDbLine
10
87.358459
20
-46.520099
30
0.0
11
87.925618
21
-46.883416
31
0.0
0
LINE
8
Layer 1
62
4
5
104
100
AcDbEntity
100
AcDbLine
10
87.925618
20
-46.883416
30
0.0
11
88.572514
21
-47.101405
31
0.0
0
LINE
8
Layer 1
62
4
5
105
100
AcDbEntity
100
AcDbLine
10
88.572514
20
-47.101405
30
0.0
11
89.299150
21
-47.174068
31
0.0
0
LINE
8
Layer 1
62
4
5
106
100
AcDbEntity
100
AcDbLine
10
89.299150
20
-47.174068
30
0.0
11
90.027064
21
-47.094331
31
0.0
0
LINE
8
Layer 1
62
4
5
107
100
AcDbEntity
100
AcDbLine
10
90.027064
20
-47.094331
30
0.0
11
90.688112
21
-46.855121
31
0.0
0
LINE
8
Layer 1
62
4
5
108
100
AcDbEntity
100
AcDbLine
10
90.688112
20
-46.855121
30
0.0
11
91.614086
21
-46.155495
31
0.0
0
LINE
8
Layer 1
62
4
5
109
100
AcDbEntity
100
AcDbLine
10
91.614086
20
-46.155495
30
0.0
11
91.614086
21
-38.572790
31
0.0
0
LINE
8
Layer 1
62
4
5
10a
100
AcDbEntity
100
AcDbLine
10
91.614086
20
-38.572790
30
0.0
11
93.630654
21
-38.572790
31
0.0
0
LINE
8
Layer 1
62
4
5
10b
100
AcDbEntity
100
AcDbLine
10
93.630654
20
-38.572790
30
0.0
11
93.630654
21
-46.155495
31
0.0
0
LINE
8
Layer 1
62
4
5
10c
100
AcDbEntity
100
AcDbLine
10
93.630654
20
-46.155495
30
0.0
11
95.029906
21
-47.647344
31
0.0
0
LINE
8
Layer 1
62
4
5
10d
100
AcDbEntity
100
AcDbLine
10
95.029906
20
-47.647344
30
0.0
11
93.733541
21
-49.067170
31
0.0
0
LINE
8
Layer 1
62
4
5
10e
100
AcDbEntity
100
AcDbLine
10
93.733541
20
-49.067170
30
0.0
11
92.684103
21
-48.007445
31
0.0
0
LINE
8
Layer 1
62
4
5
10f
100
AcDbEntity
100
AcDbLine
10
92.684103
20
-48.007445
30
0.0
11
92.478329
21
-48.161773
31
0.0
0
LINE
8
Layer 1
62
4
5
110
100
AcDbEntity
100
AcDbLine
10
92.478329
20
-48.161773
30
0.0
11
92.262269
21
-48.336680
31
0.0
0
LINE
8
Layer 1
62
4
5
111
100
AcDbEntity
100
AcDbLine
10
92.262269
20
-48.336680
30
0.0
11
91.068790
21
-48.943709
31
0.0
0
LINE
8
Layer 1
62
4
5
112
100
AcDbEntity
100
AcDbLine
10
91.068790
20
-48.943709
30
0.0
11
90.173677
21
-49.190635
31
0.0
0
LINE
8
Layer 1
62
4
5
113
100
AcDbEntity
100
AcDbLine
10
90.173677
20
-49.190635
30
0.0
11
89.299150
21
-49.272944
31
0.0
0
LINE
8
Layer 1
62
4
5
114
100
AcDbEntity
100
AcDbLine
10
89.299150
20
-49.272944
30
0.0
11
88.179618
21
-49.161055
31
0.0
0
LINE
8
Layer 1
62
4
5
115
100
AcDbEntity
100
AcDbLine
10
88.179618
20
-49.161055
30
0.0
11
87.156544
21
-48.825389
31
0.0
0
LINE
8
Layer 1
62
4
5
116
100
AcDbEntity
100
AcDbLine
10
87.156544
20
-48.825389
30
0.0
11
86.229928
21
-48.265947
31
0.0
0
LINE
8
Layer 1
62
4
5
117
100
AcDbEntity
100
AcDbLine
10
86.229928
20
-48.265947
30
0.0
11
85.399767
21
-47.482726
31
0.0
0
LINE
8
Layer 1
62
4
5
118
100
AcDbEntity
100
AcDbLine
10
85.399767
20
-47.482726
30
0.0
11
84.810101
21
-46.648064
31
0.0
0
LINE
8
Layer 1
62
4
5
119
100
AcDbEntity
100
AcDbLine
10
84.810101
20
-46.648064
30
0.0
11
84.388911
21
-45.759387
31
0.0
0
LINE
8
Layer 1
62
4
5
11a
100
AcDbEntity
100
AcDbLine
10
84.388911
20
-45.759387
30
0.0
11
84.136198
21
-44.816692
31
0.0
0
LINE
8
Layer 1
62
4
5
11b
100
AcDbEntity
100
AcDbLine
10
84.136198
20
-44.816692
30
0.0
11
84.051961
21
-43.819982
31
0.0
0
LINE
8
Layer 1
62
4
5
11c
100
AcDbEntity
100
AcDbLine
10
84.051961
20
-43.819982
30
0.0
11
84.051961
21
-38.572790
31
0.0
0
LINE
8
Layer 1
62
4
5
11d
100
AcDbEntity
100
AcDbLine
10
84.051961
20
-38.572790
30
0.0
11
86.068527
21
-38.572790
31
0.0
0
LINE
8
Layer 1
62
4
5
11e
100
AcDbEntity
100
AcDbLine
10
86.068527
20
-38.572790
30
0.0
11
86.068527
21
-43.634787
31
0.0
0
LINE
8
Layer 1
62
4
5
11f
100
AcDbEntity
100
AcDbLine
10
103.981857
20
-44.128639
30
0.0
11
103.830094
21
-42.616219
31
0.0
0
LINE
8
Layer 1
62
4
5
120
100
AcDbEntity
100
AcDbLine
10
103.830094
20
-42.616219
30
0.0
11
103.374831
21
-41.515332
31
0.0
0
LINE
8
Layer 1
62
4
5
121
100
AcDbEntity
100
AcDbLine
10
103.374831
20
-41.515332
30
0.0
11
102.974213
21
-41.056208
31
0.0
0
LINE
8
Layer 1
62
4
5
122
100
AcDbEntity
100
AcDbLine
10
102.974213
20
-41.056208
30
0.0
11
102.471999
21
-40.728260
31
0.0
0
LINE
8
Layer 1
62
4
5
123
100
AcDbEntity
100
AcDbLine
10
102.471999
20
-40.728260
30
0.0
11
101.162779
21
-40.465895
31
0.0
0
LINE
8
Layer 1
62
4
5
124
100
AcDbEntity
100
AcDbLine
10
101.162779
20
-40.465895
30
0.0
11
100.476011
21
-40.537921
31
0.0
0
LINE
8
Layer 1
62
4
5
125
100
AcDbEntity
100
AcDbLine
10
100.476011
20
-40.537921
30
0.0
11
99.856126
21
-40.753976
31
0.0
0
LINE
8
Layer 1
62
4
5
126
100
AcDbEntity
100
AcDbLine
10
99.856126
20
-40.753976
30
0.0
11
98.940439
21
-41.484468
31
0.0
0
LINE
8
Layer 1
62
4
5
127
100
AcDbEntity
100
AcDbLine
10
98.940439
20
-41.484468
30
0.0
11
98.940439
21
-49.067170
31
0.0
0
LINE
8
Layer 1
62
4
5
128
100
AcDbEntity
100
AcDbLine
10
98.940439
20
-49.067170
30
0.0
11
96.923874
21
-49.067170
31
0.0
0
LINE
8
Layer 1
62
4
5
129
100
AcDbEntity
100
AcDbLine
10
96.923874
20
-49.067170
30
0.0
11
96.923874
21
-41.484468
31
0.0
0
LINE
8
Layer 1
62
4
5
12a
100
AcDbEntity
100
AcDbLine
10
96.923874
20
-41.484468
30
0.0
11
95.504045
21
-39.992619
31
0.0
0
LINE
8
Layer 1
62
4
5
12b
100
AcDbEntity
100
AcDbLine
10
95.504045
20
-39.992619
30
0.0
11
96.800410
21
-38.572790
31
0.0
0
LINE
8
Layer 1
62
4
5
12c
100
AcDbEntity
100
AcDbLine
10
96.800410
20
-38.572790
30
0.0
11
97.911579
21
-39.714828
31
0.0
0
LINE
8
Layer 1
62
4
5
12d
100
AcDbEntity
100
AcDbLine
10
97.911579
20
-39.714828
30
0.0
11
98.261393
21
-39.375303
31
0.0
0
LINE
8
Layer 1
62
4
5
12e
100
AcDbEntity
100
AcDbLine
10
98.261393
20
-39.375303
30
0.0
11
98.724379
21
-39.025489
31
0.0
0
LINE
8
Layer 1
62
4
5
12f
100
AcDbEntity
100
AcDbLine
10
98.724379
20
-39.025489
30
0.0
11
98.981593
21
-38.881448
31
0.0
0
LINE
8
Layer 1
62
4
5
130
100
AcDbEntity
100
AcDbLine
10
98.981593
20
-38.881448
30
0.0
11
99.321118
21
-38.716831
31
0.0
0
LINE
8
Layer 1
62
4
5
131
100
AcDbEntity
100
AcDbLine
10
99.321118
20
-38.716831
30
0.0
11
100.244517
21
-38.454480
31
0.0
0
LINE
8
Layer 1
62
4
5
132
100
AcDbEntity
100
AcDbLine
10
100.244517
20
-38.454480
30
0.0
11
101.162779
21
-38.367019
31
0.0
0
LINE
8
Layer 1
62
4
5
133
100
AcDbEntity
100
AcDbLine
10
101.162779
20
-38.367019
30
0.0
11
102.304810
21
-38.468626
31
0.0
0
LINE
8
Layer 1
62
4
5
134
100
AcDbEntity
100
AcDbLine
10
102.304810
20
-38.468626
30
0.0
11
103.302803
21
-38.773428
31
0.0
0
LINE
8
Layer 1
62
4
5
135
100
AcDbEntity
100
AcDbLine
10
103.302803
20
-38.773428
30
0.0
11
104.156759
21
-39.281426
31
0.0
0
LINE
8
Layer 1
62
4
5
136
100
AcDbEntity
100
AcDbLine
10
104.156759
20
-39.281426
30
0.0
11
104.866677
21
-39.992619
31
0.0
0
LINE
8
Layer 1
62
4
5
137
100
AcDbEntity
100
AcDbLine
10
104.866677
20
-39.992619
30
0.0
11
105.352809
21
-40.750122
31
0.0
0
LINE
8
Layer 1
62
4
5
138
100
AcDbEntity
100
AcDbLine
10
105.352809
20
-40.750122
30
0.0
11
105.700048
21
-41.613081
31
0.0
0
LINE
8
Layer 1
62
4
5
139
100
AcDbEntity
100
AcDbLine
10
105.700048
20
-41.613081
30
0.0
11
105.908394
21
-42.581494
31
0.0
0
LINE
8
Layer 1
62
4
5
13a
100
AcDbEntity
100
AcDbLine
10
105.908394
20
-42.581494
30
0.0
11
105.977848
21
-43.655364
31
0.0
0
LINE
8
Layer 1
62
4
5
13b
100
AcDbEntity
100
AcDbLine
10
105.977848
20
-43.655364
30
0.0
11
105.977848
21
-49.067170
31
0.0
0
LINE
8
Layer 1
62
4
5
13c
100
AcDbEntity
100
AcDbLine
10
105.977848
20
-49.067170
30
0.0
11
103.981857
21
-49.067170
31
0.0
0
LINE
8
Layer 1
62
4
5
13d
100
AcDbEntity
100
AcDbLine
10
103.981857
20
-49.067170
30
0.0
11
103.981857
21
-44.128639
31
0.0
0
LINE
8
Layer 1
62
4
5
13e
100
AcDbEntity
100
AcDbLine
10
116.603910
20
-47.554747
30
0.0
11
115.860551
21
-48.249227
31
0.0
0
LINE
8
Layer 1
62
4
5
13f
100
AcDbEntity
100
AcDbLine
10
115.860551
20
-48.249227
30
0.0
11
114.926866
21
-48.809955
31
0.0
0
LINE
8
Layer 1
62
4
5
140
100
AcDbEntity
100
AcDbLine
10
114.926866
20
-48.809955
30
0.0
11
113.895429
21
-49.157196
31
0.0
0
LINE
8
Layer 1
62
4
5
141
100
AcDbEntity
100
AcDbLine
10
113.895429
20
-49.157196
30
0.0
11
112.776548
21
-49.272944
31
0.0
0
LINE
8
Layer 1
62
4
5
142
100
AcDbEntity
100
AcDbLine
10
112.776548
20
-49.272944
30
0.0
11
111.759902
21
-49.174559
31
0.0
0
LINE
8
Layer 1
62
4
5
143
100
AcDbEntity
100
AcDbLine
10
111.759902
20
-49.174559
30
0.0
11
110.808849
21
-48.879405
31
0.0
0
LINE
8
Layer 1
62
4
5
144
100
AcDbEntity
100
AcDbLine
10
110.808849
20
-48.879405
30
0.0
11
109.923387
21
-48.387481
31
0.0
0
LINE
8
Layer 1
62
4
5
145
100
AcDbEntity
100
AcDbLine
10
109.923387
20
-48.387481
30
0.0
11
109.103516
21
-47.698787
31
0.0
0
LINE
8
Layer 1
62
4
5
146
100
AcDbEntity
100
AcDbLine
10
109.103516
20
-47.698787
30
0.0
11
108.414820
21
-46.866053
31
0.0
0
LINE
8
Layer 1
62
4
5
147
100
AcDbEntity
100
AcDbLine
10
108.414820
20
-46.866053
30
0.0
11
107.922896
21
-45.942008
31
0.0
0
LINE
8
Layer 1
62
4
5
148
100
AcDbEntity
100
AcDbLine
10
107.922896
20
-45.942008
30
0.0
11
107.627741
21
-44.926651
31
0.0
0
LINE
8
Layer 1
62
4
5
149
100
AcDbEntity
100
AcDbLine
10
107.627741
20
-44.926651
30
0.0
11
107.529356
21
-43.819982
31
0.0
0
LINE
8
Layer 1
62
4
5
14a
100
AcDbEntity
100
AcDbLine
10
107.529356
20
-43.819982
30
0.0
11
107.626455
21
-42.709459
31
0.0
0
LINE
8
Layer 1
62
4
5
14b
100
AcDbEntity
100
AcDbLine
10
107.626455
20
-42.709459
30
0.0
11
107.917752
21
-41.692818
31
0.0
0
LINE
8
Layer 1
62
4
5
14c
100
AcDbEntity
100
AcDbLine
10
107.917752
20
-41.692818
30
0.0
11
108.403245
21
-40.770057
31
0.0
0
LINE
8
Layer 1
62
4
5
14d
100
AcDbEntity
100
AcDbLine
10
108.403245
20
-40.770057
30
0.0
11
109.082936
21
-39.941176
31
0.0
0
LINE
8
Layer 1
62
4
5
14e
100
AcDbEntity
100
AcDbLine
10
109.082936
20
-39.941176
30
0.0
11
109.900236
21
-39.252489
31
0.0
0
LINE
8
Layer 1
62
4
5
14f
100
AcDbEntity
100
AcDbLine
10
109.900236
20
-39.252489
30
0.0
11
110.788271
21
-38.760567
31
0.0
0
LINE
8
Layer 1
62
4
5
150
100
AcDbEntity
100
AcDbLine
10
110.788271
20
-38.760567
30
0.0
11
111.747042
21
-38.465410
31
0.0
0
LINE
8
Layer 1
62
4
5
151
100
AcDbEntity
100
AcDbLine
10
111.747042
20
-38.465410
30
0.0
11
112.776548
21
-38.367019
31
0.0
0
LINE
8
Layer 1
62
4
5
152
100
AcDbEntity
100
AcDbLine
10
112.776548
20
-38.367019
30
0.0
11
113.939159
21
-38.480193
31
0.0
0
LINE
8
Layer 1
62
4
5
153
100
AcDbEntity
100
AcDbLine
10
113.939159
20
-38.480193
30
0.0
11
114.988597
21
-38.860871
31
0.0
0
LINE
8
Layer 1
62
4
5
154
100
AcDbEntity
100
AcDbLine
10
114.988597
20
-38.860871
30
0.0
11
115.839973
21
-39.365022
31
0.0
0
LINE
8
Layer 1
62
4
5
155
100
AcDbEntity
100
AcDbLine
10
115.839973
20
-39.365022
30
0.0
11
116.603910
21
-40.074926
31
0.0
0
LINE
8
Layer 1
62
4
5
156
100
AcDbEntity
100
AcDbLine
10
116.603910
20
-40.074926
30
0.0
11
115.091484
21
-41.546199
31
0.0
0
LINE
8
Layer 1
62
4
5
157
100
AcDbEntity
100
AcDbLine
10
115.091484
20
-41.546199
30
0.0
11
114.175797
21
-40.784842
31
0.0
0
LINE
8
Layer 1
62
4
5
158
100
AcDbEntity
100
AcDbLine
10
114.175797
20
-40.784842
30
0.0
11
113.887716
21
-40.661379
31
0.0
0
LINE
8
Layer 1
62
4
5
159
100
AcDbEntity
100
AcDbLine
10
113.887716
20
-40.661379
30
0.0
11
113.537904
21
-40.558492
31
0.0
0
LINE
8
Layer 1
62
4
5
15a
100
AcDbEntity
100
AcDbLine
10
113.537904
20
-40.558492
30
0.0
11
113.177803
21
-40.486471
31
0.0
0
LINE
8
Layer 1
62
4
5
15b
100
AcDbEntity
100
AcDbLine
10
113.177803
20
-40.486471
30
0.0
11
112.776548
21
-40.465897
31
0.0
0
LINE
8
Layer 1
62
4
5
15c
100
AcDbEntity
100
AcDbLine
10
112.776548
20
-40.465897
30
0.0
11
111.595926
21
-40.715402
31
0.0
0
LINE
8
Layer 1
62
4
5
15d
100
AcDbEntity
100
AcDbLine
10
111.595926
20
-40.715402
30
0.0
11
110.543919
21
-41.463892
31
0.0
0
LINE
8
Layer 1
62
4
5
15e
100
AcDbEntity
100
AcDbLine
10
110.543919
20
-41.463892
30
0.0
11
109.803138
21
-42.551918
31
0.0
0
LINE
8
Layer 1
62
4
5
15f
100
AcDbEntity
100
AcDbLine
10
109.803138
20
-42.551918
30
0.0
11
109.556214
21
-43.819984
31
0.0
0
LINE
8
Layer 1
62
4
5
160
100
AcDbEntity
100
AcDbLine
10
109.556214
20
-43.819984
30
0.0
11
109.797994
21
-45.088059
31
0.0
0
LINE
8
Layer 1
62
4
5
161
100
AcDbEntity
100
AcDbLine
10
109.797994
20
-45.088059
30
0.0
11
110.523342
21
-46.176074
31
0.0
0
LINE
8
Layer 1
62
4
5
162
100
AcDbEntity
100
AcDbLine
10
110.523342
20
-46.176074
30
0.0
11
111.575349
21
-46.924573
31
0.0
0
LINE
8
Layer 1
62
4
5
163
100
AcDbEntity
100
AcDbLine
10
111.575349
20
-46.924573
30
0.0
11
112.776548
21
-47.174071
31
0.0
0
LINE
8
Layer 1
62
4
5
164
100
AcDbEntity
100
AcDbLine
10
112.776548
20
-47.174071
30
0.0
11
113.908295
21
-46.978587
31
0.0
0
LINE
8
Layer 1
62
4
5
165
100
AcDbEntity
100
AcDbLine
10
113.908295
20
-46.978587
30
0.0
11
114.528178
21
-46.621059
31
0.0
0
LINE
8
Layer 1
62
4
5
166
100
AcDbEntity
100
AcDbLine
10
114.528178
20
-46.621059
30
0.0
11
115.194371
21
-46.042323
31
0.0
0
LINE
8
Layer 1
62
4
5
167
100
AcDbEntity
100
AcDbLine
10
115.194371
20
-46.042323
30
0.0
11
116.603910
21
-47.554750
31
0.0
0
LINE
8
Layer 1
62
4
5
168
100
AcDbEntity
100
AcDbLine
10
122.391212
20
-38.367019
30
0.0
11
123.412352
21
-38.467982
31
0.0
0
LINE
8
Layer 1
62
4
5
169
100
AcDbEntity
100
AcDbLine
10
123.412352
20
-38.467982
30
0.0
11
124.366618
21
-38.770854
31
0.0
0
LINE
8
Layer 1
62
4
5
16a
100
AcDbEntity
100
AcDbLine
10
124.366618
20
-38.770854
30
0.0
11
125.254011
21
-39.275637
31
0.0
0
LINE
8
Layer 1
62
4
5
16b
100
AcDbEntity
100
AcDbLine
10
125.254011
20
-39.275637
30
0.0
11
126.074531
21
-39.982329
31
0.0
0
LINE
8
Layer 1
62
4
5
16c
100
AcDbEntity
100
AcDbLine
10
126.074531
20
-39.982329
30
0.0
11
126.758717
21
-40.823430
31
0.0
0
LINE
8
Layer 1
62
4
5
16d
100
AcDbEntity
100
AcDbLine
10
126.758717
20
-40.823430
30
0.0
11
127.247433
21
-41.741683
31
0.0
0
LINE
8
Layer 1
62
4
5
16e
100
AcDbEntity
100
AcDbLine
10
127.247433
20
-41.741683
30
0.0
11
127.540651
21
-42.742254
31
0.0
0
LINE
8
Layer 1
62
4
5
16f
100
AcDbEntity
100
AcDbLine
10
127.540651
20
-42.742254
30
0.0
11
127.638401
21
-43.830269
31
0.0
0
LINE
8
Layer 1
62
4
5
170
100
AcDbEntity
100
AcDbLine
10
127.638401
20
-43.830269
30
0.0
11
127.541939
21
-44.899000
31
0.0
0
LINE
8
Layer 1
62
4
5
171
100
AcDbEntity
100
AcDbLine
10
127.541939
20
-44.899000
30
0.0
11
127.252570
21
-45.893138
31
0.0
0
LINE
8
Layer 1
62
4
5
172
100
AcDbEntity
100
AcDbLine
10
127.252570
20
-45.893138
30
0.0
11
126.770294
21
-46.812681
31
0.0
0
LINE
8
Layer 1
62
4
5
173
100
AcDbEntity
100
AcDbLine
10
126.770294
20
-46.812681
30
0.0
11
126.095111
21
-47.657631
31
0.0
0
LINE
8
Layer 1
62
4
5
174
100
AcDbEntity
100
AcDbLine
10
126.095111
20
-47.657631
30
0.0
11
125.284878
21
-48.364330
31
0.0
0
LINE
8
Layer 1
62
4
5
175
100
AcDbEntity
100
AcDbLine
10
125.284878
20
-48.364330
30
0.0
11
124.397485
21
-48.869116
31
0.0
0
LINE
8
Layer 1
62
4
5
176
100
AcDbEntity
100
AcDbLine
10
124.397485
20
-48.869116
30
0.0
11
123.432929
21
-49.171987
31
0.0
0
LINE
8
Layer 1
62
4
5
177
100
AcDbEntity
100
AcDbLine
10
123.432929
20
-49.171987
30
0.0
11
122.391212
21
-49.272944
31
0.0
0
LINE
8
Layer 1
62
4
5
178
100
AcDbEntity
100
AcDbLine
10
122.391212
20
-49.272944
30
0.0
11
121.348844
21
-49.173273
31
0.0
0
LINE
8
Layer 1
62
4
5
179
100
AcDbEntity
100
AcDbLine
10
121.348844
20
-49.173273
30
0.0
11
120.382357
21
-48.874259
31
0.0
0
LINE
8
Layer 1
62
4
5
17a
100
AcDbEntity
100
AcDbLine
10
120.382357
20
-48.874259
30
0.0
11
119.491751
21
-48.375904
31
0.0
0
LINE
8
Layer 1
62
4
5
17b
100
AcDbEntity
100
AcDbLine
10
119.491751
20
-48.375904
30
0.0
11
118.677024
21
-47.678208
31
0.0
0
LINE
8
Layer 1
62
4
5
17c
100
AcDbEntity
100
AcDbLine
10
118.677024
20
-47.678208
30
0.0
11
118.001834
21
-46.839688
31
0.0
0
LINE
8
Layer 1
62
4
5
17d
100
AcDbEntity
100
AcDbLine
10
118.001834
20
-46.839688
30
0.0
11
117.519555
21
-45.918859
31
0.0
0
LINE
8
Layer 1
62
4
5
17e
100
AcDbEntity
100
AcDbLine
10
117.519555
20
-45.918859
30
0.0
11
117.230187
21
-44.915719
31
0.0
0
LINE
8
Layer 1
62
4
5
17f
100
AcDbEntity
100
AcDbLine
10
117.230187
20
-44.915719
30
0.0
11
117.133731
21
-43.830269
31
0.0
0
LINE
8
Layer 1
62
4
5
180
100
AcDbEntity
100
AcDbLine
10
117.133731
20
-43.830269
30
0.0
11
117.230187
21
-42.765403
31
0.0
0
LINE
8
Layer 1
62
4
5
181
100
AcDbEntity
100
AcDbLine
10
117.230187
20
-42.765403
30
0.0
11
117.519555
21
-41.772554
31
0.0
0
LINE
8
Layer 1
62
4
5
182
100
AcDbEntity
100
AcDbLine
10
117.519555
20
-41.772554
30
0.0
11
118.001834
21
-40.851722
31
0.0
0
LINE
8
Layer 1
62
4
5
183
100
AcDbEntity
100
AcDbLine
10
118.001834
20
-40.851722
30
0.0
11
118.677024
21
-40.002909
31
0.0
0
LINE
8
Layer 1
62
4
5
184
100
AcDbEntity
100
AcDbLine
10
118.677024
20
-40.002909
30
0.0
11
119.487893
21
-39.287213
31
0.0
0
LINE
8
Layer 1
62
4
5
185
100
AcDbEntity
100
AcDbLine
10
119.487893
20
-39.287213
30
0.0
11
120.377214
21
-38.776000
31
0.0
0
LINE
8
Layer 1
62
4
5
186
100
AcDbEntity
100
AcDbLine
10
120.377214
20
-38.776000
30
0.0
11
121.344987
21
-38.469269
31
0.0
0
LINE
8
Layer 1
62
4
5
187
100
AcDbEntity
100
AcDbLine
10
121.344987
20
-38.469269
30
0.0
11
122.391212
21
-38.367019
31
0.0
0
LINE
8
Layer 1
62
4
5
188
100
AcDbEntity
100
AcDbLine
10
125.601256
20
-43.830269
30
0.0
11
125.364612
21
-42.536482
31
0.0
0
LINE
8
Layer 1
62
4
5
189
100
AcDbEntity
100
AcDbLine
10
125.364612
20
-42.536482
30
0.0
11
124.654705
21
-41.453602
31
0.0
0
LINE
8
Layer 1
62
4
5
18a
100
AcDbEntity
100
AcDbLine
10
124.654705
20
-41.453602
30
0.0
11
123.615550
21
-40.712827
31
0.0
0
LINE
8
Layer 1
62
4
5
18b
100
AcDbEntity
100
AcDbLine
10
123.615550
20
-40.712827
30
0.0
11
122.391212
21
-40.465895
31
0.0
0
LINE
8
Layer 1
62
4
5
18c
100
AcDbEntity
100
AcDbLine
10
122.391212
20
-40.465895
30
0.0
11
121.164292
21
-40.715399
31
0.0
0
LINE
8
Layer 1
62
4
5
18d
100
AcDbEntity
100
AcDbLine
10
121.164292
20
-40.715399
30
0.0
11
120.117430
21
-41.463889
31
0.0
0
LINE
8
Layer 1
62
4
5
18e
100
AcDbEntity
100
AcDbLine
10
120.117430
20
-41.463889
30
0.0
11
119.407513
21
-42.549343
31
0.0
0
LINE
8
Layer 1
62
4
5
18f
100
AcDbEntity
100
AcDbLine
10
119.407513
20
-42.549343
30
0.0
11
119.170876
21
-43.830269
31
0.0
0
LINE
8
Layer 1
62
4
5
190
100
AcDbEntity
100
AcDbLine
10
119.170876
20
-43.830269
30
0.0
11
119.402368
21
-45.090627
31
0.0
0
LINE
8
Layer 1
62
4
5
191
100
AcDbEntity
100
AcDbLine
10
119.402368
20
-45.090627
30
0.0
11
120.096853
21
-46.176071
31
0.0
0
LINE
8
Layer 1
62
4
5
192
100
AcDbEntity
100
AcDbLine
10
120.096853
20
-46.176071
30
0.0
11
121.133425
21
-46.924570
31
0.0
0
LINE
8
Layer 1
62
4
5
193
100
AcDbEntity
100
AcDbLine
10
121.133425
20
-46.924570
30
0.0
11
122.391212
21
-47.174068
31
0.0
0
LINE
8
Layer 1
62
4
5
194
100
AcDbEntity
100
AcDbLine
10
122.391212
20
-47.174068
30
0.0
11
123.615550
21
-46.927142
31
0.0
0
LINE
8
Layer 1
62
4
5
195
100
AcDbEntity
100
AcDbLine
10
123.615550
20
-46.927142
30
0.0
11
124.654705
21
-46.186361
31
0.0
0
LINE
8
Layer 1
62
4
5
196
100
AcDbEntity
100
AcDbLine
10
124.654705
20
-46.186361
30
0.0
11
125.364612
21
-45.098343
31
0.0
0
LINE
8
Layer 1
62
4
5
197
100
AcDbEntity
100
AcDbLine
10
125.364612
20
-45.098343
30
0.0
11
125.601256
21
-43.830269
31
0.0
0
LINE
8
Layer 1
62
4
5
198
100
AcDbEntity
100
AcDbLine
10
136.284609
20
-34.375039
30
0.0
11
138.280600
21
-34.375039
31
0.0
0
LINE
8
Layer 1
62
4
5
199
100
AcDbEntity
100
AcDbLine
10
138.280600
20
-34.375039
30
0.0
11
138.280600
21
-46.968295
31
0.0
0
LINE
8
Layer 1
62
4
5
19a
100
AcDbEntity
100
AcDbLine
10
138.280600
20
-46.968295
30
0.0
11
137.552674
21
-47.855688
31
0.0
0
LINE
8
Layer 1
62
4
5
19b
100
AcDbEntity
100
AcDbLine
10
137.552674
20
-47.855688
30
0.0
11
136.480093
21
-48.604184
31
0.0
0
LINE
8
Layer 1
62
4
5
19c
100
AcDbEntity
100
AcDbLine
10
136.480093
20
-48.604184
30
0.0
11
135.235166
21
-49.105753
31
0.0
0
LINE
8
Layer 1
62
4
5
19d
100
AcDbEntity
100
AcDbLine
10
135.235166
20
-49.105753
30
0.0
11
133.969673
21
-49.272944
31
0.0
0
LINE
8
Layer 1
62
4
5
19e
100
AcDbEntity
100
AcDbLine
10
133.969673
20
-49.272944
30
0.0
11
132.902870
21
-49.171987
31
0.0
0
LINE
8
Layer 1
62
4
5
19f
100
AcDbEntity
100
AcDbLine
10
132.902870
20
-49.171987
30
0.0
11
131.924808
21
-48.869116
31
0.0
0
LINE
8
Layer 1
62
4
5
1a0
100
AcDbEntity
100
AcDbLine
10
131.924808
20
-48.869116
30
0.0
11
131.035488
21
-48.364330
31
0.0
0
LINE
8
Layer 1
62
4
5
1a1
100
AcDbEntity
100
AcDbLine
10
131.035488
20
-48.364330
30
0.0
11
130.234907
21
-47.657631
31
0.0
0
LINE
8
Layer 1
62
4
5
1a2
100
AcDbEntity
100
AcDbLine
10
130.234907
20
-47.657631
30
0.0
11
129.573221
21
-46.808180
31
0.0
0
LINE
8
Layer 1
62
4
5
1a3
100
AcDbEntity
100
AcDbLine
10
129.573221
20
-46.808180
30
0.0
11
129.100588
21
-45.885421
31
0.0
0
LINE
8
Layer 1
62
4
5
1a4
100
AcDbEntity
100
AcDbLine
10
129.100588
20
-45.885421
30
0.0
11
128.817008
21
-44.889355
31
0.0
0
LINE
8
Layer 1
62
4
5
1a5
100
AcDbEntity
100
AcDbLine
10
128.817008
20
-44.889355
30
0.0
11
128.722481
21
-43.819982
31
0.0
0
LINE
8
Layer 1
62
4
5
1a6
100
AcDbEntity
100
AcDbLine
10
128.722481
20
-43.819982
30
0.0
11
128.818937
21
-42.776335
31
0.0
0
LINE
8
Layer 1
62
4
5
1a7
100
AcDbEntity
100
AcDbLine
10
128.818937
20
-42.776335
30
0.0
11
129.108305
21
-41.795703
31
0.0
0
LINE
8
Layer 1
62
4
5
1a8
100
AcDbEntity
100
AcDbLine
10
129.108305
20
-41.795703
30
0.0
11
129.590584
21
-40.878087
31
0.0
0
LINE
8
Layer 1
62
4
5
1a9
100
AcDbEntity
100
AcDbLine
10
129.590584
20
-40.878087
30
0.0
11
130.265774
21
-40.023486
31
0.0
0
LINE
8
Layer 1
62
4
5
1aa
100
AcDbEntity
100
AcDbLine
10
130.265774
20
-40.023486
30
0.0
11
131.079858
21
-39.298787
31
0.0
0
LINE
8
Layer 1
62
4
5
1ab
100
AcDbEntity
100
AcDbLine
10
131.079858
20
-39.298787
30
0.0
11
131.968535
21
-38.781144
31
0.0
0
LINE
8
Layer 1
62
4
5
1ac
100
AcDbEntity
100
AcDbLine
10
131.968535
20
-38.781144
30
0.0
11
132.931807
21
-38.470554
31
0.0
0
LINE
8
Layer 1
62
4
5
1ad
100
AcDbEntity
100
AcDbLine
10
132.931807
20
-38.470554
30
0.0
11
133.969673
21
-38.367019
31
0.0
0
LINE
8
Layer 1
62
4
5
1ae
100
AcDbEntity
100
AcDbLine
10
133.969673
20
-38.367019
30
0.0
11
134.566412
21
-38.397886
31
0.0
0
LINE
8
Layer 1
62
4
5
1af
100
AcDbEntity
100
AcDbLine
10
134.566412
20
-38.397886
30
0.0
11
134.864783
21
-38.439039
31
0.0
0
LINE
8
Layer 1
62
4
5
1b0
100
AcDbEntity
100
AcDbLine
10
134.864783
20
-38.439039
30
0.0
11
135.204304
21
-38.511060
31
0.0
0
LINE
8
Layer 1
62
4
5
1b1
100
AcDbEntity
100
AcDbLine
10
135.204304
20
-38.511060
30
0.0
11
136.284609
21
-38.963758
31
0.0
0
LINE
8
Layer 1
62
4
5
1b2
100
AcDbEntity
100
AcDbLine
10
136.284609
20
-38.963758
30
0.0
11
136.284609
21
-34.375039
31
0.0
0
LINE
8
Layer 1
62
4
5
1b3
100
AcDbEntity
100
AcDbLine
10
134.000539
20
-40.465895
30
0.0
11
132.771045
21
-40.720544
31
0.0
0
LINE
8
Layer 1
62
4
5
1b4
100
AcDbEntity
100
AcDbLine
10
132.771045
20
-40.720544
30
0.0
11
131.716467
21
-41.484468
31
0.0
0
LINE
8
Layer 1
62
4
5
1b5
100
AcDbEntity
100
AcDbLine
10
131.716467
20
-41.484468
30
0.0
11
130.991119
21
-42.572492
31
0.0
0
LINE
8
Layer 1
62
4
5
1b6
100
AcDbEntity
100
AcDbLine
10
130.991119
20
-42.572492
30
0.0
11
130.749339
21
-43.819982
31
0.0
0
LINE
8
Layer 1
62
4
5
1b7
100
AcDbEntity
100
AcDbLine
10
130.749339
20
-43.819982
30
0.0
11
130.965400
21
-45.054613
31
0.0
0
LINE
8
Layer 1
62
4
5
1b8
100
AcDbEntity
100
AcDbLine
10
130.965400
20
-45.054613
30
0.0
11
131.675313
21
-46.165784
31
0.0
0
LINE
8
Layer 1
62
4
5
1b9
100
AcDbEntity
100
AcDbLine
10
131.675313
20
-46.165784
30
0.0
11
132.711887
21
-46.921998
31
0.0
0
LINE
8
Layer 1
62
4
5
1ba
100
AcDbEntity
100
AcDbLine
10
132.711887
20
-46.921998
30
0.0
11
133.969673
21
-47.174068
31
0.0
0
LINE
8
Layer 1
62
4
5
1bb
100
AcDbEntity
100
AcDbLine
10
133.969673
20
-47.174068
30
0.0
11
134.617855
21
-47.112335
31
0.0
0
LINE
8
Layer 1
62
4
5
1bc
100
AcDbEntity
100
AcDbLine
10
134.617855
20
-47.112335
30
0.0
11
135.276325
21
-46.885987
31
0.0
0
LINE
8
Layer 1
62
4
5
1bd
100
AcDbEntity
100
AcDbLine
10
135.276325
20
-46.885987
30
0.0
11
136.284609
21
-46.155495
31
0.0
0
LINE
8
Layer 1
62
4
5
1be
100
AcDbEntity
100
AcDbLine
10
136.284609
20
-46.155495
30
0.0
11
136.284609
21
-41.484468
31
0.0
0
LINE
8
Layer 1
62
4
5
1bf
100
AcDbEntity
100
AcDbLine
10
136.284609
20
-41.484468
30
0.0
11
135.101420
21
-40.681955
31
0.0
0
LINE
8
Layer 1
62
4
5
1c0
100
AcDbEntity
100
AcDbLine
10
135.101420
20
-40.681955
30
0.0
11
134.000539
21
-40.465895
31
0.0
0
LINE
8
Layer 1
62
4
5
1c1
100
AcDbEntity
100
AcDbLine
10
139.993731
20
-38.572790
30
0.0
11
143.018583
21
-38.572790
31
0.0
0
LINE
8
Layer 1
62
4
5
1c2
100
AcDbEntity
100
AcDbLine
10
143.018583
20
-38.572790
30
0.0
11
143.018583
21
-49.067170
31
0.0
0
LINE
8
Layer 1
62
4
5
1c3
100
AcDbEntity
100
AcDbLine
10
143.018583
20
-49.067170
30
0.0
11
141.002015
21
-49.067170
31
0.0
0
LINE
8
Layer 1
62
4
5
1c4
100
AcDbEntity
100
AcDbLine
10
141.002015
20
-49.067170
30
0.0
11
141.002015
21
-40.671668
31
0.0
0
LINE
8
Layer 1
62
4
5
1c5
100
AcDbEntity
100
AcDbLine
10
141.002015
20
-40.671668
30
0.0
11
139.993731
21
-40.671668
31
0.0
0
LINE
8
Layer 1
62
4
5
1c6
100
AcDbEntity
100
AcDbLine
10
139.993731
20
-40.671668
30
0.0
11
139.993731
21
-38.572790
31
0.0
0
LINE
8
Layer 1
62
4
5
1c7
100
AcDbEntity
100
AcDbLine
10
141.002015
20
-34.375039
30
0.0
11
143.018583
21
-34.375039
31
0.0
0
LINE
8
Layer 1
62
4
5
1c8
100
AcDbEntity
100
AcDbLine
10
143.018583
20
-34.375039
30
0.0
11
143.018583
21
-36.473915
31
0.0
0
LINE
8
Layer 1
62
4
5
1c9
100
AcDbEntity
100
AcDbLine
10
143.018583
20
-36.473915
30
0.0
11
141.002015
21
-36.473915
31
0.0
0
LINE
8
Layer 1
62
4
5
1ca
100
AcDbEntity
100
AcDbLine
10
141.002015
20
-36.473915
30
0.0
11
141.002015
21
-34.375039
31
0.0
0
LINE
8
Layer 1
62
4
5
1cb
100
AcDbEntity
100
AcDbLine
10
153.194357
20
-44.128639
30
0.0
11
153.042594
21
-42.616219
31
0.0
0
LINE
8
Layer 1
62
4
5
1cc
100
AcDbEntity
100
AcDbLine
10
153.042594
20
-42.616219
30
0.0
11
152.587331
21
-41.515332
31
0.0
0
LINE
8
Layer 1
62
4
5
1cd
100
AcDbEntity
100
AcDbLine
10
152.587331
20
-41.515332
30
0.0
11
152.186713
21
-41.056208
31
0.0
0
LINE
8
Layer 1
62
4
5
1ce
100
AcDbEntity
100
AcDbLine
10
152.186713
20
-41.056208
30
0.0
11
151.684499
21
-40.728260
31
0.0
0
LINE
8
Layer 1
62
4
5
1cf
100
AcDbEntity
100
AcDbLine
10
151.684499
20
-40.728260
30
0.0
11
150.375279
21
-40.465895
31
0.0
0
LINE
8
Layer 1
62
4
5
1d0
100
AcDbEntity
100
AcDbLine
10
150.375279
20
-40.465895
30
0.0
11
149.688511
21
-40.537921
31
0.0
0
LINE
8
Layer 1
62
4
5
1d1
100
AcDbEntity
100
AcDbLine
10
149.688511
20
-40.537921
30
0.0
11
149.068626
21
-40.753976
31
0.0
0
LINE
8
Layer 1
62
4
5
1d2
100
AcDbEntity
100
AcDbLine
10
149.068626
20
-40.753976
30
0.0
11
148.152939
21
-41.484468
31
0.0
0
LINE
8
Layer 1
62
4
5
1d3
100
AcDbEntity
100
AcDbLine
10
148.152939
20
-41.484468
30
0.0
11
148.152939
21
-49.067170
31
0.0
0
LINE
8
Layer 1
62
4
5
1d4
100
AcDbEntity
100
AcDbLine
10
148.152939
20
-49.067170
30
0.0
11
146.136374
21
-49.067170
31
0.0
0
LINE
8
Layer 1
62
4
5
1d5
100
AcDbEntity
100
AcDbLine
10
146.136374
20
-49.067170
30
0.0
11
146.136374
21
-41.484468
31
0.0
0
LINE
8
Layer 1
62
4
5
1d6
100
AcDbEntity
100
AcDbLine
10
146.136374
20
-41.484468
30
0.0
11
144.716545
21
-39.992619
31
0.0
0
LINE
8
Layer 1
62
4
5
1d7
100
AcDbEntity
100
AcDbLine
10
144.716545
20
-39.992619
30
0.0
11
146.012910
21
-38.572790
31
0.0
0
LINE
8
Layer 1
62
4
5
1d8
100
AcDbEntity
100
AcDbLine
10
146.012910
20
-38.572790
30
0.0
11
147.124079
21
-39.714828
31
0.0
0
LINE
8
Layer 1
62
4
5
1d9
100
AcDbEntity
100
AcDbLine
10
147.124079
20
-39.714828
30
0.0
11
147.473893
21
-39.375303
31
0.0
0
LINE
8
Layer 1
62
4
5
1da
100
AcDbEntity
100
AcDbLine
10
147.473893
20
-39.375303
30
0.0
11
147.936879
21
-39.025489
31
0.0
0
LINE
8
Layer 1
62
4
5
1db
100
AcDbEntity
100
AcDbLine
10
147.936879
20
-39.025489
30
0.0
11
148.194093
21
-38.881448
31
0.0
0
LINE
8
Layer 1
62
4
5
1dc
100
AcDbEntity
100
AcDbLine
10
148.194093
20
-38.881448
30
0.0
11
148.533618
21
-38.716831
31
0.0
0
LINE
8
Layer 1
62
4
5
1dd
100
AcDbEntity
100
AcDbLine
10
148.533618
20
-38.716831
30
0.0
11
149.457017
21
-38.454480
31
0.0
0
LINE
8
Layer 1
62
4
5
1de
100
AcDbEntity
100
AcDbLine
10
149.457017
20
-38.454480
30
0.0
11
150.375279
21
-38.367019
31
0.0
0
LINE
8
Layer 1
62
4
5
1df
100
AcDbEntity
100
AcDbLine
10
150.375279
20
-38.367019
30
0.0
11
151.517310
21
-38.468626
31
0.0
0
LINE
8
Layer 1
62
4
5
1e0
100
AcDbEntity
100
AcDbLine
10
151.517310
20
-38.468626
30
0.0
11
152.515303
21
-38.773428
31
0.0
0
LINE
8
Layer 1
62
4
5
1e1
100
AcDbEntity
100
AcDbLine
10
152.515303
20
-38.773428
30
0.0
11
153.369259
21
-39.281426
31
0.0
0
LINE
8
Layer 1
62
4
5
1e2
100
AcDbEntity
100
AcDbLine
10
153.369259
20
-39.281426
30
0.0
11
154.079177
21
-39.992619
31
0.0
0
LINE
8
Layer 1
62
4
5
1e3
100
AcDbEntity
100
AcDbLine
10
154.079177
20
-39.992619
30
0.0
11
154.565309
21
-40.750122
31
0.0
0
LINE
8
Layer 1
62
4
5
1e4
100
AcDbEntity
100
AcDbLine
10
154.565309
20
-40.750122
30
0.0
11
154.912548
21
-41.613081
31
0.0
0
LINE
8
Layer 1
62
4
5
1e5
100
AcDbEntity
100
AcDbLine
10
154.912548
20
-41.613081
30
0.0
11
155.120894
21
-42.581494
31
0.0
0
LINE
8
Layer 1
62
4
5
1e6
100
AcDbEntity
100
AcDbLine
10
155.120894
20
-42.581494
30
0.0
11
155.190348
21
-43.655364
31
0.0
0
LINE
8
Layer 1
62
4
5
1e7
100
AcDbEntity
100
AcDbLine
10
155.190348
20
-43.655364
30
0.0
11
155.190348
21
-49.067170
31
0.0
0
LINE
8
Layer 1
62
4
5
1e8
100
AcDbEntity
100
AcDbLine
10
155.190348
20
-49.067170
30
0.0
11
153.194357
21
-49.067170
31
0.0
0
LINE
8
Layer 1
62
4
5
1e9
100
AcDbEntity
100
AcDbLine
10
153.194357
20
-49.067170
30
0.0
11
153.194357
21
-44.128639
31
0.0
  0
ENDSEC
  0
SECTION
  2
OBJECTS
  0
DICTIONARY
  5
C
330
0
100
AcDbDictionary
  3
ACAD_GROUP
350
D
  3
ACAD_MLINESTYLE
350
17
  0
DICTIONARY
  5
D
330
C
100
AcDbDictionary
  0
DICTIONARY
  5
1A
330
C
100
AcDbDictionary
  0
DICTIONARY
  5
17
330
C
100
AcDbDictionary
  3
STANDARD
350
18
  0
DICTIONARY
  5
19
330
C
100
AcDbDictionary
  0
ENDSEC
  0
EOF
